<?xml version="1.0" encoding="UTF-8"?>
<svg xmlns="http://www.w3.org/2000/svg" viewBox="0 0 1920 1080">
  <g id="desk">
    <rect class="cls-3" x="528.38" y="899.52" width="739.38" height="18.27"/>
  </g>
  <g id="clock">
    <path id="outer-clock" class="cls-4" d="M762.78,299.07c-.79-1.94-2.02-5-3.16-8.9-2.06-7-1.96-10.25-3.16-17.21-1.83-10.59-3.27-19.03-6.73-19.58-3.24-.52-6.99,5.83-10.68,12.07-6.23,10.53-5.07,14.09-9.3,16.81-4.95,3.19-8.12-.67-21.16-.59-13.52.07-16.91,4.25-22.55.99-2.35-1.36-2.4-2.46-9.69-14.24-7.41-11.96-8.97-13.42-10.48-13.25-.87.1-2.73.84-6.13,13.65-3.59,13.51-2.73,17.2-6.33,28.48-1.65,5.17-3.39,9.28-4.36,11.47-2.83,6.39-5.47,10.75-6.12,11.87-4.22,7.28-10.06,25.56-6.33,44.51,4.89,24.85,23.88,38.76,28.48,41.93,27,18.61,56.79,10.69,62.31,9.1,6.22-1.8,27.5-8.34,41.14-29.87,1.49-2.35,13.78-22.34,10.09-45.69-2.5-15.77-8.9-27.3-8.9-27.3-.97-1.75-3.94-6.86-6.92-14.24Z"/>
    <g id="inner-clock">
      <circle class="cls-2" cx="707.34" cy="349.34" r="54.23"/>
      <rect class="cls-7" x="706.4" y="295.08" width="6.35" height="13.43" rx="3.17" ry="3.17"/>
      <rect class="cls-7" x="706.4" y="391.07" width="6.35" height="13.43" rx="3.17" ry="3.17"/>
      <rect class="cls-7" x="656.65" y="340.64" width="6.35" height="13.43" rx="3.17" ry="3.17" transform="translate(1007.18 -312.47) rotate(90)"/>
      <rect class="cls-7" x="751.77" y="339.45" width="6.35" height="13.43" rx="3.17" ry="3.17" transform="translate(1101.11 -408.78) rotate(90)"/>
    </g>
    <path class="cls-29" d="M706.07,286.8v3.16c0,1.83,1.61,3.58,3.5,3.5s3.5-1.54,3.5-3.5v-3.16c0-1.83-1.61-3.58-3.5-3.5s-3.5,1.54-3.5,3.5h0Z"/>
    <path class="cls-29" d="M690.21,286.8v3.16c0,1.83,1.61,3.58,3.5,3.5s3.5-1.54,3.5-3.5v-3.16c0-1.83-1.61-3.58-3.5-3.5s-3.5,1.54-3.5,3.5h0Z"/>
    <path class="cls-29" d="M720.31,286.8v3.16c0,1.83,1.61,3.58,3.5,3.5s3.5-1.54,3.5-3.5v-3.16c0-1.83-1.61-3.58-3.5-3.5s-3.5,1.54-3.5,3.5h0Z"/>
    <path class="cls-29" d="M660.12,298.61h10.3c4.5,0,4.51-7,0-7h-10.3c-4.5,0-4.51,7,0,7h0Z"/>
    <path class="cls-29" d="M744.64,298.61h10.3c4.5,0,4.51-7,0-7h-10.3c-4.5,0-4.51,7,0,7h0Z"/>
    <path class="cls-29" d="M747.95,286.74h3.54c1.83,0,3.58-1.61,3.5-3.5s-1.54-3.5-3.5-3.5h-3.54c-1.83,0-3.58,1.61-3.5,3.5s1.54,3.5,3.5,3.5h0Z"/>
    <path class="cls-29" d="M663.5,286.74h3.54c1.83,0,3.58-1.61,3.5-3.5s-1.54-3.5-3.5-3.5h-3.54c-1.83,0-3.58,1.61-3.5,3.5s1.54,3.5,3.5,3.5h0Z"/>
    <path class="cls-29" d="M665.27,275.09h.78c.48.02.93-.08,1.35-.3.43-.14.81-.38,1.13-.72.34-.32.58-.69.72-1.13.22-.42.32-.87.3-1.35l-.13-.93c-.17-.59-.47-1.11-.9-1.54l-.71-.55c-.55-.32-1.13-.48-1.77-.48h-.78c-.48-.02-.93.08-1.35.3-.43.14-.81.38-1.13.72-.34.32-.58.69-.72,1.13-.22.42-.32.87-.3,1.35l.13.93c.17.59.47,1.11.9,1.54l.71.55c.55.32,1.13.48,1.77.48h0Z"/>
    <path class="cls-29" d="M749.32,275.09h.78c.48.02.93-.08,1.35-.3.43-.14.81-.38,1.13-.72.34-.32.58-.69.72-1.13.22-.42.32-.87.3-1.35l-.13-.93c-.17-.59-.47-1.11-.9-1.54l-.71-.55c-.55-.32-1.13-.48-1.77-.48h-.78c-.48-.02-.93.08-1.35.3-.43.14-.81.38-1.13.72-.34.32-.58.69-.72,1.13-.22.42-.32.87-.3,1.35l.13.93c.17.59.47,1.11.9,1.54l.71.55c.55.32,1.13.48,1.77.48h0Z"/>
    <path class="cls-21" d="M652.08,316.43c-3.51,5.81-6.13,12.19-7.66,18.81s-2.68,14.15-.52,20.64c1.01,3.04,5.84,1.74,4.82-1.33s-1.03-6.17-.8-9.33.71-6.09,1.42-9.08c1.45-6.08,3.83-11.85,7.05-17.19,1.67-2.76-2.65-5.28-4.32-2.52h0Z"/>
    <path class="cls-21" d="M766.4,341.23c4.1,14.69-.91,29.93-9.73,41.85-2.45,3.31-5.23,6.36-8.17,9.24-2.3,2.25,1.23,5.79,3.54,3.54,11.41-11.17,20.09-25.66,20.78-41.95.2-4.71-.34-9.47-1.6-14.01-.86-3.09-5.69-1.78-4.82,1.33h0Z"/>
    <path class="cls-42" d="M653.73,387.55c8.31,12.07,21.46,20.61,35.89,23.27,4.1.76,8.26,1.08,12.43.89,3.2-.15,3.22-5.15,0-5-13.29.61-26.63-4.25-36.5-13.18-2.81-2.55-5.35-5.38-7.5-8.51-.76-1.11-2.19-1.61-3.42-.9-1.1.64-1.67,2.3-.9,3.42h0Z"/>
  </g>
  <g id="clock-arm">
    <path class="cls-7" d="M709.9,313.61c-1.52-.04-2.08,4.13-6.66,19.54-3.62,12.16-4.79,14.66-3.08,17.09,3.11,4.44,13.11,4.8,16.7.53,1.74-2.07,1.32-4.43-1.7-18.39-3.56-16.51-4.16-18.74-5.26-18.77Z"/>
    <circle class="cls-7" cx="708.78" cy="349.44" r="9.49"/>
  </g>
  <g id="plant">
    <g id="plant-back">
      <g id="left-plant">
        <path class="cls-11" d="M584.56,766.93c-12.55-7.71-11.48-28.51-10.81-41.41,1.21-23.51,9.28-27.09,10.02-47.74.7-19.62-5.79-25.54-8.7-43.25-7.51-45.64,24.36-88.05,27.96-86.77,3,1.07-16.47,31.56-7.38,70.42,5.15,22.04,13.86,25.3,18.99,52.22,2.29,12.03-.25,8.94,1.05,45.63,1.16,32.68,3.41,41.93-3.69,48.53-6.96,6.46-19.53,7.23-27.43,2.37Z"/>
        <path class="cls-32" d="M586.58,579.18c-4.62,9.67-6.04,20.32-6.76,30.9-.36,5.38-.78,10.81-.66,16.21.07,2.94.36,5.9.97,8.78.56,2.65,1.4,5.24,2.3,7.79,1.84,5.21,3.84,10.36,5.29,15.7s2.22,10.39,2.27,15.86c.08,11.04-2.54,21.74-5.55,32.37s-6.34,21.03-7.91,31.9c-.21,1.49-.41,2.99-.56,4.49-.13,1.31,1.25,2.56,2.5,2.5,1.47-.07,2.36-1.1,2.5-2.5.53-5.18,1.61-10.5,2.9-15.7s2.86-10.55,4.37-15.8c3.08-10.67,5.99-21.49,6.63-32.63.32-5.59-.03-11.2-1.11-16.7s-2.8-10.61-4.66-15.76-3.87-10.13-4.57-15.27c-.74-5.48-.29-11.08.02-16.58.57-10.25,1.27-20.23,5-29.92.44-1.15.8-1.96,1.36-3.13s.34-2.7-.9-3.42c-1.09-.64-2.84-.33-3.42.9h0Z"/>
        <path class="cls-43" d="M585.29,584.58c-1.67,10.54-2.69,21.25-1.43,31.89s4.23,20.6,6.23,30.94,2.86,20.73,2.31,31.24c-.26,5.06-.96,9.68-2.13,14.64s-2.49,9.36-3.88,14c-2.8,9.35-5.61,18.83-6.05,28.64-.05,1.19-.07,2.37-.05,3.56.02,1.31,1.13,2.56,2.5,2.5s2.52-1.1,2.5-2.5c-.08-4.91.44-9.21,1.37-13.84s2.27-9.36,3.64-13.98c2.81-9.49,5.79-18.93,6.78-28.83,1.07-10.63.33-21.5-1.34-32.03s-4.65-20.24-6.33-30.49c-.4-2.46-.69-4.67-.88-7.26s-.27-5.3-.23-7.95c.07-5.1.57-10.53,1.24-15.35.18-1.29.37-2.58.58-3.87s-.33-2.75-1.75-3.08c-1.2-.27-2.86.36-3.08,1.75h0Z"/>
      </g>
      <g id="middle-plant">
        <path class="cls-11" d="M627.29,533.53c-3.88,1.11,8.31,29.59,1.58,72-2.19,13.83-3.31,17.73-5.27,31.38-3.09,21.46,4.61,26.84,6.33,49.58,3.05,40.3-18.53,57.93-6.86,72.26,6.63,8.14,20.18,10.56,28.22,6.33,9.25-4.87,10.39-18.19,12.66-44.84,1.56-18.29,2.43-28.47-.26-42.46-3.92-20.41-7.99-23.26-11.08-44.04-2.67-17.95.2-21.24-1.05-37.19-2.77-35.15-20.26-64.18-24.26-63.03Z"/>
        <path class="cls-43" d="M653.18,677.14c.24.39.47.79.68,1.2.1.19.19.38.27.57.04.1.09.19.13.29-.21-.48-.01-.02.02.09.33.86.59,1.74.79,2.63.1.45.2.9.28,1.36.04.21.07.42.11.63.02.14.04.28.06.42-.04-.23-.04-.3,0-.03.11.92.2,1.84.26,2.77.29,4.07.33,8.16.13,12.23-.1,2.02-.25,4.05-.46,6.06-.05.49-.11.99-.17,1.48-.03.23-.06.46-.08.68-.01.11-.03.23-.04.34-.09.73.04-.29-.02.13-.14.98-.28,1.97-.45,2.95-.67,4.04-1.57,8.04-2.7,11.97-.62,2.17-1.31,4.32-2.07,6.44-.39,1.08-.79,2.15-1.21,3.22-.21.53-.43,1.07-.65,1.6-.04.11-.09.21-.13.32-.16.39.23-.53-.06.14-.12.28-.24.56-.36.84-.52,1.2-.39,2.74.9,3.42,1.08.57,2.86.38,3.42-.9,3.41-7.81,5.96-15.97,7.46-24.37s2.07-16.95,1.57-25.46c-.27-4.67-.84-9.51-3.36-13.56-.69-1.11-2.26-1.64-3.42-.9s-1.64,2.23-.9,3.42h0Z"/>
        <path class="cls-32" d="M632.81,555.95c.13.15.26.31.39.46-.32-.38-.09-.12-.03-.03.19.28.38.55.55.83s.33.57.49.87c.09.18.18.36.26.54.04.08.28.7.07.14.5,1.34.91,2.69,1.2,4.09.31,1.48.53,2.97.75,4.47.02.16.05.32.07.48,0,.04.11.83.04.3.05.4.1.81.15,1.21.11.89.21,1.78.31,2.67.71,6.72.96,13.5.76,20.25-.12,3.83-.38,7.65-.79,11.46-.14,1.3,1.25,2.56,2.5,2.5,1.47-.07,2.35-1.1,2.5-2.5.74-6.97,1.01-13.98.77-20.98-.12-3.5-.36-7-.72-10.48s-.76-6.84-1.42-10.21-1.93-6.89-4.32-9.61c-.87-.99-2.66-.95-3.54,0-.96,1.05-.92,2.48,0,3.54h0Z"/>
        <path class="cls-43" d="M632.84,558.52c.5,1.49.91,3.02,1.22,4.56.14.72.27,1.43.38,2.16,0,.06.12.82.04.25.02.15.04.31.06.46.06.46.11.92.15,1.38.3,3.08.36,6.18.36,9.27,0,6.58-.21,13.17-.59,19.74s-.94,13.08-1.69,19.6c-.19,1.65-.39,3.3-.6,4.94-.05.4-.1.8-.16,1.2-.02.16-.04.32-.06.48.06-.46,0,.06-.02.18-.11.84-.23,1.68-.35,2.53-.47,3.29-.99,6.56-1.55,9.84-1.25,7.26-2.73,14.48-4.43,21.65-.3,1.27.4,2.77,1.75,3.08s2.75-.39,3.08-1.75c3.1-13.06,5.44-26.29,7.06-39.61,1.6-13.18,2.46-26.45,2.57-39.73.06-7.22-.04-14.63-2.37-21.54-.42-1.24-1.74-2.18-3.08-1.75-1.23.4-2.19,1.75-1.75,3.08h0Z"/>
        <path class="cls-32" d="M651.87,691.51c.42,4.74.42,9.51,0,14.25-.05.57-.11,1.15-.17,1.72-.03.27-.06.53-.09.8-.02.15-.04.3-.06.46-.06.48.03-.16-.02.13-.17,1.18-.35,2.35-.57,3.52-.43,2.34-.96,4.66-1.6,6.95-.72,2.59-1.57,5.14-2.55,7.64-.48,1.22.52,2.8,1.75,3.08,1.43.33,2.57-.44,3.08-1.75,3.55-9.1,5.41-18.88,5.54-28.65.04-2.72-.07-5.45-.31-8.16-.12-1.3-1.07-2.56-2.5-2.5-1.26.06-2.62,1.11-2.5,2.5h0Z"/>
      </g>
      <g id="right-plant">
        <path class="cls-11" d="M673.97,587.07c-3.76,10.68-3.33,19.7-2.64,34.29.87,18.22,4.12,21.07,7.12,43.78,2.74,20.73,4.11,31.1,2.11,44.04-3.54,22.98-13.82,34.36-7.38,42.73,2.34,3.05,6.84,4.49,15.82,7.38,8.93,2.87,15.69,5.05,19.52,1.85,2.48-2.08,2.55-5.43,2.37-16.35-.21-13.05-.31-19.58-.53-22.95-1.14-17.65.7-19.26,0-33.49-.68-13.81-2.97-23.69-5.86-36.13-6.62-28.48-11.98-32.33-12.07-50.11-.03-5.26,0-15.23,4.22-26.9,6.41-17.76,17.51-25.67,16.35-26.9-1.71-1.82-29.54,11.81-39.03,38.77Z"/>
        <path class="cls-32" d="M690.35,567.54c-3.81,10.77-6.03,22.09-6.62,33.49s.66,22.93,3.14,34.15,5.98,22.11,8.91,33.18,5,22.64,5.99,34.24,1.18,23.76,1.2,35.66c0,1.47,0,2.94,0,4.42,0,1.35,1.15,2.5,2.5,2.5s2.5-1.14,2.5-2.5c0-11.84-.06-23.69-.86-35.51-.8-11.82-2.41-23.55-5.22-35.06s-6.25-22.05-9.01-33.17-4.45-21.92-4.31-33.22,1.89-22.18,5.26-32.86c.42-1.34.87-2.66,1.33-3.98s-.51-2.74-1.75-3.08c-1.38-.38-2.62.47-3.08,1.75h0Z"/>
        <path class="cls-43" d="M690.61,568.87c-7.08,8.05-9.58,18.67-10.19,29.13-.69,11.95.5,24.14,2.62,35.9s6.12,23.96,9.7,35.84c1.77,5.89,3.38,11.82,4.54,17.87s1.9,12.08,2.38,18.17c.97,12.41.84,24.87.59,37.3-.03,1.53-.06,3.06-.1,4.6-.03,1.35,1.17,2.5,2.5,2.5s2.47-1.14,2.5-2.5c.26-12.32.52-24.67-.17-36.98s-2.43-24.54-5.73-36.45-7.5-23.33-10.13-35.31-3.93-23.74-3.87-35.73c.03-5.15.36-10.02,1.41-14.86s2.62-9.17,5.42-13.3c.74-1.09,1.2-1.67,2.06-2.65s1-2.54,0-3.54c-.91-.91-2.64-1.02-3.54,0h0Z"/>
      </g>
    </g>
    <g id="plant-front">
      <g id="left-plant-2" data-name="left-plant">
        <path class="cls-17" d="M576.12,767.2c-1.76-3.09-2.71-7.41,8.7-40.62,9.58-27.87,11.24-27.72,12.92-37.45,3.44-19.86-2.72-24.81-2.64-48.79.09-25.89,7.28-26.24,8.7-50.9,2.18-37.83-13.11-65.69-10.29-66.73,2.36-.86,11.65,19.1,15.03,26.37,9.66,20.77,14.49,31.15,15.56,42.46,1.85,19.67-6.11,24-2.9,43.52,2.14,13.06,6.01,13,10.55,27.43,3.42,10.86,3.52,18.22-1.05,73.32-2.19,26.41-2.79,31.54-7.91,36.13-12.55,11.24-39.52,7.81-46.68-4.75Z"/>
        <path class="cls-31" d="M606.67,569.33c2.02,11.4,2.2,23.22.46,34.66-.9,5.94-2.44,11.71-3.9,17.53s-2.57,11.7-2.94,17.7-.04,11.97.78,17.91c.4,2.88.93,5.75,1.59,8.59s1.54,5.69,2.08,8.59c1.04,5.57-.17,11.31-1.2,16.81s-2.33,11.44-3.78,17.1c-2.87,11.26-6.47,22.34-10.77,33.14-.53,1.34-1.08,2.68-1.64,4.02-.52,1.25.56,2.75,1.75,3.08,1.44.4,2.55-.49,3.08-1.75,4.51-10.83,8.32-21.95,11.39-33.28,1.53-5.64,2.87-11.32,4.03-17.04.59-2.9,1.13-5.8,1.61-8.72.51-3.08.97-6.21.92-9.34-.09-5.99-2.31-11.72-3.43-17.55s-1.62-11.43-1.57-17.19.78-11.66,2.1-17.38,3.07-11.61,4.15-17.52c2.2-12,2.45-24.23.79-36.31-.2-1.46-.43-2.91-.69-4.36-.24-1.33-1.86-2.08-3.08-1.75-1.4.39-1.98,1.74-1.75,3.08h0Z"/>
        <path class="cls-26" d="M606.41,568.19c4.9,10.35,10.29,21.87,8.15,33.54-1.1,5.96-3.6,11.55-4.74,17.51s-1.1,12.35-.17,18.51,2.63,11.67,4.88,17.19,5.06,11,5.69,17.04.01,12.11-.95,17.98-2.44,11.83-4.23,17.59c-3.58,11.54-8.45,22.61-13.46,33.58-.62,1.36-1.24,2.71-1.86,4.07-.56,1.23-.35,2.69.9,3.42,1.08.63,2.85.34,3.42-.9,5.19-11.31,10.38-22.66,14.4-34.44,3.97-11.64,6.98-24.04,7.02-36.4.01-3.25-.27-6.54-1.01-9.72s-1.86-5.92-3.07-8.78c-2.39-5.65-4.66-11.28-6.02-17.29s-1.81-11.72-1.16-17.65,3.02-11.56,4.5-17.33c1.59-6.22,1.64-12.47.3-18.73s-3.73-11.88-6.31-17.52c-.64-1.4-1.3-2.8-1.96-4.19-.58-1.22-2.33-1.54-3.42-.9-1.25.73-1.48,2.2-.9,3.42h0Z"/>
      </g>
      <g id="middle-plant-2" data-name="middle-plant">
        <path class="cls-17" d="M621.22,780.65c9.2,7.33,27.27,8.23,33.23.53,2.39-3.08,2.3-6.86,2.11-10.29-.91-16.11-1.36-24.16-7.19-38.76-9.98-24.98,9.65-36.11,11.15-85.2,1.04-34.35-8.38-34.98-5.27-66.73,3.51-35.81,17.76-58.13,14.77-59.6-2.93-1.45-19.49,18.56-28.22,45.36-7.49,22.99-2.64,30.76-5.27,60.66-3.66,41.51-14.77,46.42-21.36,99.96-4.73,38.36-.62,48.74,6.07,54.07Z"/>
        <path class="cls-26" d="M647.09,567.21c-2.88,11.75-3.58,23.99-1.98,35.98s5.6,23.14,6.08,35.01c.24,5.92-.69,11.65-2.06,17.39s-3.01,11.9-4.47,17.86c-2.94,12.04-5.69,24.12-8.25,36.24-1.3,6.15-2.9,12.39-1.92,18.7.85,5.49,3.66,10.5,6.67,15.09.73,1.11,1.48,2.21,2.23,3.31s2.2,1.61,3.42.9c1.1-.64,1.66-2.3.9-3.42-2.95-4.3-6.03-8.78-7.56-13.69-.85-2.72-1.12-5.15-.94-8.01s.83-5.77,1.42-8.62c2.5-12.01,5.2-23.99,8.08-35.92,1.43-5.94,2.93-11.87,4.44-17.79s2.85-11.81,3.08-17.88c.44-11.86-3.26-23.32-5.38-34.86s-2.11-23.25.14-34.65c.28-1.44.6-2.87.95-4.3.32-1.31-.42-2.71-1.75-3.08s-2.75.43-3.08,1.75h0Z"/>
        <path class="cls-31" d="M651.51,552.86c-6.02,11.86-9.46,24.93-10,38.21-.28,6.98.47,13.91,1.04,20.87.53,6.49.64,12.98.19,19.48-.86,12.49-3.49,24.78-6.5,36.91s-6.61,24.7-9.35,37.19-4.67,25.01-4.54,37.7c.02,1.58.07,3.15.15,4.72.07,1.35,1.1,2.5,2.5,2.5,1.3,0,2.57-1.14,2.5-2.5-.64-12.42.87-24.79,3.34-36.95,2.52-12.41,5.96-24.61,9.1-36.87s5.99-24.7,7.34-37.34c.66-6.19.93-12.43.68-18.65-.29-6.98-1.27-13.91-1.47-20.89-.37-12.79,2.08-25.72,7.25-37.43.66-1.49,1.36-2.97,2.1-4.42.61-1.2.32-2.71-.9-3.42-1.11-.65-2.81-.31-3.42.9h0Z"/>
      </g>
      <g id="right-plant-2" data-name="right-plant">
        <path class="cls-17" d="M666.05,777.48c10.55,4.95,13.28,4.67,15.03,3.96,4.67-1.89,6.18-8.35,6.86-11.6,10-47.75,3.96-84.92,3.96-84.92-5.19-31.95-9.68-33.51-9.49-54.33.16-18.3,3.68-23.15,2.11-39.56-2.62-27.37-15.64-47.62-17.67-46.95-1.81.61,6.39,17.51,3.43,41.41-1.74,14.04-6.02,19.93-9.49,30.33-10.89,32.58,8.43,42.66,4.63,80.97-3.67,36.97-25.1,62.32-14.39,72.53,2.32,2.21,6.76,4.29,15.03,8.18Z"/>
        <path class="cls-31" d="M673.79,585.2c1.62,4.91,2.23,9.59,1.85,14.77-.35,4.8-1.8,9.84-3.03,14.73s-2.23,10.14-2.33,15.35.49,10.2,1.4,15.21c1.8,9.91,4.95,19.49,7.23,29.29,1.16,4.99,2.02,9.88,2.45,14.89.46,5.41.57,10.84.67,16.27s.1,10.54-.2,15.79-.86,10.17-2.03,15.34c-.28,1.25-.6,2.5-.94,3.74s.43,2.78,1.75,3.08,2.7-.4,3.08-1.75c2.88-10.36,3.46-21.19,3.4-31.88s-.28-21.81-2.42-32.5c-1.99-9.98-5.21-19.66-7.37-29.6-1.08-4.98-1.79-9.37-1.99-14.41-.09-2.46-.04-4.93.18-7.38.13-1.35.22-2.06.46-3.43.23-1.29.5-2.58.79-3.85,1.16-5.02,2.7-9.95,3.45-15.05.8-5.41.68-10.83-.53-16.17-.29-1.27-.65-2.53-1.05-3.77s-1.75-2.18-3.08-1.75c-1.24.4-2.19,1.75-1.75,3.08h0Z"/>
        <path class="cls-26" d="M674.68,580.77c.17,5.37-.16,10.84-1.03,16.01s-2.37,10.38-4.1,15.43c-3.4,9.89-7.35,19.87-6.57,30.53.41,5.56,1.78,10.98,3.1,16.38s2.49,10.78,3.32,16.25,1.24,10.76,1.19,16.17-.62,10.69-1.42,15.84c-1.7,10.91-4.31,21.67-5.57,32.65-.15,1.34-.28,2.67-.39,4.01s1.23,2.56,2.5,2.5c1.45-.06,2.39-1.1,2.5-2.5.87-10.63,3.38-21.19,5.21-31.81.95-5.51,1.74-11.06,2.04-16.64s.07-11.02-.56-16.49-1.66-11.19-2.91-16.71-2.73-10.6-3.59-16c-.78-4.9-.63-10.09.37-14.89s2.77-9.9,4.48-14.74,3.47-10.05,4.57-15.26c1.16-5.47,1.81-11.07,1.89-16.66.02-1.36,0-2.71-.04-4.07s-1.12-2.56-2.5-2.5-2.54,1.1-2.5,2.5h0Z"/>
      </g>
    </g>
    <g id="flower-pot">
      <path class="cls-18" d="M559.83,748.81c-.72,1.47.38,2.21,2.11,8.97,1.69,6.58,1.43,8.9,3.43,10.02,2.34,1.31,4.69-.77,6.33.79.92.87.72,2.04.93,5.67.12,2.16.5,4.3.66,6.46.45,6.48,3.2,29.3,6.86,52.48,1.79,11.34,1.51,8.26,3.4,20.16,5.11,32.22,4.79,40.21,11.37,44.46,2.18,1.4,2.96,1.02,22.15.79,8.52-.1,19.98-.23,31.12,0,10.18.21,13,.59,25.85.79,12.86.21,19.33.28,21.36-1.05,6.46-4.24,5.84-12.5,9.31-41.96,1.79-15.2,1.77-11.48,3.09-23.45,1.24-11.25,4.41-43.26,5.01-52.48.18-2.74.96-5.43,1.05-8.18.06-1.73,0-2.98.89-3.89,1.4-1.43,3.26-.09,5.17-1.12,1.41-.76,1.91-2.3,3.16-10.55,1.08-7.1.98-7.75.53-8.44-1.68-2.56-5.93-2.24-12.66-2.11-6.24.12-12.49-.56-18.73-.26-6.04.29,6.12-.41-30.86.53-21.03.53-21.04.66-31.39.83-14.33.23-21.49.34-26.65.1-9.13-.42-18.28-.57-27.42-.93-8.66-.34-14.62-.62-16.09,2.37Z"/>
      <path class="cls-33" d="M566.09,771.47c51.25,1.79,102.56,1.45,153.78-1.01,4.48-.22,4.51-7.22,0-7-51.22,2.46-102.53,2.8-153.78,1.01-4.51-.16-4.5,6.84,0,7h0Z"/>
      <path class="cls-38" d="M692.66,781.14c-2.47,34.74-4.98,69.48-7.51,104.22-.33,4.49,6.67,4.47,7,0,2.53-34.74,5.04-69.48,7.51-104.22.32-4.5-6.68-4.48-7,0h0Z"/>
      <path class="cls-38" d="M618.04,761.24c30.29.98,60.71-.27,91.01-.73,4.5-.07,4.51-7.07,0-7-30.3.46-60.71,1.72-91.01.73-4.51-.15-4.5,6.85,0,7h0Z"/>
      <path class="cls-30" d="M585.9,832.49c4.96,17.87,7.74,35.88,11.34,54.01,1.54,7.75,10,5.69,16.28,5.75,9.34.1,18.67.06,28.01-.08,4.5-.07,4.51-7.07,0-7-7.73.12-15.45.17-23.18.12-3.8-.02-7.82-.46-11.59-.13-3.1.27-2.05.7-2.91-1.48-.75-1.93-.69-4.64-1.02-6.7-2.51-15.63-5.95-31.09-10.18-46.34-1.2-4.33-7.96-2.49-6.75,1.86h0Z"/>
    </g>
  </g>
  <g id="torso">
    <g id="neck">
      <path class="cls-5" d="M915.68,458.89c-.64,5.5-1.13,7.71-.2,11.08.4,1.46.59,1.38,2.97,7.12,2.23,5.38,2.06,5.43,2.77,6.73,2.14,3.9,5.15,6.09,7.71,7.91,4.28,3.05,8.64,4.71,12.42,5.7,6.22,1.63,36.84,9.65,51.47-6.49,3.56-3.93,8.37-11.71,6.13-17.8-.53-1.45-1.17-2.02-4.95-6.73-4.87-6.07-7.24-9.42-8.11-10.48-9.62-11.8-62.58-23.85-69.03-10.48-.88,1.82.14,1.97-1.19,13.45Z"/>
      <path class="cls-23" d="M918.76,457.34c-.82,6.58-1.96,13.11-3.35,19.6-.94,4.39,5.81,6.27,6.75,1.86,1.52-7.1,2.7-14.25,3.6-21.46.56-4.46-6.45-4.42-7,0h0Z"/>
      <path class="cls-23" d="M922.67,464.59c10.88,2.03,21.85,3.86,32.86,5.06,10.13,1.1,20.12.85,29.46-3.6,4.06-1.94.52-7.98-3.53-6.04-8.66,4.13-18.37,3.55-27.65,2.45-9.81-1.17-19.57-2.8-29.28-4.61-4.4-.82-6.29,5.92-1.86,6.75h0Z"/>
    </g>
    <g id="undershirt">
      <path class="cls-12" d="M941.4,534.45c2.54,6.47,2.36,8.61,5.74,32.64,1.25,8.92,2.48,16.96,4.95,33.03,9.55,62.43,12.08,58.26,11.08,68.04-.15,1.41-.51,4.52,1.19,7.52,6.11,10.79,33.82,11.12,39.96.79,2.94-4.95.32-11.33-1.19-15.43-.11-.3-2.84-32.11-8.31-95.74-3.51-40.9-3.43-43.19-2.77-45.49.21-.75,1.6-5.39-.2-6.73-1.8-1.35-5.29,1.79-6.41.87-2.61-2.15,13.45-21.27,9.74-25.97-2.86-3.62-13.92,5.84-31.61,6.9-22.06,1.33-37.27-11.43-39.8-7.54-2.51,3.87,9.68,20.8,15.67,26.53.21.2,2.89,2.75,2.37,3.56-.56.87-4.13-1.47-5.54-.4-2.19,1.68,2.43,10.51,5.14,17.41Z"/>
      <path class="cls-36" d="M988.87,491.38c-19.67,8.38-42.49,7.37-61.45-2.43-4-2.07-7.54,3.97-3.53,6.04,21.4,11.07,46.38,11.85,68.52,2.43,4.13-1.76.57-7.79-3.53-6.04h0Z"/>
      <path class="cls-36" d="M931.49,502.42c5.06,4.78,7.54,11.51,9.88,17.92s4.17,12.74,5.74,19.25c3.47,14.37,5.49,29.04,7.39,43.69,3.9,30.18,6.92,60.47,9.11,90.82.32,4.47,7.32,4.5,7,0-2.33-32.29-5.59-64.5-9.87-96.59-1.94-14.55-4.07-29.11-7.77-43.32-3.19-12.24-7.01-27.71-16.53-36.71-3.27-3.09-8.23,1.85-4.95,4.95h0Z"/>
    </g>
    <g id="overshirt">
      <path class="cls-14" d="M825.88,508.74c-11.98,6.82-25.09,14.29-32.84,20.57-9.44,7.66-23.08,23.46-32.44,91.78-7,51.08-10.5,76.62-5.14,88.62,26.38,59.1,143.84,64.83,217.98,68.44,55.27,2.69,71.71-7.56,107.21,3.96,6.08,1.97,18.23,6.37,28.48.79,14.64-7.97,15.46-30.87,17.01-49.85,7.61-93.06,36.38-136.22,13.45-179.6-1.98-3.74-4.26-8.05-8.52-13-10.93-12.68-22.73-15.42-63.01-32.65-10.98-4.69-9.15-4.08-11.55-4.99-6.78-2.55-46.61-17.56-60.92-3.56-6.37,6.22-5.64,16.18-4.35,29.67,2.25,23.58,10,97.93,8.31,138.86-.38,9.31-1.6,25.18-11.08,29.67-3.17,1.5-6.72,1.47-9.1.79-13.19-3.75-15.4-34.13-18.2-64.48-8.6-93.35-15.44-106.85-24.92-116.7-15.66-16.27-37.8-21.84-40.75-22.55-19.51-4.68-35.18-1.16-38.37-.4-2.73.65-10.04,2.56-31.25,14.64Z"/>
      <path class="cls-34" d="M993.24,517.08c4.88,48.89,9.7,97.87,9.66,147.05,0,4.5,7,4.51,7,0,.04-49.19-4.78-98.16-9.66-147.05-.44-4.44-7.45-4.49-7,0h0Z"/>
      <path class="cls-34" d="M846.5,507.23c6.97,5.1,13.93,10.2,20.9,15.29,5.61,4.11,11.86,10.43,18.9,11.87,14.47,2.95,26.59-20.61,41.49-10.35,5.59,3.85,7.83,11.47,9.79,17.59,2.5,7.8,4.46,15.77,6.06,23.8,3.27,16.44,4.95,33.14,6.67,49.8,1.88,18.24,3.83,36.49,7.61,54.45.93,4.41,7.68,2.54,6.75-1.86-7.04-33.51-7.44-67.95-13.76-101.56-1.57-8.35-3.52-16.63-6.03-24.74-1.99-6.45-4.15-13.17-8.34-18.56-9.63-12.39-24.59-8.02-36.09-1.02-3.82,2.32-8.99,6.86-13.72,5.36-4.31-1.37-8.32-5.34-11.92-7.97-8.26-6.04-16.51-12.08-24.77-18.13-3.64-2.66-7.14,3.41-3.53,6.04h0Z"/>
      <path class="cls-34" d="M999.19,518.23c4.51-5.96,12.8,4.09,16.05,6.84,4.29,3.63,9.12,5.71,14.82,5.27,12.37-.96,23.4-11.4,33.18-18.1,3.69-2.53.2-8.6-3.53-6.04-6.12,4.2-12.14,8.62-18.43,12.56-7.08,4.45-14.68,6.87-21.67.86-4.27-3.67-7.99-8.22-13.72-9.58-5.07-1.21-9.67.6-12.75,4.67-2.72,3.59,3.36,7.08,6.04,3.53h0Z"/>
      <path class="cls-34" d="M1135.09,551.56c-2.59-5.82-6.17-11.15-11.17-15.16-5.36-4.29-11.78-6.76-18.02-9.44-14.78-6.33-29.56-12.66-44.35-18.98-4.1-1.75-7.67,4.27-3.53,6.04,13.6,5.82,27.2,11.64,40.8,17.47,5.78,2.47,11.86,4.68,17.26,7.94,6.13,3.71,10.1,9.2,12.98,15.66,1.83,4.11,7.86.55,6.04-3.53h0Z"/>
      <path class="cls-34" d="M1129.96,556.62c.38,2.24.96,4.41,1.75,6.54.66,1.77,2.37,2.98,4.31,2.44,1.7-.47,3.1-2.52,2.44-4.31-.79-2.13-1.37-4.3-1.75-6.54-.32-1.86-2.61-2.91-4.31-2.44-1.97.54-2.76,2.44-2.44,4.31h0Z"/>
      <path class="cls-47" d="M1061.79,534.22c14.79,5.36,31.05,9.76,44.64,17.84,14.36,8.53,17.81,22.52,19.78,38.1.56,4.41,7.57,4.46,7,0-2.06-16.26-5.36-31.63-19.46-41.69-6.46-4.61-13.95-7.58-21.32-10.38-9.56-3.63-19.16-7.13-28.78-10.61-4.24-1.54-6.07,5.22-1.86,6.75h0Z"/>
      <path class="cls-47" d="M1016.69,545.14c.58,33.09,3.05,66.1,7.4,98.9.58,4.4,7.59,4.46,7,0-4.35-32.8-6.82-65.82-7.4-98.9-.08-4.5-7.08-4.51-7,0h0Z"/>
      <path class="cls-47" d="M915.69,537.3c3.91,38.22,9.59,76.24,17.05,113.94.87,4.42,7.62,2.55,6.75-1.86-7.34-37.08-12.95-74.47-16.8-112.08-.45-4.44-7.46-4.48-7,0h0Z"/>
      <path class="cls-47" d="M838.67,516.88c-11.86,8.26-24.84,15.87-35.62,25.54-10.08,9.04-13.96,21.29-16.01,34.3-4.93,31.22-8.56,62.7-12.14,94.1-.51,4.47,6.49,4.43,7,0,3.38-29.69,7.07-59.37,11.39-88.94,1.84-12.57,4.39-25,14.11-33.97,10.35-9.56,23.26-16.95,34.8-24.99,3.67-2.56.18-8.63-3.53-6.04h0Z"/>
      <path class="cls-41" d="M1081.45,675.3c2.66-22.09,3.41-44.33,2.26-66.55-.23-4.48-7.23-4.51-7,0,1.15,22.22.4,44.46-2.26,66.55-.54,4.46,6.47,4.42,7,0h0Z"/>
      <path class="cls-41" d="M849.54,592.55c1.81,24.39,3.46,49.54-5.94,72.69-1.69,4.17,5.07,5.99,6.75,1.86,9.62-23.69,8.05-49.6,6.19-74.56-.33-4.46-7.33-4.5-7,0h0Z"/>
      <path class="cls-33" d="M846.59,591.84c1.8,25.42.23,50.87-4.81,75.85-.89,4.4,5.86,6.28,6.75,1.86,5.16-25.59,6.91-51.67,5.06-77.71-.32-4.47-7.32-4.5-7,0h0Z"/>
      <path class="cls-33" d="M1085.5,669c2.29-22.89,1.64-45.97,1.57-68.94-.01-4.5-7.01-4.51-7,0,.07,22.97.72,46.05-1.57,68.94-.45,4.48,6.55,4.45,7,0h0Z"/>
    </g>
    <g id="overshirt-collar">
      <path class="cls-14" d="M913.9,467.59c-4.96-2.01-9.02.47-24.53,7.91-30.49,14.64-40.12,17.21-39.76,22.35.22,3.14,3.89,3.34,14.24,10.48,16.66,11.51,17.27,18,24.92,18.59,9.81.76,11.3-9.7,24.33-12.26,15.71-3.08,27.97,9.29,30.66,5.93,2.16-2.69-6.38-9.78-15.23-26.51-8.73-16.51-7.92-23.77-14.64-26.51Z"/>
      <path class="cls-14" d="M997.85,471.19c2.03-.61,3.98.46,5.26,1.15,9.95,5.4,20.85,9.04,30.46,15.03,21.02,13.11,31.56,13.5,31.25,18.4-.13,2.07-2.04,2.45-18.4,10.88-13.24,6.82-18.33,9.85-23.54,7.71-1.48-.61-3.12-2.1-6.39-5.09-7.06-6.43-6.74-8.52-9.63-9.95-8.21-4.07-19.88,8.29-22.75,5.54-1.53-1.47,1.31-5.46,4.15-13.05,6.44-17.17,4.01-28.94,9.58-30.62Z"/>
      <path class="cls-41" d="M853.91,499.7c7.76,3.08,13.87,8.82,20.1,14.2,4.67,4.03,11.48,11.44,18.28,10.4,3.04-.47,5.31-2.5,7.44-4.56,3.02-2.93,5.82-5.21,9.95-6.4,9.15-2.62,18.4.6,26.5,4.86,3.98,2.09,7.53-3.95,3.53-6.04-13.68-7.19-31.23-10.73-43.48,1.16-1.07,1.04-2.42,3.04-3.84,3.58-2.72,1.03-4.83-1.07-6.8-2.52-3.57-2.63-6.85-5.64-10.2-8.54-6.03-5.21-12.15-9.92-19.61-12.88-4.19-1.66-6.01,5.11-1.86,6.75h0Z"/>
      <path class="cls-41" d="M1058.35,501.3l-21.96,10.79c-3.43,1.68-8.05,5.29-11.87,3.24-2.97-1.6-4.64-5.33-6.51-7.95-8.62-12.09-21.32-7.83-31.69-.48-3.65,2.58-.15,8.66,3.53,6.04,6.1-4.32,15.08-10.36,21.37-3.02,3.7,4.32,5.71,9.97,11.41,12.24,6.13,2.45,11.92-1.4,17.29-4.04,7.32-3.6,14.64-7.19,21.96-10.79,4.04-1.99.5-8.03-3.53-6.04h0Z"/>
      <path class="cls-47" d="M888.16,493.23c4.31-1.57,7.83-4.6,12.08-6.23,3.89-1.5,7.5-1.89,10.79-4.67s-1.53-7.84-4.95-4.95c-2.61,2.21-6.73,2.33-9.8,3.74-3.44,1.59-6.4,4.06-9.98,5.36-4.2,1.53-2.39,8.3,1.86,6.75h0Z"/>
      <path class="cls-47" d="M1011.35,491.73c6.37,2.26,12.47,5.04,18.38,8.34,3.94,2.2,7.47-3.85,3.53-6.04-6.42-3.58-13.12-6.58-20.05-9.04-4.25-1.51-6.08,5.25-1.86,6.75h0Z"/>
      <path class="cls-37" d="M935.68,510.12c.55.67,1.1,1.34,1.64,2.02.13.17.27.34.4.51.07.09.13.17.2.26-.09-.12.04.06.06.08.28.37.56.73.83,1.1,1.06,1.41,2.08,2.85,3.06,4.31.44.65,1.34,1,2.05.54.65-.42,1.01-1.36.54-2.05-2.08-3.07-4.31-6.03-6.67-8.89-.5-.61-1.61-.56-2.12,0-.59.65-.54,1.47,0,2.12h0Z"/>
      <path class="cls-37" d="M922.02,516.09c6.26,2.03,12.59,3.82,18.98,5.37,1.88.45,2.68-2.44.8-2.89-6.39-1.55-12.72-3.34-18.98-5.37-1.84-.6-2.63,2.3-.8,2.89h0Z"/>
      <path class="cls-37" d="M856.38,490.43l-7.34,4.32c-.68.4-.98,1.37-.54,2.05s1.33.96,2.05.54l7.34-4.32c.68-.4.98-1.37.54-2.05s-1.33-.96-2.05-.54h0Z"/>
      <path class="cls-37" d="M987.68,501.61c-1.77,4.03-3.54,8.05-5.31,12.08-.33.74-.22,1.61.54,2.05.64.37,1.72.21,2.05-.54,1.77-4.03,3.54-8.05,5.31-12.08.33-.74.22-1.61-.54-2.05-.64-.37-1.72-.21-2.05.54h0Z"/>
      <path class="cls-37" d="M1055.93,501.78c2.72,1.44,5.38,2.99,7.98,4.64.66.42,1.68.16,2.05-.54.39-.74.17-1.6-.54-2.05-2.6-1.65-5.26-3.19-7.98-4.64-.69-.37-1.66-.2-2.05.54-.37.69-.2,1.66.54,2.05h0Z"/>
      <path class="cls-37" d="M1063.94,501.58c-2.38-1.81-4.98-3.23-7.75-4.35-.73-.29-1.68.32-1.85,1.05-.2.87.27,1.53,1.05,1.85.05.02.56.23.26.1.16.07.33.14.49.21.32.14.65.29.97.45.62.3,1.23.62,1.83.96,1.22.69,2.38,1.47,3.5,2.32.63.48,1.71.12,2.05-.54.42-.79.13-1.54-.54-2.05h0Z"/>
      <path class="cls-37" d="M987.32,514.46c4.06-1.08,8.06-2.32,12.01-3.74.76-.27,1.27-1.02,1.05-1.85-.2-.74-1.08-1.32-1.85-1.05-3.95,1.42-7.96,2.67-12.01,3.74-1.86.49-1.07,3.39.8,2.89h0Z"/>
    </g>
  </g>
  <g id="arm">
    <g id="wrist-hand">
      <g id="wrist-hand-2" data-name="wrist-hand">
        <path class="cls-15" d="M1189.31,613.7c1.57-3.68,1.36-6.99,1.33-7.97-.26-8.1,5.78-40.99,14.5-64.82,9.21-25.21,25.98-52.95,29.01-57.76.9-1.44,2.65-5.02,6.13-12.2,2.94-6.06,4.11-8.78,3.36-12.07-.12-.54-1.19-4.94-4.79-6.59-5.24-2.4-12.09,2.77-12.61,1.84-.32-.57,2.61-1.95,4.55-5.34.48-.84,3.09-5.63.99-10.48-.25-.58-1.85-4.28-5.27-5.27-3.25-.95-5.9,1.19-6.86,0-.72-.89.68-2.23.79-5.27.03-.86.13-3.42-1.32-5.54-2.1-3.07-6.42-3.72-9.23-3.43-3.06.32-4.3,1.77-4.75,1.32-1.47-1.48,11.93-17.53,17.14-32.97.66-1.97,1.69-5.37,0-7.65-2.26-3.05-7.9-2.06-8.14-2.02-6.44,1.21-10.28,7.81-11.84,10.59-13.19,23.46-27.05,57.56-30.13,56.84-.59-.14-.4-1.47-1.05-8.18-1.25-12.89-2.83-17.2-3.69-19.25-1.61-3.85-3.45-8.24-6.86-8.7-4.03-.54-7.51,4.79-7.65,5.01-3.33,5.23-1.93,11.39-1.32,15.3,1.54,9.87-1.36,9.23-2.64,29.8-1.28,20.59,1.51,23.07.79,45.1-.4,12.23-1.58,21.38-2.37,27.43-3.25,24.69-6.82,51.78-21.36,80.44-6.59,12.99-10.46,16.5-8.44,21.36,6.45,15.55,58.47,9.89,62.77-2.37.58-1.66,1.07-5.69,4.22-10.29,1.91-2.79,3.45-3.82,4.75-6.86Z"/>
        <path class="cls-23" d="M1157.4,422.83c4.5,0,4.51-7,0-7s-4.51,7,0,7h0Z"/>
        <path class="cls-23" d="M1185.55,573.85c-1.72,11.08-3.34,22.17-4.86,33.27-.6,4.41,6.14,6.31,6.75,1.86,1.51-11.11,3.13-22.2,4.86-33.27.69-4.41-6.06-6.31-6.75-1.86h0Z"/>
        <path class="cls-23" d="M1236.52,461.99c4.5,0,4.51-7,0-7s-4.51,7,0,7h0Z"/>
        <path class="cls-23" d="M1208.23,507.6c-5.66,6.38-8.98,14.23-12.58,21.87-4.13,8.77-8.14,17.6-12.04,26.48-7.66,17.44-14.89,35.07-21.69,52.86-1.61,4.21,5.15,6.03,6.75,1.86,6.59-17.23,13.57-34.3,20.99-51.19,3.64-8.29,7.38-16.53,11.22-24.72,3.54-7.56,6.71-15.89,12.3-22.2,2.98-3.36-1.95-8.33-4.95-4.95h0Z"/>
        <path class="cls-23" d="M1180.32,576.8c.57,5.04-2.53,10.03-4.2,14.68-1.62,4.49-3.01,9.05-4.24,13.67-1.17,4.36,5.58,6.22,6.75,1.86,1.39-5.19,2.98-10.31,4.86-15.35s4.43-9.53,3.83-14.86c-.5-4.43-7.5-4.48-7,0h0Z"/>
        <path class="cls-23" d="M1192.83,548.05c-6.36,10-13.32,19.83-19.09,30.18-5,8.97-4.59,19.05-3.71,28.96.39,4.45,7.4,4.49,7,0-.89-10.11-1.15-19.27,4.41-28.17,5.74-9.19,11.62-18.3,17.44-27.44,2.42-3.81-3.63-7.33-6.04-3.53h0Z"/>
        <path class="cls-23" d="M1233.2,460.74c-5.1,13.1-13.06,24-19.9,36.15-6.3,11.19-11.48,22.99-15.88,35.05-9.09,24.87-14.73,50.83-20.31,76.66-.95,4.39,5.8,6.27,6.75,1.86,5.58-25.83,11.24-51.78,20.31-76.66,4.49-12.32,9.88-24.32,16.48-35.66,6.89-11.86,14.29-22.67,19.31-35.54,1.63-4.2-5.13-6.02-6.75-1.86h0Z"/>
        <path class="cls-23" d="M1154,420.54c-1.09,16.53-2.14,33.07-1.91,49.64.22,15.57,1.13,31.1.22,46.67-1.8,31.01-9.08,61.67-21.26,90.24-1.75,4.1,4.28,7.67,6.04,3.53,12.21-28.64,19.74-59.01,21.97-90.09,1.16-16.15.35-32.25.05-48.42-.32-17.22.74-34.4,1.87-51.57.3-4.5-6.7-4.48-7,0h0Z"/>
        <path class="cls-22" d="M1156.42,416.3c5.02,18.19,7.78,36.79,8.21,55.66.1,4.5,7.11,4.51,7,0-.45-19.47-3.28-38.75-8.46-57.52-1.2-4.34-7.95-2.5-6.75,1.86h0Z"/>
        <path class="cls-22" d="M1164.89,472.14c2.09,7.6,4.83,14.96,8.12,22.12,1.88,4.09,7.92.54,6.04-3.53-3.04-6.62-5.48-13.43-7.41-20.45-1.19-4.34-7.95-2.5-6.75,1.86h0Z"/>
        <path class="cls-22" d="M1215.51,380.24c-8.91,3.55-13.3,11.99-17.23,20.24-5.07,10.65-10.04,21.36-15.06,32.04-4.56,9.7-9.32,18.58-10.29,29.39-.52,5.73-.96,11.47-1.43,17.2-.35,4.26-1.63,9.15.82,12.99,1.46,2.3,5.88,2.32,6.4-.84,1.51-9.2.26-17.96-3.86-26.32-1.99-4.04-8.03-.5-6.04,3.53,3.23,6.56,4.34,13.7,3.16,20.93l6.4-.84c-1.1-1.73-.25-4.72-.1-6.58.21-2.55.42-5.1.64-7.66.37-4.44.64-8.91,1.11-13.34,1.03-9.64,6-18.02,10.07-26.67s7.91-16.83,11.87-25.24c3.49-7.43,7.17-18.79,15.43-22.08,4.14-1.65,2.33-8.42-1.86-6.75h0Z"/>
        <path class="cls-22" d="M1209.13,421.28c-6.92,3.95-13.29,8.22-17.19,15.39-4.37,8.02-6.08,17.16-7.76,26.03-.83,4.4,5.91,6.29,6.75,1.86,1.46-7.71,2.84-15.71,6.28-22.83s8.95-10.69,15.46-14.41c3.91-2.23.39-8.28-3.53-6.04h0Z"/>
        <path class="cls-22" d="M1227.4,453.7c-7.67,3.1-10.79,10.1-13.3,17.5-1.45,4.27,5.31,6.11,6.75,1.86,1.57-4.61,3.43-10.6,8.41-12.61,4.12-1.67,2.32-8.44-1.86-6.75h0Z"/>
        <path class="cls-22" d="M1220.97,435.06c-7.26,2.15-12.08,9.73-16.05,15.76-4.47,6.78-7.45,14.16-7.97,22.31-.29,4.5,6.71,4.48,7,0,.4-6.33,2.78-12.03,6.11-17.37,2.86-4.58,7.28-12.32,12.77-13.94,4.31-1.27,2.48-8.03-1.86-6.75h0Z"/>
        <path class="cls-22" d="M1171.91,469.17c.91,24.99-3.23,48.85-8.39,73.19-2.63,12.39-5.25,24.78-7.88,37.17-1.31,6.2-2.63,12.39-3.94,18.59-1.22,5.74-1.67,12.78-5.06,17.72-2.55,3.72,3.51,7.23,6.04,3.53,3.13-4.56,3.81-10.17,4.93-15.47,1.38-6.52,2.76-13.04,4.15-19.56,2.83-13.37,5.67-26.74,8.5-40.11,5.29-24.94,9.57-49.44,8.64-75.05-.16-4.49-7.16-4.51-7,0h0Z"/>
        <path class="cls-22" d="M1181.87,447.09c-8.36,54.36-19.67,108.22-33.88,161.35-1.16,4.36,5.59,6.22,6.75,1.86,14.2-53.13,25.51-107,33.88-161.35.68-4.41-6.07-6.31-6.75-1.86h0Z"/>
        <path class="cls-33" d="M1229.64,449.85c-6.48,2.93-11.93,8.16-15.21,14.46-1.63,3.12-3.1,6.79-3.1,10.37,0,4.15,2.71,7.51,6.96,7.74,4.65.26,8.74-3.6,11.53-6.89.87-1.03,1.01-2.53,0-3.54-.9-.9-2.66-1.03-3.54,0-1.3,1.54-2.76,3.06-4.44,4.19-1.18.79-2.91,1.74-4.36,1.03-2.62-1.3-.49-6.41.27-8.27,2.67-6.59,7.96-11.86,14.4-14.78,1.23-.56,1.53-2.34.9-3.42-.74-1.27-2.19-1.46-3.42-.9h0Z"/>
        <path class="cls-33" d="M1219.06,431.5c-8.85,4.33-16.14,11.79-20.51,20.6-2.21,4.45-3.72,9.19-4.39,14.12-.37,2.7-.64,5.52-.15,8.23s2.23,5.04,4.56,6.5c5.5,3.44,12.24.87,15.71-4.14.77-1.11.2-2.78-.9-3.42-1.24-.73-2.65-.22-3.42.9-2.02,2.91-6.18,4.42-9.22,2.12-1.67-1.27-2.01-3.13-1.99-5.12s.22-4.08.6-6.08c1.51-8.03,5.42-15.51,11.12-21.36,3.23-3.31,6.96-6,11.11-8.03,1.21-.59,1.54-2.32.9-3.42-.72-1.24-2.2-1.49-3.42-.9h0Z"/>
        <path class="cls-33" d="M1207.03,417.22c-8.32,3.58-14.82,10.53-18.99,18.47-2.1,4.01-3.71,8.3-4.73,12.71-.67,2.86-1.13,5.79-1.29,8.73-.15,2.61-.2,5.56.56,8.08,1.63,5.42,7.46,6.49,12.39,6.63,3.22.09,3.22-4.91,0-5-2.84-.08-6.98-.19-7.72-3.53-.5-2.27-.35-4.83-.17-7.14s.61-4.69,1.18-6.99c1.83-7.49,5.34-14.7,10.71-20.29,3.03-3.15,6.57-5.63,10.59-7.36,1.24-.53,1.52-2.36.9-3.42-.75-1.28-2.17-1.43-3.42-.9h0Z"/>
        <path class="cls-33" d="M1204.86,414.98c-1.27,1.59-2.41,3.26-3.3,5.09-.3.61-.44,1.25-.25,1.93.16.58.61,1.21,1.15,1.49.58.31,1.28.46,1.93.25.59-.19,1.21-.57,1.49-1.15.73-1.48,1.6-2.89,2.61-4.19l-.39.51c.1-.13.2-.26.31-.39.24-.23.42-.49.52-.8.16-.3.23-.62.22-.96,0-.61-.27-1.35-.73-1.77s-1.1-.76-1.77-.73c-.62.03-1.36.23-1.77.73h0Z"/>
        <path class="cls-33" d="M1169.92,444.05c.1,5.87.65,12.01-.85,17.75-.34,1.31.43,2.71,1.75,3.08s2.73-.44,3.08-1.75c1.62-6.2,1.13-12.74,1.03-19.08-.02-1.35-1.13-2.5-2.5-2.5s-2.52,1.14-2.5,2.5h0Z"/>
        <path class="cls-33" d="M1226.06,457.74c1.09-.95,2.13-1.96,3.11-3.03.45-.49.73-1.1.73-1.77.01-.34-.06-.67-.22-.96-.1-.31-.27-.58-.52-.8-.48-.44-1.1-.76-1.77-.73s-1.32.24-1.77.73c-.98,1.07-2.02,2.08-3.11,3.03-.24.23-.42.49-.52.8-.16.3-.23.62-.22.96-.01.34.06.67.22.96.1.31.27.58.52.8.48.44,1.1.76,1.77.73l.66-.09c.42-.12.79-.33,1.1-.64h0Z"/>
        <path class="cls-33" d="M1214.41,476.57c.22-.68.47-1.35.75-2.01l-.25.6c.48-1.14,1.04-2.24,1.68-3.3.33-.55.42-1.31.25-1.93-.16-.58-.61-1.21-1.15-1.49-1.21-.64-2.7-.3-3.42.9-1.11,1.85-2.01,3.85-2.69,5.9-.2.6-.06,1.39.25,1.93s.9,1.01,1.49,1.15c1.38.31,2.64-.42,3.08-1.75h0Z"/>
        <path class="cls-33" d="M1220.7,435.41l4.49-.5c.41-.05.76-.14,1.06-.44.26-.26.46-.69.44-1.06s-.14-.79-.44-1.06c-.27-.25-.67-.48-1.06-.44l-4.49.5c-.41.05-.76.14-1.06.44-.26.26-.46.69-.44,1.06s.14.79.44,1.06c.27.25.67.48,1.06.44h0Z"/>
        <path class="cls-33" d="M1209.76,421.08l3.66-.9c.76-.19,1.29-1.09,1.05-1.85s-1.03-1.25-1.85-1.05l-3.66.9c-.76.19-1.29,1.09-1.05,1.85s1.03,1.25,1.85,1.05h0Z"/>
        <path class="cls-33" d="M1209.09,421.37c.95-.06,1.9-.06,2.85-.02.47.02.93.06,1.39.1.22.02.44.05.67.07.35.04-.27-.04.04,0,.15.02.29.04.44.07.41.06.78.07,1.16-.15.31-.18.61-.54.69-.9.16-.72-.22-1.71-1.05-1.85-2.05-.32-4.12-.46-6.2-.34-.78.05-1.54.66-1.5,1.5.03.77.66,1.55,1.5,1.5h0Z"/>
        <path class="cls-33" d="M1222.04,435.53c.16-.07.16-.07,0,0,.08-.03.16-.06.24-.09.12-.04.24-.09.36-.13.28-.09.57-.17.86-.24.27-.07.59-.16.87-.17-.37,0,.09,0,.17-.02.15-.01.3-.03.44-.03.59-.03,1.19,0,1.78.05.42.04-.31-.06.11.01.17.03.33.06.5.09.29.06.58.14.86.22.75.22,1.67-.27,1.85-1.05s-.24-1.61-1.05-1.85c-2.83-.84-5.81-.57-8.49.61-.72.32-.94,1.43-.54,2.05.48.75,1.28.88,2.05.54h0Z"/>
        <path class="cls-33" d="M1229.91,455.49c.06-.03.54-.26.2-.09.11-.05.23-.09.34-.13.26-.1.53-.2.8-.29.5-.16,1.01-.3,1.52-.42.26-.06.51-.11.77-.16.14-.02.28-.05.42-.07.06,0,.46-.09.08-.01.54-.12,1.14-.11,1.69-.12.78-.02,1.54-.68,1.5-1.5s-.66-1.52-1.5-1.5c-2.55.06-5.01.66-7.33,1.7-.72.32-.95,1.42-.54,2.05.48.74,1.28.88,2.05.54h0Z"/>
      </g>
      <path id="sleeve" class="cls-14" d="M1161.75,761.53c6.17-13.77,9.73-25.35,11.87-33.63,2.06-7.99,2.48-11.66,6.33-26.51,1.9-7.33,2.37-8.64,5.14-19.38,0,0,1.41-5.46,4.72-18.54h0s7.73,1,11.1-1.24c4.01-2.66,2.31-10.22,1.19-22.95-2.03-22.91.97-26.72-3.16-30.86-5.38-5.39-12.76-1.24-30.86-.4-32.09,1.49-46.03-9.85-54.2-1.19-4.25,4.5.35,6.69-5.48,24.2-2.56,7.7-3.67,15.95-7.17,23.27-.67,1.4-2.68,5.5-1.19,7.12,1.7,1.84,6.47-1.06,8.46.99,1.27,1.3.67,3.84.24,5.34-8.9,31.21-24.13,39.56-24.13,39.56-13.47,7.38-19.86.4-28.48,6.33-16.77,11.54-17.47,55.09,1.58,72.79,19.93,18.51,66.63,13.54,104.04-24.92Z"/>
      <path class="cls-34" d="M1115.19,667.85c22.6.45,45.19.91,67.79,1.36,4.51.09,4.51-6.91,0-7-22.6-.45-45.19-.91-67.79-1.36-4.51-.09-4.51,6.91,0,7h0Z"/>
      <path class="cls-34" d="M1179.84,665.04c-5.53,25.54-12.39,50.78-20.65,75.58-1.98,5.95-3.4,12.93-8.19,17.3-4.37,3.98-9.34,7.42-14,11.05-4.92,3.84-9.79,7.99-15.44,10.73s-11.84,4.05-17.83,5.38c-4.4.98-2.54,7.73,1.86,6.75,5.81-1.29,11.7-2.7,17.19-5.04s10.63-6.22,15.52-10.03c5.28-4.11,10.67-8.12,15.84-12.37,4.92-4.04,7.25-8.65,9.31-14.58,9.41-27.13,17.06-54.85,23.13-82.91.95-4.39-5.8-6.27-6.75-1.86h0Z"/>
      <path class="cls-33" d="M1187.99,660.8c-21.1.29-42.21.04-63.3-.76-5.98-.23-11.95-.5-17.93-.82-1.93-.1-1.92,2.9,0,3,21.08,1.11,42.18,1.68,63.28,1.7,5.98,0,11.96-.04,17.95-.12,1.93-.03,1.93-3.03,0-3h0Z"/>
      <path class="cls-47" d="M1120.25,646.77c.98-5.18,2.06-10.34,3.29-15.47.64-2.66,1.65-5.42,2.06-8.12,0,.05.37-3.23-.26-2.55.47-.5,4.22.17,4.87.2,11.35.47,22.7.93,34.06,1.4,4.5.19,4.5-6.82,0-7-7.14-.29-14.27-.59-21.41-.88-5.86-.24-12.97-1.66-18.75-.64-4.81.85-5.22,7.37-6.2,11.21-1.69,6.61-3.14,13.28-4.4,19.99-.83,4.4,5.91,6.29,6.75,1.86h0Z"/>
    </g>
  </g>
  <g id="computer">
    <path class="cls-6" d="M1106.36,668.16c-5.46-5.07-12.78-4.43-26.51-3.96-16.74.57-33.55-1.37-50.24,0-10.18.84-1.1-.26-95.36-.03,0,0-9.34.02-85.04.42h0s-21.18-.09-40.75-.79c-30.72-1.11-38.97-3.08-44.7,3.16-3.63,3.96-3.96,8.71-4.35,17.41-1.56,34.18-1.19,63.03-1.19,63.3.17,13.52-.15,24.04-.8,45.09-.36,11.85-.78,21.38-1.58,39.18-2.15,48.34-3.03,58.64,4.35,64.09,3.51,2.59,5.99,1.94,26.9,1.98,12.66.02,25.32.89,37.98.79,36.39-.27-40.16.81,99.69,0,69.14-.4,66.2-.54,70.02-.4,23.98.91,48.04-1.07,72,.4,15.51.95,31.15,2.5,39.16-7.12,4.53-5.44,4.68-12.12,4.75-18.59.25-25.24.37-37.86-1.1-59.34-.79-11.58-.16-28.95,1.1-63.69.56-15.29-.12-30.6.4-45.89.69-20.48,1.72-29.99-4.75-36Z"/>
    <path class="cls-39" d="M918.98,676.68c-41.71-1.46-83.45-1.25-125.19-.95-7.42.05-13.54.43-16.81,8.03-3.28,7.63-3.1,16.61-3.43,24.74-.85,20.7-.76,41.42.18,62.11.21,4.49,7.21,4.51,7,0-.86-18.75-1.02-37.53-.4-56.29.28-8.46-.29-18.15,2.48-26.27,1.64-4.79,4.18-5.27,8.99-5.32s9.27-.07,13.91-.1c37.76-.24,75.52-.29,113.26,1.03,4.51.16,4.5-6.84,0-7h0Z"/>
    <path class="cls-20" d="M949.62,887.69c39.87,1.45,79.78,1.7,119.66.7,4.94-.12,9.89-.27,14.83-.43,3.39-.11,7.65.42,10.76-1.27,6.35-3.45,3.9-14.01,3.73-19.77-.56-19.79-1.13-39.58-1.69-59.36-.13-4.5-7.13-4.51-7,0,.5,17.52,1,35.03,1.5,52.55.13,4.54.26,9.08.39,13.62.06,2.22.73,4.46-.82,6.1s-4.67,1.05-6.87,1.12c-8.9.29-17.8.52-26.7.69-35.93.68-71.88.35-107.8-.96-4.51-.16-4.5,6.84,0,7h0Z"/>
    <g id="logo">
      <g id="Layer_38" data-name="Layer 38">
        <path class="cls-40" d="M935.8,762.41c-9.91,3.39-15.16,13.09-16.89,22.9-.89,5.09-1.52,10.57-.18,15.64s4.88,8.9,9,11.88c7.26,5.23,17.33,7.21,25.6,3.27,9.12-4.35,12.88-15.15,12.39-24.66-.29-5.78-1.62-11.75-3.74-17.14-1.93-4.93-4.83-9.31-9.97-11.24l.72,5.48c4.98-2.31,10.51-2.98,15.92-2.28,1.28.16,2.58-1.05,2.89-2.2.38-1.37-.29-2.59-1.38-3.39-3.18-2.32-6.35-4.65-9.53-6.97v5.18c2.56-1.33,5.12-2.65,7.68-3.98,1.86-.96,2.06-4.29,0-5.18-4.31-1.87-8.89-2.79-13.6-2.42l1.51,5.59c3.8-2.22,6.6-5.95,7.56-10.26.41-1.85-.86-3.84-2.89-3.8-6.65.13-12.93,2.63-17.92,7l4.71.61c-2.33-4.53-4.65-9.06-6.98-13.6-.54-1.05-1.88-1.6-2.99-1.43-1.28.19-2.02.99-2.49,2.15-2.13,5.18-3.07,10.83-2.79,16.43l4.51-2.59c-6.21-3.07-13.48-2.99-19.59.32-2.68,1.45-1.38,5.54,1.51,5.59,4.27.07,8.48,1.03,12.33,2.91l1.51-5.59c-10.07-.25-19.49,6.64-22.5,16.21-.73,2.33,1.56,4.11,3.69,3.69,7.94-1.57,15.76-3.67,23.42-6.3,1.53-.53,2.54-2.06,2.1-3.69-.41-1.49-2.15-2.62-3.69-2.1-7.66,2.63-15.48,4.73-23.42,6.3l3.69,3.69c2.23-7.07,9.41-11.99,16.72-11.8,2.87.07,4.23-4.26,1.51-5.59-4.82-2.35-9.99-3.64-15.36-3.73l1.51,5.59c4.14-2.25,9.3-2.42,13.53-.32,1.91.94,4.64-.17,4.51-2.59-.26-5.13.62-10.08,2.58-14.83l-5.48.72c2.33,4.53,4.65,9.06,6.98,13.6.93,1.82,3.34,1.81,4.71.61,3.78-3.31,8.67-5.15,13.68-5.25l-2.89-3.8c-.63,2.84-2.26,5.19-4.8,6.67s-1.55,5.83,1.51,5.59c3.59-.29,7.24.16,10.57,1.6v-5.18c-2.56,1.33-5.12,2.65-7.68,3.98-2.18,1.13-1.69,3.95,0,5.18,3.18,2.32,6.35,4.65,9.53,6.97l1.51-5.59c-6.5-.83-13.03.36-18.95,3.1-1.06.49-1.59,1.92-1.43,2.99.19,1.25.99,2.06,2.15,2.49s2.39,1.41,3.4,2.69c.74.93,1.78,2.88,2.25,4.03,1.65,4,2.75,8.42,3.36,12.69,1.05,7.43-.16,16.42-6.63,21.2-5.66,4.18-13.4,3.22-19.39-.12-3.17-1.77-6.25-4.25-7.99-7.57-1.92-3.66-1.57-8.2-1.12-12.17.96-8.37,4.35-18.41,13.09-21.4,1.53-.52,2.54-2.06,2.1-3.69-.41-1.49-2.15-2.62-3.69-2.1h0Z"/>
      </g>
      <path class="cls-10" d="M930.05,769.57c-3.14,2.59-4.23,5.9-5.8,10.68-1.97,6-2.15,10.83-2.24,13.85-.16,5.35-.24,8.02,1.32,10.81,2.1,3.77,5.69,5.36,8.18,6.46,1.16.51,13.99,5.96,24-1.19,1.25-.89,4.98-3.64,6.73-8.57,1.08-3.06.85-5.47.4-10.29-.52-5.52-1.76-9.08-3.82-15.03-1.63-4.7-2.47-6-3.82-6.99-2.97-2.17-6.44-1.4-6.59-2.37-.17-1.03,3.5-2.93,7.65-3.69,7.08-1.3,12.3,1.31,12.66.4.29-.75-2.96-3.14-6.73-4.48-4-1.43-6.92-1.1-6.99-1.71-.13-1.23,11.55-2.73,11.47-4.48-.04-.94-3.45-1.62-5.41-1.85-5.41-.63-8.74,1.14-9.23.26-.83-1.49,8.45-7.3,7.65-8.84-.5-.94-4.84-.33-8.44,1.71-3.7,2.11-5.11,4.88-6.59,4.35-.96-.34-1.04-1.74-1.58-3.82-1.26-4.84-4.08-9.85-5.27-9.63-1.61.31-2.46,10.51-1.71,14.24.06.32.31,1.44-.13,1.71-.53.33-1.75-.76-2.11-1.05-3.93-3.18-15.31.35-15.16,1.58.05.43,1.48.17,5.01,1.05,4.32,1.08,9.18,3.24,8.97,4.35-.12.65-1.91.63-3.82.92-8.32,1.29-14.76,7.86-14.24,8.84.27.52,2.43-.74,7.12-1.58,7.47-1.34,14.89-.45,15.03.79.1.82-3.15.83-6.46,3.56Z"/>
      <path class="cls-19" d="M946.14,767.36c-5.49.29-10.61-.84-15.18,2.98s-5.98,9.27-7.02,14.7-2.09,11.83-.4,17.49,6.31,7.85,11.52,9.3c9.37,2.61,22.22.48,25.98-9.96,1.8-5,.96-11.06-.07-16.13-.99-4.88-2.69-12.91-6.96-16.05-8.96-6.59-22.14,1.72-24.93,10.91-1.58,5.2-1.86,11.67-1.06,16.99.96,6.36,4.72,8.8,10.88,9.81,11.42,1.88,18.92-5.62,17.46-17.15-.61-4.78-2.12-12.24-5.26-16.05-3.38-4.1-8.28-2.49-11.76.58-7.08,6.24-11.49,25.34.23,29.46,14.67,5.16,10.99-19.27,8.76-25.83-.95-2.79-4.81-3.54-6.4-.84-3.24,5.5-3.1,14.13-3.64,20.4-.39,4.49,6.61,4.46,7,0,.43-4.97.09-12.46,2.69-16.86l-6.4-.84c1.39,4.09,2.3,8.25,2.17,12.61-.03.91.16,4.1-.76,4.52-2.69,1.24-3.24-3.38-3.38-4.56-.47-3.9.53-8.3,3.02-11.36,2.34-2.88,2.99-1.85,4.43.97.78,1.53,1.22,3.55,1.64,5.19.94,3.67,1.95,8.86-1.26,11.77-2.03,1.84-4.65,1.51-7.13,1.13-3.55-.54-5.3-1.74-5.55-5.63-.51-7.77.32-16.89,8.77-19.83,9.1-3.17,11.12,12.09,11.44,18.35.23,4.37-.41,7.32-4.13,10.02-3.18,2.32-6.08,2.89-9.97,2.43s-8.84-1.53-10.57-5.21-.34-9.93.4-13.77c.61-3.16,1.18-6.62,3.05-9.32,3.08-4.45,7.72-2.97,12.4-3.22s4.51-7.24,0-7h0Z"/>
      <g class="cls-49">
        <path class="cls-44" d="M934.72,766.84c.58,1.22,1.9,1.78,3.14,2.08,1.35.33,2.74.54,4.12.6,2.68.13,5.46-.4,7.72-1.9.68-.45.96-1.33.54-2.05-.39-.67-1.37-.99-2.05-.54-1.74,1.15-3.73,1.55-5.79,1.5-1.02-.02-2.03-.14-3.03-.35-.82-.17-1.8-.33-2.05-.87-.35-.73-1.4-.92-2.05-.54-.75.44-.89,1.32-.54,2.05h0Z"/>
      </g>
      <path class="cls-28" d="M935.35,762.42c2.16,1.96,5.1,3.11,8.04,2.85s5.59-1.59,7.4-3.85c.65-.81.86-2.04,0-2.83-.73-.67-2.13-.87-2.83,0-.33.41-.69.8-1.08,1.14-.1.09-.2.17-.3.25.17-.13.01-.02-.07.04-.22.15-.44.29-.67.42s-.46.25-.7.36c.19-.09.04-.01-.07.02-.12.04-.25.09-.37.13-.25.08-.5.15-.76.21-.13.03-.26.05-.39.08-.36.07.07,0-.15.02-.54.04-1.08.04-1.62-.01-.34-.03.26.05-.07-.01-.13-.03-.27-.05-.4-.08-.26-.06-.53-.13-.78-.21-.13-.04-.26-.09-.38-.13-.32-.11.22.11-.09-.03-.25-.11-.49-.24-.72-.37s-.46-.28-.68-.44c-.28-.19.18.15-.08-.06-.13-.11-.26-.22-.38-.33-.78-.7-2.07-.82-2.83,0-.7.77-.83,2.08,0,2.83h0Z"/>
      <path class="cls-48" d="M937.22,745.66c1.2,3.62,2.17,7.3,2.92,11.04.21,1.03,1.48,1.71,2.46,1.4,1.09-.35,1.62-1.36,1.4-2.46-.75-3.74-1.72-7.42-2.92-11.04-.33-.99-1.4-1.74-2.46-1.4-.99.32-1.75,1.4-1.4,2.46h0Z"/>
      <path class="cls-48" d="M943,757.92c1.71-1.06,3.42-2.12,5.14-3.17.43-.27.78-.7.92-1.2s.07-1.12-.2-1.54c-.58-.89-1.78-1.31-2.74-.72-1.71,1.06-3.42,2.12-5.14,3.17-.43.27-.78.7-.92,1.2s-.07,1.12.2,1.54c.58.89,1.78,1.31,2.74.72h0Z"/>
      <path class="cls-45" d="M927.32,779.7c4.19-3.36,8.84-6.13,13.77-8.26.5-.22.6-.94.36-1.37-.29-.52-.88-.57-1.37-.36-5.1,2.21-9.84,5.1-14.17,8.58-.42.34-.35,1.06,0,1.41.41.42,1,.34,1.41,0h0Z"/>
      <path class="cls-45" d="M924.72,789.85c8.86-6.43,17.89-12.61,27.08-18.54,1.08-.7.08-2.43-1.01-1.73-9.2,5.93-18.23,12.11-27.08,18.54-1.03.75-.03,2.48,1.01,1.73h0Z"/>
      <path class="cls-45" d="M924.37,798.42c10.31-7.38,20.74-14.59,31.27-21.64,1.06-.71.06-2.45-1.01-1.73-10.54,7.05-20.96,14.26-31.27,21.64-1.04.74-.04,2.48,1.01,1.73h0Z"/>
      <path class="cls-45" d="M926.8,805.42c10.8-7.35,21.56-14.75,32.28-22.21,1.05-.73.05-2.46-1.01-1.73-10.72,7.46-21.48,14.87-32.28,22.21-1.06.72-.06,2.45,1.01,1.73h0Z"/>
      <path class="cls-45" d="M931.64,809.7c9.36-6.35,18.6-12.87,27.71-19.56,1.03-.75.03-2.49-1.01-1.73-9.12,6.69-18.36,13.21-27.71,19.56-1.06.72-.06,2.45,1.01,1.73h0Z"/>
      <path class="cls-45" d="M940.17,811.72c7.14-5.04,14.08-10.36,20.8-15.96.99-.82-.43-2.23-1.41-1.41-6.59,5.49-13.39,10.7-20.4,15.65-1.04.74-.05,2.47,1.01,1.73h0Z"/>
      <path class="cls-45" d="M951.02,810.71c3.03-2.36,5.93-4.87,8.7-7.53.93-.89-.48-2.31-1.41-1.41-2.77,2.65-5.67,5.17-8.7,7.53-.43.33-.35,1.07,0,1.41.42.42.99.33,1.41,0h0Z"/>
      <path class="cls-45" d="M946.89,771.27c3.78,3.67,7.55,7.35,11.33,11.02.92.9,2.34-.51,1.41-1.41-3.78-3.67-7.55-7.35-11.33-11.02-.92-.9-2.34.51-1.41,1.41h0Z"/>
      <path class="cls-45" d="M938.61,772.43c6.28,6.73,13.15,12.87,20.53,18.37,1.03.77,2.03-.97,1.01-1.73-7.24-5.4-13.97-11.46-20.13-18.06-.88-.94-2.29.47-1.41,1.41h0Z"/>
      <path class="cls-45" d="M930.47,773.84c8.52,8.91,17.68,17.19,27.4,24.77,1,.78,2.43-.62,1.41-1.41-9.72-7.58-18.88-15.86-27.4-24.77-.89-.93-2.3.48-1.41,1.41h0Z"/>
      <path class="cls-45" d="M927.45,780.97c9.34,6.9,17.93,14.77,25.67,23.43.86.96,2.27-.46,1.41-1.41-7.85-8.79-16.59-16.74-26.07-23.74-1.04-.77-2.03.97-1.01,1.73h0Z"/>
      <path class="cls-45" d="M927.17,789.01c7.13,6.43,14.04,13.12,20.71,20.03.9.93,2.31-.49,1.41-1.41-6.67-6.92-13.58-13.6-20.71-20.03-.95-.86-2.37.55-1.41,1.41h0Z"/>
      <path class="cls-45" d="M925.24,796.08c4.73,4.97,9.36,10.04,13.9,15.18.85.97,2.26-.45,1.41-1.41-4.54-5.14-9.18-10.21-13.9-15.18-.89-.94-2.3.48-1.41,1.41h0Z"/>
      <path class="cls-24" d="M942.98,780.13c1.29,0,1.29-2,0-2s-1.29,2,0,2h0Z"/>
      <path class="cls-24" d="M942.78,789.03c1.29,0,1.29-2,0-2s-1.29,2,0,2h0Z"/>
      <path class="cls-24" d="M942.78,797.14c1.29,0,1.29-2,0-2s-1.29,2,0,2h0Z"/>
      <path class="cls-24" d="M941.99,805.85c1.29,0,1.29-2,0-2s-1.29,2,0,2h0Z"/>
      <path class="cls-24" d="M937.04,801.1c1.29,0,1.29-2,0-2s-1.29,2,0,2h0Z"/>
      <path class="cls-24" d="M947.13,802.09c1.29,0,1.29-2,0-2s-1.29,2,0,2h0Z"/>
      <path class="cls-24" d="M952.67,798.33c1.29,0,1.29-2,0-2s-1.29,2,0,2h0Z"/>
      <path class="cls-24" d="M947.73,793.19c1.29,0,1.29-2,0-2s-1.29,2,0,2h0Z"/>
      <path class="cls-24" d="M937.44,792.99c1.29,0,1.29-2,0-2s-1.29,2,0,2h0Z"/>
      <path class="cls-24" d="M931.31,796.55c1.29,0,1.29-2,0-2s-1.29,2,0,2h0Z"/>
      <path class="cls-24" d="M932.1,787.05c1.29,0,1.29-2,0-2s-1.29,2,0,2h0Z"/>
      <path class="cls-24" d="M926.76,791.6c1.29,0,1.29-2,0-2s-1.29,2,0,2h0Z"/>
      <path class="cls-24" d="M926.36,783.49c1.29,0,1.29-2,0-2s-1.29,2,0,2h0Z"/>
      <path class="cls-24" d="M932.3,779.34c1.29,0,1.29-2,0-2s-1.29,2,0,2h0Z"/>
      <path class="cls-24" d="M938.23,775.78c1.29,0,1.29-2,0-2s-1.29,2,0,2h0Z"/>
      <path class="cls-24" d="M934.67,770.84c1.29,0,1.29-2,0-2s-1.29,2,0,2h0Z"/>
      <path class="cls-24" d="M943.97,772.22c1.29,0,1.29-2,0-2s-1.29,2,0,2h0Z"/>
      <path class="cls-24" d="M948.52,776.97c1.29,0,1.29-2,0-2s-1.29,2,0,2h0Z"/>
      <path class="cls-24" d="M953.66,773.41c1.29,0,1.29-2,0-2s-1.29,2,0,2h0Z"/>
      <path class="cls-24" d="M954.05,780.73c1.29,0,1.29-2,0-2s-1.29,2,0,2h0Z"/>
      <path class="cls-24" d="M947.73,784.88c1.29,0,1.29-2,0-2s-1.29,2,0,2h0Z"/>
      <path class="cls-24" d="M937.24,784.29c1.29,0,1.29-2,0-2s-1.29,2,0,2h0Z"/>
      <path class="cls-24" d="M953.66,789.63c1.29,0,1.29-2,0-2s-1.29,2,0,2h0Z"/>
      <path class="cls-24" d="M959.4,785.67c1.29,0,1.29-2,0-2s-1.29,2,0,2h0Z"/>
      <path class="cls-24" d="M959,793.78c1.29,0,1.29-2,0-2s-1.29,2,0,2h0Z"/>
      <path class="cls-24" d="M957.22,802.29c1.29,0,1.29-2,0-2s-1.29,2,0,2h0Z"/>
      <path class="cls-24" d="M960.98,798.92c1.29,0,1.29-2,0-2s-1.29,2,0,2h0Z"/>
      <path class="cls-24" d="M951.09,806.04c1.29,0,1.29-2,0-2s-1.29,2,0,2h0Z"/>
      <path class="cls-24" d="M946.54,810.4c1.29,0,1.29-2,0-2s-1.29,2,0,2h0Z"/>
      <path class="cls-24" d="M935.66,809.8c1.29,0,1.29-2,0-2s-1.29,2,0,2h0Z"/>
      <path class="cls-24" d="M930.71,805.65c1.29,0,1.29-2,0-2s-1.29,2,0,2h0Z"/>
      <path class="cls-24" d="M926.36,800.11c1.29,0,1.29-2,0-2s-1.29,2,0,2h0Z"/>
    </g>
  </g>
  <g id="head">
    <g id="ears">
      <path class="cls-13" d="M1019.73,373.64c2.63,2.52,7.21,2.67,10.48,1.38,4.5-1.76,6.27-6.12,7.32-8.7,4.64-11.41-1.45-22.79-3.76-27.1-2.06-3.84-4.02-7.39-7.71-8.11-3.3-.64-7.21,1.11-9.3,3.96-3.67,4.99,1.01,9.58,1.38,23.93.22,8.4-1.25,11.92,1.58,14.64Z"/>
      <path class="cls-13" d="M859.7,372.85c-3.99,2.71-4.74,7.48-5.34,11.27-1.06,6.71.77,12.02,1.38,13.65.52,1.37,3.04,7.66,9.69,12.46,8.12,5.85,20.18,7.88,22.35,4.35,1.39-2.27-2.04-5.6-6.53-14.04-6.24-11.74-8.11-20.97-8.11-20.97-1.11-3.71-1.78-6.55-4.35-7.91-2.91-1.54-6.75-.41-9.1,1.19Z"/>
      <g id="Layer_32" data-name="Layer 32">
        <path class="cls-23" d="M1021.94,349.62c1.03,2.63,3.45,7.75.19,9.76-3.82,2.37-.31,8.42,3.53,6.04,6.47-4,5.43-11.56,3.03-17.67-1.63-4.15-8.4-2.34-6.75,1.86h0Z"/>
        <path class="cls-23" d="M865.01,393.55c2.37,4.31,6.01,7.85,10.41,10.05,4.02,2.01,7.57-4.03,3.53-6.04-3.41-1.7-6.06-4.2-7.9-7.54-2.17-3.95-8.22-.42-6.04,3.53h0Z"/>
      </g>
      <path class="cls-33" d="M865.3,383.5c-3.87,4.31-3.68,11.08-.36,15.66,3.65,5.04,10.09,7.09,16.11,6.98,1.93-.04,1.93-3.04,0-3-4.88.09-10.28-1.35-13.41-5.36-2.64-3.38-3.22-8.82-.22-12.16,1.29-1.43-.83-3.56-2.12-2.12h0Z"/>
      <path class="cls-33" d="M1025.36,344.51c1.88,1.24,2.62,3.49,3.11,5.59.63,2.7,1.18,5.57,1.07,8.35-.09,2.28-.88,4.83-2.83,6.21-1.56,1.1-4.17,1.16-5.33-.57-1.07-1.59-3.67-.09-2.59,1.51,1.7,2.52,4.97,3.44,7.82,2.45,3.08-1.08,5.04-4.13,5.65-7.23.72-3.66-.03-7.59-.83-11.19-.67-3.03-1.89-5.94-4.56-7.7-1.62-1.07-3.12,1.53-1.51,2.59h0Z"/>
    </g>
    <g id="skin">
      <path class="cls-5" d="M889.77,415.97c8.93,19.67,9.89,21.96,9.89,21.96,1.47,3.49,1.85,4.52,2.97,6.13,3.96,5.71,9.77,8.12,15.82,10.29,11.78,4.21,17.67,6.32,26.51,7.52,17.61,2.39,29.49,4.01,42.73-2.18,17.02-7.95,24.89-23.47,27.49-29.67,3.39-8.07,4.2-15.41,4.75-20.37,1.15-10.46.07-17.61-.79-26.11-2.54-25.05.57-25.15-1.58-39.16-1.97-12.8-5.87-38.19-22.35-46.68-12.53-6.46-18.72,3.88-46.29,3.76-27.87-.12-34.51-10.73-51.23-4.95-18.16,6.29-26.69,24.48-27.69,26.7-12.67,28.06,4.53,62.17,10.88,74.77,1.72,3.4,4.75,8.85,8.9,18Z"/>
      <path class="cls-23" d="M879.07,367.5c2.67-12.3.26-27.42,8.07-38.11s22.59-8.83,33.7-6.71c12.85,2.46,25.39,5,37.84-.5,5.9-2.61,11.61-6.59,18.21-7.12,7.72-.62,15.1,3.11,21.82,6.43,4.03,1.99,7.58-4.05,3.53-6.04-6.39-3.15-12.97-6.35-20.13-7.19s-13.25,1.23-19.52,4.26c-7.74,3.74-14.3,6.6-23.13,6.09-8.15-.47-16.05-2.84-24.13-3.88-11.8-1.53-25.1-.28-33.08,9.62-9.44,11.69-6.94,27.55-9.93,41.31-.95,4.39,5.79,6.27,6.75,1.86h0Z"/>
      <path class="cls-23" d="M934.39,359.81c-2.35-3.66-6.94-4.52-10.77-2.69s-5.62,6.35-6.75,10.33c-1.24,4.34,5.51,6.19,6.75,1.86.51-1.8.98-4.08,2.41-5.42.38-.36,1.86-1.25,2.32-.54,2.42,3.78,8.49.27,6.04-3.53h0Z"/>
      <path class="cls-23" d="M991.89,351.77c-1.78-3.89-5.79-6.59-10.11-5.16s-6.24,5.84-7.27,10.03,5.68,6.24,6.75,1.86c.38-1.57.71-3.99,2.17-4.97,1.32-.87,1.92.7,2.41,1.77.79,1.72,3.27,2.14,4.79,1.26,1.77-1.03,2.05-3.06,1.26-4.79h0Z"/>
      <path class="cls-23" d="M927.04,422.09c4.65,3.41,9.66,6.19,14.83,8.74,4.69,2.32,9.31,4.96,14.69,4.73s10.78-2.7,15.79-4.79c6.03-2.52,11.93-5.31,17.71-8.35,3.99-2.09.46-8.14-3.53-6.04-4.52,2.37-9.1,4.62-13.78,6.67s-10.47,5.07-15.81,5.45c-4.96.35-9.56-2.68-13.85-4.87s-8.56-4.68-12.51-7.58c-3.64-2.67-7.13,3.41-3.53,6.04h0Z"/>
      <path class="cls-23" d="M884.67,401.99c4.44,9.14,8.89,18.29,13.33,27.43,3.23,6.65,5.97,15.03,12.31,19.41,6.71,4.64,16.32,6.19,24.14,7.93,9.71,2.15,19.56,3.54,29.47,4.32,4.49.35,4.47-6.65,0-7-9.29-.73-18.51-2.05-27.61-4.07-6.99-1.55-17.34-2.78-22.95-7.62s-7.98-13.75-10.98-19.93c-3.89-8-7.78-16-11.67-24-1.97-4.05-8.01-.51-6.04,3.53h0Z"/>
      <path class="cls-23" d="M951.55,367.62c1.9,7.07,2.91,15.86,6.79,22.15,3.2,5.21,9.44,7.32,12.76,12.35,2.47,3.75,8.53.24,6.04-3.53-3.08-4.68-8-6.83-11.63-10.91-2.6-2.92-3.24-7.13-4.23-10.8l-2.99-11.12c-1.17-4.35-7.92-2.5-6.75,1.86h0Z"/>
      <path class="cls-33" d="M957.05,361.45c.61,4.88,1.14,9.78,1.85,14.65.32,2.19.91,4.24,2.09,6.13s2.64,3.61,4.03,5.33,2.98,3.5,4.76,4.97,3.66,2.59,5.05,4.34c.94,1.18,2.79,4,1.98,5.59-.67,1.31-2.91,1.52-4.18,1.64-1.91.18-1.92,3.18,0,3,2.68-.25,6.12-.96,7.1-3.88,1.09-3.27-1.54-7.38-3.78-9.56-1.41-1.36-3.08-2.4-4.56-3.69s-2.84-2.82-4.11-4.36c-1.2-1.47-2.43-2.95-3.47-4.54s-1.65-3.39-1.95-5.33c-.74-4.74-1.21-9.54-1.8-14.3-.24-1.89-3.24-1.91-3,0h0Z"/>
    </g>
    <g id="hair">
      <path class="cls-8" d="M1018.54,363.15c3.6-.07,6.3-21.59,6.73-38.37.51-20.02.63-30.78-6.33-41.54-7.59-11.73-19.38-18.99-19.38-18.99-8.59-5.29-13.93-5.48-15.03-9.89-1.6-6.42,7.51-14.85,14.64-18.99,8.37-4.85,15.05-4.38,15.03-5.93-.02-2.39-15.8-5.25-31.65-4.35-9.2.52-18.93,1.19-28.88,7.12-7.98,4.76-6.38,7.11-14.64,12.66-9.73,6.54-19.37,8.27-33.63,10.68-16.6,2.8-15.52.32-24.13,2.77-4.01,1.14-22.29,6.35-32.44,23.34-6.29,10.52-6.51,20.63-6.73,30.07-.1,4.62-.03,17.75,7.91,39.16,8.97,24.19,23.4,46.6,26.9,45.1,2.56-1.09-3.29-13.86-3.16-38.37.07-13.73.21-21.11,5.14-28.88,6.12-9.63,17.22-16.12,28.09-17.01,7.95-.65,7.33,2.38,20.97,3.56,9.25.8,19.71,1.71,30.86-2.77,6.92-2.78,8.39-5.35,14.64-5.93,8.35-.78,14.91,2.95,16.62,3.96,6.13,3.59,9.76,8.76,13.85,16.62,11.22,21.55,11.68,36.06,14.64,36Z"/>
      <g id="left-eyebrow">
        <path class="cls-9" d="M934.8,349.15c.06-.76-.46-2.51-.99-3.76-.61-1.44-1.35-2.48-1.58-2.77-2.24-2.71-11.32.54-19.78,3.56-14.46,5.16-16.22,5.76-18.59,8.31-4.69,5.03-6.92,12.45-5.14,13.85,1.85,1.45,6.3-5.04,16.62-9.89,13.99-6.57,29.19-5.61,29.47-9.3Z"/>
      </g>
      <g id="right-eyebrow">
        <path class="cls-9" d="M960.1,336.37c-.14.83.13,2.51.88,3.97,0,0,.6,1.18,1.52,2.08,2.92,2.86,16.62-3.8,29.95-4.67,10.23-.67,16.27,2.32,16.8.82.61-1.75-7.03-7.29-15.82-8.9-3.53-.65-8.22.03-17.6,1.38-10.78,1.56-15.33,3.02-15.72,5.32Z"/>
      </g>
      <path class="cls-27" d="M982.65,233.85c-14.2-2.66-25.95,5.65-35.88,14.83-5.49,5.08-10.83,10.51-17.53,14.02s-14.86,4.88-22.55,5.7c-13.24,1.42-27.78,1.78-39.21,9.53-9.62,6.52-15.85,17.8-13.14,29.48,1.02,4.39,7.77,2.53,6.75-1.86-2.93-12.64,8.37-22.48,19.25-26.02,11.61-3.78,24.04-3.32,35.97-5.44s21.52-7.69,30.49-15.88,20.09-20.21,34-17.61c4.4.82,6.29-5.92,1.86-6.75h0Z"/>
      <path class="cls-35" d="M994.5,278.23c11.93,10.9,17.69,26.53,15.89,42.57-.5,4.47,6.5,4.43,7,0,1.99-17.7-4.81-35.52-17.94-47.52-3.32-3.03-8.28,1.9-4.95,4.95h0Z"/>
    </g>
    <g id="eyes">
      <path class="cls-7" d="M937.24,373.04c-.86-3.86-1.43-6.43-3.56-8.9-.6-.69-4.13-4.78-7.91-3.96-2.48.54-3.87,2.94-4.55,4.15-4.68,8.35.62,19.59,4.95,25.12,3.09,3.95,5.09,4.23,6.13,4.15,2.24-.16,3.75-2.22,4.15-2.77.4-.54,1.53-2.23,1.58-8.51.02-2.74.04-5.54-.79-9.3Z"/>
      <path class="cls-7" d="M994.63,362.94c-.86-3.86-1.43-6.43-3.56-8.9-.6-.69-4.13-4.78-7.91-3.96-2.48.54-3.87,2.94-4.55,4.15-4.68,8.35.62,19.59,4.95,25.12,3.09,3.95,5.09,4.23,6.13,4.15,2.24-.16,3.75-2.22,4.15-2.77.4-.54,1.53-2.23,1.58-8.51.02-2.74.04-5.54-.79-9.3Z"/>
      <g id="inner-eyes">
        <path class="cls-1" d="M927.33,366.96c-1.96.74-2.32,3.02-2.37,3.36-.06.4-.33,2.12.79,3.36,1.26,1.39,3.87,1.7,5.54.2,1.64-1.47,1.6-3.99.4-5.54-.95-1.21-2.74-1.99-4.35-1.38Z"/>
        <path class="cls-1" d="M984.71,356.22c-1.96.74-2.32,3.02-2.37,3.36-.06.4-.33,2.12.79,3.36,1.26,1.39,3.87,1.7,5.54.2,1.64-1.47,1.6-3.99.4-5.54-.95-1.21-2.74-1.99-4.35-1.38Z"/>
      </g>
    </g>
    <g id="mouth">
      <g id="mouth-inside">
        <path class="cls-46" d="M983.7,419.43c-7.98-.18-13.95,5.46-21.06,8.08-3.39,1.25-7.29,1.96-10.66.24-1.67-.85-3.1-2.09-4.74-2.99-1.42-.78-2.93-1.37-4.46-1.91-3.48-1.23-7.24-2.16-9.89-4.89l-1.06,2.56c15.61.32,31.22.63,46.83.95,1.93.04,1.93-2.93,0-3-8.06-.29-14.37,5.36-21.9,7.16-3.72.89-7.23.53-10.35-1.78-2.62-1.95-4.91-4.23-8.35-4.44v3c5.25.18,10.49.37,15.74.55,2.58.09,5.16.18,7.74.27,1.33.05,2.66.09,4,.14.95.03,2.15-.06,2.91.63l.3-2.36c-3.68,2.4-7.7,4.17-11.98,5.19-1.01.24-2.11.56-3.14.25-.95-.29-1.76-1-2.53-1.6-1.89-1.48-3.78-2.96-5.67-4.45l-1.06,2.56c6.32.42,12.63.85,18.95,1.27l-.4-2.95c-2.85.55-5.69,1.1-8.54,1.64-.39.07-1.52.5-1.91.33-.32-.14-.37-.73-.57-1.09-.56-1.01-1.78-1.7-2.91-1.29-2.32.83-1.17,4.13.04,5.42,1.77,1.9,4.49,1.92,6.89,1.75v-3c-2.97.37-5.86-.49-8.03-2.58-1.4-1.33-3.52.78-2.12,2.12,2.7,2.58,6.42,3.92,10.15,3.45,1.86-.23,1.96-3.14,0-3-1.39.1-5.88.34-5.18-2.27l-.69.9c-.49.24-.92-.42-.6.43.1.27.21.56.36.8.29.47.72.83,1.2,1.06,1.16.56,2.5.18,3.69-.05,3-.58,6.01-1.16,9.01-1.74,1.75-.34,1.2-2.84-.4-2.95-6.32-.42-12.63-.85-18.95-1.27-1.22-.08-2.08,1.76-1.06,2.56,2.12,1.67,4.24,3.34,6.37,5s4,2.32,6.62,1.85c4.95-.89,9.77-3.03,13.96-5.77.77-.5,1.05-1.67.3-2.36-1.8-1.65-4.24-1.48-6.53-1.56-2.91-.1-5.83-.21-8.74-.31-5.75-.2-11.49-.4-17.24-.61-1.94-.07-1.91,2.88,0,3,3.17.2,5.49,3.28,8.03,4.85,3.2,1.98,7.02,2.17,10.63,1.45,7.58-1.5,13.98-7.52,21.94-7.23v-3c-15.61-.32-31.22-.63-46.83-.95-1.32-.03-1.95,1.65-1.06,2.56,2.43,2.51,5.67,3.77,8.91,4.87,1.64.56,3.31,1.08,4.89,1.81,1.66.77,3.1,1.85,4.63,2.83,7.22,4.62,15.21.76,21.88-2.92,3.92-2.16,8.02-4.36,12.62-4.25,1.93.04,1.93-2.96,0-3h0Z"/>
        <path class="cls-46" d="M970.24,426.05c.6-.48,1.12-1.11,1.49-1.79.44-.81.67-1.65.77-2.56.04-.36-.19-.82-.44-1.06-.26-.26-.69-.46-1.06-.44s-.79.14-1.06.44l-.23.3c-.14.23-.2.49-.2.76,0,.05-.01.1-.02.15l.05-.4c-.06.43-.18.84-.34,1.24l.15-.36c-.16.38-.37.73-.62,1.06l.23-.3c-.24.31-.52.59-.83.84-.28.22-.44.72-.44,1.06,0,.37.16.81.44,1.06s.66.46,1.06.44l.4-.05c.25-.07.47-.2.66-.39h0Z"/>
      </g>
      <g id="teeth">
        <path class="cls-25" d="M928.34,417.71c20.93.04,41.86.08,62.78.12l-.4-2.95c-4.89,1.51-10.14,1.36-15.21,1.48s-10.28.2-15.43.23c-10.45.05-20.9-.11-31.35-.46-1.93-.07-1.93,2.93,0,3,10.61.36,21.23.52,31.85.46,5.31-.03,10.62-.11,15.92-.25,5.01-.13,10.18-.06,15.01-1.56,1.59-.49,1.33-2.94-.4-2.95-20.93-.04-41.86-.08-62.78-.12-1.93,0-1.93,3,0,3h0Z"/>
      </g>
      <path class="cls-16" d="M924.98,414.98c.74-2.92,11.02-1.6,34.81-1.58,23.91.02,35.31-1.29,35.8,1.19.15.73-.69,1.61-13.45,8.11-18.72,9.53-21.36,9.89-23.74,9.89-6.26.01-10.8-2.42-19.58-7.12-6.51-3.48-14.53-7.78-13.85-10.48Z"/>
    </g>
  </g>
</svg>