<?xml version="1.0" encoding="UTF-8"?>
<svg xmlns="http://www.w3.org/2000/svg" viewBox="0 0 1920 1080">
  <defs>
    <style>
      .austin-secondary-1 {
        fill: #d6d4d2;
        stroke: #d6d4d2;
      }

      .austin-secondary-1, .austin-secondary-2, .austin-secondary-3, .austin-secondary-4, .austin-secondary-5, .austin-secondary-6, .austin-secondary-7, .austin-secondary-8, .austin-secondary-9 {
        stroke-miterlimit: 10;
      }

      .austin-secondary-10 {
        fill: #f4cfbb;
      }

      .austin-secondary-10, .austin-secondary-11, .austin-secondary-12, .austin-secondary-13, .austin-secondary-14, .austin-secondary-15, .austin-secondary-16, .austin-secondary-17, .austin-secondary-18, .austin-secondary-19, .austin-secondary-20, .austin-secondary-21, .austin-secondary-22, .austin-secondary-23 {
        stroke-width: 0px;
      }

      .austin-secondary-11 {
        fill: #c6a08d;
      }

      .austin-secondary-12 {
        fill: #6a93ad;
      }

      .austin-secondary-13 {
        fill: #efe8e2;
      }

      .austin-secondary-14 {
        fill: #262e33;
      }

      .austin-secondary-15 {
        fill: #ffeace;
      }

      .austin-secondary-2, .austin-secondary-3, .austin-secondary-5, .austin-secondary-6, .austin-secondary-8, .austin-secondary-9 {
        stroke: #3c3632;
      }

      .austin-secondary-2, .austin-secondary-4, .austin-secondary-6, .austin-secondary-7, .austin-secondary-8 {
        stroke-width: 5px;
      }

      .austin-secondary-2, .austin-secondary-7 {
        fill: #e0b9a5;
      }

      .austin-secondary-3, .austin-secondary-16 {
        fill: #3c3632;
      }

      .austin-secondary-4, .austin-secondary-5 {
        fill: #f7d29e;
      }

      .austin-secondary-4, .austin-secondary-7 {
        stroke: #3c3a36;
      }

      .austin-secondary-5, .austin-secondary-9 {
        stroke-width: 3px;
      }

      .austin-secondary-17 {
        fill: #6396b6;
      }

      .austin-secondary-6 {
        fill: #303a40;
      }

      .austin-secondary-18 {
        fill: #dcc29d;
      }

      .austin-secondary-19 {
        fill: #413430;
      }

      .austin-secondary-8 {
        fill: #84b2ce;
      }

      .austin-secondary-20 {
        fill: #88bddf;
      }

      .austin-secondary-21 {
        fill: #434e54;
      }

      .austin-secondary-9 {
        fill: none;
      }

      .austin-secondary-22 {
        fill: #793f43;
      }

      .austin-secondary-23 {
        fill: #6089a4;
      }
    </style>
  </defs>
  <g id="body">
    <path class="austin-secondary-2" d="M800.96,486.77c-1.64-4.21-1.44-6.61-1.98-17.18-1.16-23.01-2.67-23.25-1.19-26.18,7.39-14.56,47.77-14.61,60.92,2.45,1.78,2.31,2.32,3.97,7.52,11.45,8.4,12.09,11.29,13.93,14.24,18.82,7.39,12.26,8.57,32.8.4,39.27-5.53,4.37-10.16-1.77-36.79-5.73-15.13-2.25-20.57-1.29-28.88-6.54-2.73-1.73-10.52-6.79-14.24-16.36Z"/>
    <path class="austin-secondary-11" d="M800.72,460.88c.65,11.57,1.87,23.08,3.58,34.54.66,4.44,7.41,2.55,6.75-1.86-1.62-10.84-2.71-21.74-3.33-32.68-.25-4.48-7.25-4.51-7,0h0Z"/>
    <path class="austin-secondary-11" d="M804.27,466.51c20.51,7.26,42.38,8.77,63.72,4.69,4.42-.84,2.55-7.59-1.86-6.75-20.13,3.84-40.71,2.14-60-4.69-4.25-1.51-6.09,5.26-1.86,6.75h0Z"/>
    <path class="austin-secondary-8" d="M890.36,454.93c1.7-3.33,8.78-6.7,22.95-13.45,15.32-7.3,18.84-6.55,20.57-5.14,2.06,1.67,1.91,4.55,1.98,11.47.07,7.39,1.16,14.77.79,22.15-.16,3.24.41-4.62,2.37,85.05,2.75,125.32,1.3,125.48,3.56,195.43,1.03,31.77.45,63.57,1.19,95.34,1.09,46.89,2.27,64.6-3.16,66.07-7.4,2-16.94-28.85-53.41-92.57-17.02-29.73-25.88-42.13-50.24-85.85-15.04-26.99-20.26-37.71-24.92-48.26-16.25-36.82-11.8-40.41-20.97-50.64-26.39-29.44-75.45-13.34-81.49-32.04-1.59-4.9.77-9.14,18.2-33.23,27.2-37.61,40.95-56.44,48.26-57.76,30.84-5.57,59.21,51.48,76.8,42.92,9.64-4.69,3.03-22.73,17.35-34.61,14.51-12.04,32.43-2.77,37.58-11.87,7.3-12.89-25.57-37.03-17.41-53.01Z"/>
    <path class="austin-secondary-23" d="M869.7,539.1c8.76,13.38,20.13,28.92,18.06,45.7-1.02,8.28-4.12,16.16-6.67,24.04s-4.87,16.63-6.64,25.11c-6.91,33.22-7.4,67.36-6.38,101.15.28,9.35.68,18.7,1.09,28.04s.83,18.5,3.28,27.47c1.19,4.34,7.94,2.5,6.75-1.86-2.29-8.39-2.65-16.97-3.03-25.61s-.75-17.44-1.03-26.17c-.54-17.15-.72-34.32.1-51.46s2.78-35.18,6.56-52.42c1.85-8.45,4.18-16.77,6.91-24.98,2.58-7.78,5.27-15.55,6.13-23.74,1.9-18-9.68-34.46-19.08-48.82-2.46-3.75-8.52-.25-6.04,3.53h0Z"/>
    <path class="austin-secondary-23" d="M924.52,443.25c.99,44.16,2.6,88.3,4.84,132.42.23,4.48,7.23,4.51,7,0-2.24-44.11-3.85-88.26-4.84-132.42-.1-4.5-7.1-4.51-7,0h0Z"/>
    <path class="austin-secondary-23" d="M772.23,525.3c21.01,12.15,42.03,24.31,63.04,36.46,7.44,4.31,16.9,11.24,25.38,5.36,3.32-2.3,5.45-5.83,7.27-9.35,2.77-5.36,5.41-10.8,8.11-16.2,2.01-4.02-4.03-7.57-6.04-3.53-2.31,4.61-4.6,9.22-6.92,13.82-1.58,3.15-3.28,7.78-6.52,9.63-5.02,2.88-10.92-1.82-15.16-4.27s-8.64-4.99-12.95-7.49c-17.56-10.16-35.12-20.31-52.68-30.47-3.91-2.26-7.44,3.79-3.53,6.04h0Z"/>
    <path class="austin-secondary-8" d="M796.6,485.26c7.08-1.12,9.05,10.31,22.71,17.7,8.75,4.73,38.87,8.19,28.99,7.09h0c27.6.91,29.41,4.02,29.41,4.02,2.64,4.55-4.07,8.84-13.05,29.73-4.75,11.04-5.32,15.52-9.49,16.88-3.76,1.22-6.61-1.33-20.28-10.2-3.87-2.51-14.29-9.25-24.55-15.12-6.47-3.7-11.4-6.51-18.46-10.02-13.58-6.74-17.71-7.42-18.46-11.08-.61-2.94,1.65-4.47,12.66-17.93,7.7-9.41,8.28-10.72,10.55-11.08Z"/>
    <path class="austin-secondary-17" d="M865.75,516.34c-7.2,11.56-12.65,24.03-16.29,37.15l5.14-2.09c-11.11-8.5-22.85-16.12-35.2-22.67-6.04-3.21-12.22-6.15-18.5-8.86-5.95-2.57-11.97-4.94-16.57-9.68-3.14-3.24-8.09,1.71-4.95,4.95,4.28,4.41,9.53,7.12,15.11,9.54,6.69,2.91,13.32,5.88,19.8,9.26,12.93,6.74,25.2,14.64,36.78,23.5,1.84,1.41,4.6-.13,5.14-2.09,3.48-12.58,8.69-24.4,15.58-35.48,2.39-3.84-3.67-7.35-6.04-3.53h0Z"/>
    <path class="austin-secondary-20" d="M795.74,501.24c4.49,6.87,9.88,13.72,17.68,16.93,4.59,1.89,9.6,1.96,14.39,3.11,5.71,1.37,10.97,3.72,15.94,6.82,3.83,2.39,7.35-3.66,3.53-6.04-8.06-5.03-16.32-7.31-25.59-8.91s-14.93-7.82-19.9-15.45c-2.45-3.76-8.52-.25-6.04,3.53h0Z"/>
    <path class="austin-secondary-8" d="M870.98,464.16c.38-2.5,3.46-3.13,13.71-7.91,11.95-5.58,12.98-7.16,15.3-6.33,4.4,1.57,3.76,8.35,7.91,26.37,2.78,12.04,4.25,18.41,7.91,26.37,4.88,10.6,10.06,16.23,8.44,17.93-1.33,1.4-5.35-1.78-16.35-5.27-7.24-2.3-10.86-3.45-15.3-3.16-9.03.58-13.09,6.01-15.3,4.22-2.25-1.83,1.72-7.64,3.69-20.04,1.37-8.6,2.3-14.46-.53-20.2-3.55-7.21-10.06-8.24-9.49-11.97Z"/>
    <path class="austin-secondary-12" d="M895.72,454.73l-16.44,8.01c-2.04.99-2.22,4.01-.71,5.5,9.23,9.07,8.58,24.72,3.54,35.73-1.86,4.07,4.17,7.63,6.04,3.53,6.35-13.87,6.99-32.79-4.63-44.21l-.71,5.5c5.48-2.67,10.96-5.34,16.44-8.01,4.05-1.97.5-8.01-3.53-6.04h0Z"/>
    <path class="austin-secondary-20" d="M894.45,469.46c.86,12.69,2.34,25.56,9.34,36.5,2.42,3.78,8.48.28,6.04-3.53-6.34-9.91-7.61-21.49-8.38-32.97-.3-4.47-7.3-4.5-7,0h0Z"/>
    <path class="austin-secondary-23" d="M881,548.37c4.5,0,4.51-7,0-7s-4.51,7,0,7h0Z"/>
    <path class="austin-secondary-23" d="M788.2,627.51c8.52,11.58,12.98,25.09,17.48,38.58,4.75,14.24,10.52,27.81,17.64,41.04,15.39,28.59,32.44,56.38,49.97,83.69,2.43,3.78,8.49.27,6.04-3.53-17.53-27.32-34.58-55.1-49.97-83.69-7.25-13.46-12.9-27.28-17.73-41.77-4.41-13.23-9.05-26.51-17.39-37.85-2.64-3.59-8.72-.1-6.04,3.53h0Z"/>
    <path class="austin-secondary-20" d="M765.87,538.98c-14.07,17.16-26.47,35.55-37.02,55.09-2.14,3.96,3.9,7.5,6.04,3.53,10.25-19,22.24-36.97,35.92-53.67,2.83-3.46-2.09-8.44-4.95-4.95h0Z"/>
    <path class="austin-secondary-20" d="M854.41,580.15c-.94,11.27-8.03,20.56-12.78,30.47-4.66,9.71-7.04,20.22-7.55,30.95-1.13,23.75,6.79,46.6,14.56,68.67,1.49,4.22,8.25,2.4,6.75-1.86-7.76-22.03-15.8-44.83-14.21-68.55.75-11.31,4.15-21.63,9.53-31.55,4.88-9,9.83-17.73,10.7-28.13.37-4.49-6.63-4.46-7,0h0Z"/>
    <path class="austin-secondary-23" d="M731.85,579.03c4.03-5.55,11.91-6,18.17-6.37,7.14-.42,14.58-.86,21.58.91,14.25,3.61,24.31,17.58,30.9,29.88,14.84,27.71,15.23,60.05,13.36,90.66-.28,4.5,6.73,4.48,7,0,2.15-34.98.91-72.74-19.49-102.76-8.92-13.13-20.39-23.96-36.78-25.67-7.82-.82-16.1-.45-23.88.69-6.82.99-12.77,3.45-16.91,9.14-2.65,3.65,3.42,7.15,6.04,3.53h0Z"/>
  </g>
  <g id="tie">
    <path class="austin-secondary-6" d="M886.41,540.78c-4.18,4.97,5.75,16.33,9.1,29.27,3.07,11.87-.82,19.52-6.33,38.37,0,0-10.12,34.61-13.45,69.63-.32,3.35-.4,20.59-.57,55.07-.4,83.32,1.75,34.41,1.36,47.4-.43,14.04-1.52,24.43,5.14,34.02.34.49.07.07,12.26,13.05,8.81,9.38,10.72,11.49,13.85,11.47,3.2-.02,6.66-3.7,13.45-11.08,5.63-6.12,8.45-9.18,9.89-11.87,4.71-8.8,2.83-17.96,1.58-25.71-2.29-14.23-1.69-28.78-3.16-43.12-1.59-15.4-1.32-28.46-.79-54.59.59-29.3,3.04-65.83,4.35-85.45,1.4-20.92,2.22-30.23-1.98-43.12-7.03-21.58-23.29-38.28-28.88-36-2.11.86-1.48,3.93-5.54,7.52-4.57,4.04-8.21,2.68-10.29,5.14Z"/>
    <path class="austin-secondary-21" d="M883.95,523.72c.3.08.59.16.88.28-.46-.19-.12-.03.12.12.23.14.56.37.17.06.24.19.47.4.68.62.06.07.55.71.31.35s.19.34.23.41c.11.2.28.89.15.28.07.3.17.59.24.89.39,1.79,2.57,3.01,4.31,2.44,1.88-.61,2.87-2.39,2.44-4.31-.84-3.81-3.92-6.9-7.67-7.89-1.77-.47-3.88.59-4.31,2.44s.55,3.81,2.44,4.31h0Z"/>
    <path class="austin-secondary-21" d="M901.78,543.74c23.63,22.46,19.05,57.8,14.76,86.85-4.97,33.64-5.6,66.97.18,100.57.76,4.43,7.51,2.55,6.75-1.86-3.14-18.29-4.54-36.83-4.1-55.38s3.16-35.23,5.56-52.84c3.86-28.34,4.18-61.01-18.2-82.28-3.26-3.1-8.22,1.84-4.95,4.95h0Z"/>
    <path class="austin-secondary-14" d="M887.29,547.59c12.16,15.7,10.88,37.01,6.68,55.28-4.71,20.48-11.1,40.21-13.89,61.13s-3.09,42.67-2.89,64.05c.21,21.7.52,43.4.88,65.09.16,9.68,1.33,18.43,7.86,25.99,5.95,6.88,14.1,11.4,20.09,18.25,2.97,3.4,7.9-1.57,4.95-4.95-5.39-6.17-12.42-10.45-18.18-16.21-7.34-7.35-7.63-16.15-7.76-25.99-.3-21.7-.7-43.41-.87-65.11-.16-21.94.22-43.98,3.59-65.7,3.23-20.79,10.5-40.51,14.32-61.14,3.56-19.24,2.55-39.65-9.83-55.64-2.75-3.56-7.68,1.43-4.95,4.95h0Z"/>
    <path class="austin-secondary-6" d="M877.36,512.79c-5.94,2.79-9.72,10.24-7.96,14.97.86,2.32,2.25,1.82,6.96,6.7,4.28,4.44,4.29,6.06,6.57,6.64,2.86.73,5.6-1.14,9.85-4.06,4.13-2.83,6.2-4.25,7.09-6.9,1.94-5.74-3.13-11.62-4.02-12.65-3.42-3.96-7.59-5.12-8.37-5.32-1.27-.33-5.64-1.48-10.11.62Z"/>
    <path class="austin-secondary-14" d="M873.08,528.66c2.81,2.08,5.08,5.03,6.38,8.28.7,1.76,2.34,2.98,4.31,2.44,1.67-.46,3.15-2.54,2.44-4.31-2.03-5.1-5.18-9.2-9.59-12.46-1.52-1.13-3.91-.25-4.79,1.26-1.04,1.78-.27,3.66,1.26,4.79h0Z"/>
  </g>
  <g id="arm">
    <path class="austin-secondary-2" d="M948.99,699.77s16.29-36.23,41.93-55.78c2.37-1.8,3.96-1.74,4.75-1.58,1.32.27,2.42,1.21,2.97,2.18,1.6,2.82-.84,6.98-2.18,9.3-2.77,4.79-10.47,18.1-9.89,18.59,1.19,1.01,50.73-40.18,58.55-45.89.68-.5,3.28-2.36,4.35-1.58,1.13.83-.27,4.04.4,4.35.98.46,4.27-6.46,11.08-10.09,1.26-.67,2.14-.96,2.77-.59,1.96,1.16-.09,7.95-.79,10.29-4.74,15.7-35.71,43.56-45.1,52.22,0,0-30.5,28.12-54.99,43.52-2.73,1.72-8.99,5.51-13.05,3.16-3.08-1.78-3.62-6.33-3.96-9.49-.97-9.16,2.24-16.53,3.16-18.59Z"/>
    <path class="austin-secondary-11" d="M1047.04,629.27c-1.66,3.5-4.78,6.26-7.35,9.1-2.83,3.12-5.66,6.24-8.48,9.36-5.71,6.3-11.42,12.6-17.13,18.9-2.16,2.38,1.37,5.93,3.54,3.54,5.82-6.42,11.64-12.85,17.46-19.27,2.88-3.18,5.77-6.36,8.65-9.54,2.69-2.97,5.89-5.9,7.63-9.56.58-1.22.34-2.7-.9-3.42-1.09-.64-2.84-.33-3.42.9h0Z"/>
    <path class="austin-secondary-19" d="M1046.61,628.77c1.55,3.66-2.11,7.67-4.21,10.23-2.94,3.57-5.95,7.09-9.03,10.54-6.22,6.96-12.72,13.67-19.48,20.11-2.33,2.22,1.21,5.76,3.54,3.54,5.68-5.41,11.18-11.01,16.48-16.8,2.7-2.95,5.35-5.95,7.95-8.99s5.15-5.85,7.32-9.04c2.49-3.65,3.52-7.94,1.76-12.11-.53-1.24-2.36-1.52-3.42-.9-1.29.75-1.43,2.17-.9,3.42h0Z"/>
    <path class="austin-secondary-10" d="M986.9,653.26c-10.86,12.9-20.69,26.68-29.27,41.2-2.44,4.12-4.77,8.31-7.01,12.54-1.5,2.84,2.81,5.37,4.32,2.52,7.75-14.66,16.69-28.67,26.75-41.85,2.82-3.7,5.75-7.32,8.74-10.88.87-1.03,1.01-2.52,0-3.54-.89-.89-2.66-1.04-3.54,0h0Z"/>
    <path class="austin-secondary-8" d="M818.08,672.85c-.57-16.58,1.08-20.23.31-31.05-.41-5.82-2.08-21.45-10.68-37.98-5.93-11.39-15.77-30.29-36.66-36.53-14.72-4.4-27.7-.34-31.65,1.05-13.38,4.74-21.13,13.69-23.21,16.35-12.2,15.62-4.05,38.7,15.56,98.64,14.14,43.22,34.58,84.15,49.85,126.99,3.54,9.92,10.87,30.87,24.92,33.23,4.58.77,8.19-.72,29.41-10.42,16.52-7.55,24.79-11.32,26.37-12.13,38.82-19.73,40.7-28.75,82.29-53.27,17.39-10.25,28.44-15.39,29.54-25.61.45-4.16-1.06-6.23-9.5-25.03-9.58-21.34-9.5-22.85-12.13-24.26-9.65-5.2-24.45,7.57-54.59,29.67-53.78,39.43-61.33,38.87-65.27,36.79-4.46-2.35-6.99-20.98-11.87-58.15-1.74-13.25-2.41-20.09-2.69-28.29Z"/>
    <path class="austin-secondary-23" d="M945.65,705.86c3.36,7.05,6.72,14.09,10.07,21.14l5.04,10.57c.84,1.77,2.02,3.67,2.55,5.56,1.01,3.65-1.16,5.06-3.79,6.89-12.05,8.38-24.3,16.51-36.56,24.58-25.01,16.46-50.54,32.23-77.3,45.71-6.54,3.3-13.15,6.45-19.84,9.45-3.63,1.62-7.28,3.2-10.95,4.72-1.45.6-3.22,1.66-4.77,1.91-3.46.55-4.96-1.33-6.91-3.92-8.82-11.69-13.8-26.5-19.33-39.9-12.09-29.32-23.07-59.09-33.59-89-5.8-16.49-11.46-33.02-17.09-49.56-5.71-16.76-11.55-33.68-12.5-51.5-.24-4.48-7.24-4.51-7,0,.88,16.57,5.64,32.37,10.92,47.99,5.68,16.81,11.45,33.6,17.31,50.36,11.65,33.29,23.83,66.41,37.43,98.96,5.66,13.55,10.82,30.03,21.44,40.67,5.23,5.23,10.79,2.89,16.8.4,7.33-3.04,14.59-6.27,21.75-9.68,30.08-14.33,58.58-31.75,86.4-50.04,7.93-5.21,15.81-10.5,23.67-15.81,3.8-2.57,7.59-5.15,11.39-7.72,2.82-1.92,6.33-3.73,8.32-6.59,4.64-6.67-1.49-15.3-4.4-21.4-4.34-9.1-8.67-18.2-13.01-27.31-1.94-4.06-7.97-.52-6.04,3.53h0Z"/>
    <path class="austin-secondary-23" d="M773.9,578.09c27.04,18.12,33.96,52.24,35.09,82.64.69,18.48-.13,37.02,1.81,55.44s6.19,35.24,10.79,52.53c.49,1.85,2.48,2.91,4.31,2.44,2.49-.63,4.44-1.75,6.14-3.7.97-1.11,1.46-2.92.55-4.24-5.08-7.4-8.89-15.3-11.41-23.92-1.26-4.32-8.02-2.48-6.75,1.86,2.67,9.16,6.71,17.73,12.11,25.6l.55-4.24c-.71,1.12-1.73,1.76-3.05,1.9l4.31,2.44c-4.93-18.56-9.59-37.27-11.07-56.48s-.37-39.59-1.81-59.34c-2.19-30.02-11.85-61.42-38.03-78.97-3.75-2.51-7.26,3.55-3.53,6.04h0Z"/>
    <path class="austin-secondary-20" d="M751.75,597.75c36.91,26.53,39.57,76.28,41.03,117.58.16,4.49,7.16,4.51,7,0-1.56-44.24-5.21-95.39-44.49-123.62-3.66-2.63-7.16,3.44-3.53,6.04h0Z"/>
    <path class="austin-secondary-20" d="M826.53,794.15c37.13-18.79,73.65-38.74,109.52-59.84,3.88-2.28.36-8.34-3.53-6.04-35.87,21.1-72.39,41.05-109.52,59.84-4.02,2.03-.48,8.08,3.53,6.04h0Z"/>
  </g>
  <g id="head">
    <path class="austin-secondary-7" d="M902.46,375.31c2.63,2.52,7.21,2.67,10.48,1.38,4.5-1.76,6.27-6.12,7.32-8.7,4.64-11.41-1.45-22.79-3.76-27.1-2.06-3.84-4.02-7.39-7.71-8.11-3.3-.64-7.21,1.11-9.3,3.96-3.67,4.99,1.01,9.58,1.38,23.93.22,8.4-1.25,11.92,1.58,14.64Z"/>
    <path class="austin-secondary-7" d="M742.44,374.52c-3.99,2.71-4.74,7.48-5.34,11.27-1.06,6.71.77,12.02,1.38,13.65.52,1.37,3.04,7.66,9.69,12.46,8.12,5.85,20.18,7.88,22.35,4.35,1.39-2.27-2.04-5.6-6.53-14.04-6.24-11.74-8.11-20.97-8.11-20.97-1.11-3.71-1.78-6.55-4.35-7.91-2.91-1.54-6.75-.41-9.1,1.19Z"/>
    <path class="austin-secondary-11" d="M904.67,351.3c1.03,2.63,3.45,7.75.19,9.76-3.82,2.37-.31,8.42,3.53,6.04,6.47-4,5.43-11.56,3.03-17.67-1.63-4.15-8.4-2.34-6.75,1.86h0Z"/>
    <path class="austin-secondary-11" d="M747.75,395.22c2.37,4.31,6.01,7.85,10.41,10.05,4.02,2.01,7.57-4.03,3.53-6.04-3.41-1.7-6.06-4.2-7.9-7.54-2.17-3.95-8.22-.42-6.04,3.53h0Z"/>
    <path class="austin-secondary-16" d="M748.04,385.17c-3.87,4.31-3.68,11.08-.36,15.66,3.65,5.04,10.09,7.09,16.11,6.98,1.93-.04,1.93-3.04,0-3-4.88.09-10.28-1.35-13.41-5.36-2.64-3.38-3.22-8.82-.22-12.16,1.29-1.43-.83-3.56-2.12-2.12h0Z"/>
    <path class="austin-secondary-16" d="M908.09,346.19c1.88,1.24,2.62,3.49,3.11,5.59.63,2.7,1.18,5.57,1.07,8.35-.09,2.28-.88,4.83-2.83,6.21-1.56,1.1-4.17,1.16-5.33-.57-1.07-1.59-3.67-.09-2.59,1.51,1.7,2.52,4.97,3.44,7.82,2.45,3.08-1.08,5.04-4.13,5.65-7.23.72-3.66-.03-7.59-.83-11.19-.67-3.03-1.89-5.94-4.56-7.7-1.62-1.07-3.12,1.53-1.51,2.59h0Z"/>
    <path class="austin-secondary-2" d="M772.51,417.64c8.93,19.67,9.89,21.96,9.89,21.96,1.47,3.49,1.85,4.52,2.97,6.13,3.96,5.71,9.77,8.12,15.82,10.29,11.78,4.21,17.67,6.32,26.51,7.52,17.61,2.39,29.49,4.01,42.73-2.18,17.02-7.95,24.89-23.47,27.49-29.67,3.39-8.07,4.2-15.41,4.75-20.37,1.15-10.46.07-17.61-.79-26.11-2.54-25.05.57-25.15-1.58-39.16-1.97-12.8-5.87-38.19-22.35-46.68-12.53-6.46-18.72,3.88-46.29,3.76-27.87-.12-34.51-10.73-51.23-4.95-18.16,6.29-26.69,24.48-27.69,26.7-12.67,28.06,4.53,62.17,10.88,74.77,1.72,3.4,4.75,8.85,8.9,18Z"/>
    <path class="austin-secondary-11" d="M761.81,369.17c2.67-12.3.26-27.42,8.07-38.11s22.59-8.83,33.7-6.71c12.85,2.46,25.39,5,37.84-.5,5.9-2.61,11.61-6.59,18.21-7.12,7.72-.62,15.1,3.11,21.82,6.43,4.03,1.99,7.58-4.05,3.53-6.04-6.39-3.15-12.97-6.35-20.13-7.19s-13.25,1.23-19.52,4.26c-7.74,3.74-14.3,6.6-23.13,6.09-8.15-.47-16.05-2.84-24.13-3.88-11.8-1.53-25.1-.28-33.08,9.62-9.44,11.69-6.94,27.55-9.93,41.31-.95,4.39,5.79,6.27,6.75,1.86h0Z"/>
    <path class="austin-secondary-11" d="M817.13,361.48c-2.35-3.66-6.94-4.52-10.77-2.69s-5.62,6.35-6.75,10.33c-1.24,4.34,5.51,6.19,6.75,1.86.51-1.8.98-4.08,2.41-5.42.38-.36,1.86-1.25,2.32-.54,2.42,3.78,8.49.27,6.04-3.53h0Z"/>
    <path class="austin-secondary-11" d="M874.62,353.44c-1.78-3.89-5.79-6.59-10.11-5.16s-6.24,5.84-7.27,10.03,5.68,6.24,6.75,1.86c.38-1.57.71-3.99,2.17-4.97,1.32-.87,1.92.7,2.41,1.77.79,1.72,3.27,2.14,4.79,1.26,1.77-1.03,2.05-3.06,1.26-4.79h0Z"/>
    <path class="austin-secondary-11" d="M767.41,403.67c4.44,9.14,8.89,18.29,13.33,27.43,3.23,6.65,5.97,15.03,12.31,19.41,6.71,4.64,16.32,6.19,24.14,7.93,9.71,2.15,19.56,3.54,29.47,4.32,4.49.35,4.47-6.65,0-7-9.29-.73-18.51-2.05-27.61-4.07-6.99-1.55-17.34-2.78-22.95-7.62s-7.98-13.75-10.98-19.93l-11.67-24c-1.97-4.05-8.01-.51-6.04,3.53h0Z"/>
    <path class="austin-secondary-11" d="M834.29,369.3c1.9,7.07,2.91,15.86,6.79,22.15,3.2,5.21,9.44,7.32,12.76,12.35,2.47,3.75,8.53.24,6.04-3.53-3.08-4.68-8-6.83-11.63-10.91-2.6-2.92-3.24-7.13-4.23-10.8l-2.99-11.12c-1.17-4.35-7.92-2.5-6.75,1.86h0Z"/>
    <path class="austin-secondary-16" d="M839.79,363.12c.61,4.88,1.14,9.78,1.85,14.65.32,2.19.91,4.24,2.09,6.13s2.64,3.61,4.03,5.33,2.98,3.5,4.76,4.97,3.66,2.59,5.05,4.34c.94,1.18,2.79,4,1.98,5.59-.67,1.31-2.91,1.52-4.18,1.64-1.91.18-1.92,3.18,0,3,2.68-.25,6.12-.96,7.1-3.88,1.09-3.27-1.54-7.38-3.78-9.56-1.41-1.36-3.08-2.4-4.56-3.69s-2.84-2.82-4.11-4.36c-1.2-1.47-2.43-2.95-3.47-4.54s-1.65-3.39-1.95-5.33c-.74-4.74-1.21-9.54-1.8-14.3-.24-1.89-3.24-1.91-3,0h0Z"/>
    <path class="austin-secondary-4" d="M901.27,364.83c3.6-.07,6.3-21.59,6.73-38.37.51-20.02.63-30.78-6.33-41.54-7.59-11.73-19.38-18.99-19.38-18.99-8.59-5.29-13.93-5.48-15.03-9.89-1.6-6.42,7.51-14.85,14.64-18.99,8.37-4.85,15.05-4.38,15.03-5.93-.02-2.39-15.8-5.25-31.65-4.35-9.2.52-18.93,1.19-28.88,7.12-7.98,4.76-6.38,7.11-14.64,12.66-9.73,6.54-19.37,8.27-33.63,10.68-16.6,2.8-15.52.32-24.13,2.77-4.01,1.14-22.29,6.35-32.44,23.34-6.29,10.52-6.51,20.63-6.73,30.07-.1,4.62-.03,17.75,7.91,39.16,8.97,24.19,23.4,46.6,26.9,45.1,2.56-1.09-3.29-13.86-3.16-38.37.07-13.73.21-21.11,5.14-28.88,6.12-9.63,17.22-16.12,28.09-17.01,7.95-.65,7.33,2.38,20.97,3.56,9.25.8,19.71,1.71,30.86-2.77,6.92-2.78,8.39-5.35,14.64-5.93,8.35-.78,14.91,2.95,16.62,3.96,6.13,3.59,9.76,8.76,13.85,16.62,11.22,21.55,11.68,36.06,14.64,36Z"/>
    <path class="austin-secondary-5" d="M817.11,349.13c.06-.76-.46-2.51-.99-3.76-.61-1.43-1.35-2.48-1.58-2.77-2.24-2.71-11.32.55-19.78,3.58-14.46,5.17-16.22,5.77-18.59,8.32-4.68,5.03-6.91,12.46-5.13,13.85,1.86,1.45,6.29-5.05,16.61-9.9,13.99-6.58,29.18-5.63,29.47-9.32Z"/>
    <path class="austin-secondary-5" d="M841.62,334.99c-.18.82.03,2.51.71,4.01,0,0,.55,1.2,1.43,2.14,2.8,2.98,16.77-3.08,30.12-3.38,10.25-.23,16.15,3.02,16.75,1.54.69-1.72-6.71-7.58-15.43-9.57-3.49-.8-8.21-.32-17.65.62-10.84,1.09-15.44,2.36-15.93,4.64Z"/>
    <path class="austin-secondary-15" d="M865.39,235.52c-14.2-2.66-25.95,5.65-35.88,14.83-5.49,5.08-10.83,10.51-17.53,14.02s-14.86,4.88-22.55,5.7c-13.24,1.42-27.78,1.78-39.21,9.53-9.62,6.52-15.85,17.8-13.14,29.48,1.02,4.39,7.77,2.53,6.75-1.86-2.93-12.64,8.37-22.48,19.25-26.02,11.61-3.78,24.04-3.32,35.97-5.44s21.52-7.69,30.49-15.88,20.09-20.21,34-17.61c4.4.82,6.29-5.92,1.86-6.75h0Z"/>
    <path class="austin-secondary-18" d="M877.23,279.9c11.93,10.9,17.69,26.53,15.89,42.57-.5,4.47,6.5,4.43,7,0,1.99-17.7-4.81-35.52-17.94-47.52-3.32-3.03-8.28,1.9-4.95,4.95h0Z"/>
    <path class="austin-secondary-3" d="M819.98,374.72c-.86-3.86-1.43-6.43-3.56-8.9-.6-.69-4.13-4.78-7.91-3.96-2.48.54-3.87,2.94-4.55,4.15-4.68,8.35.62,19.59,4.95,25.12,3.09,3.95,5.09,4.23,6.13,4.15,2.24-.16,3.75-2.22,4.15-2.77.4-.54,1.53-2.23,1.58-8.51.02-2.74.04-5.54-.79-9.3Z"/>
    <path class="austin-secondary-3" d="M877.36,364.62c-.86-3.86-1.43-6.43-3.56-8.9-.6-.69-4.13-4.78-7.91-3.96-2.48.54-3.87,2.94-4.55,4.15-4.68,8.35.62,19.59,4.95,25.12,3.09,3.95,5.09,4.23,6.13,4.15,2.24-.16,3.75-2.22,4.15-2.77.4-.54,1.53-2.23,1.58-8.51.02-2.74.04-5.54-.79-9.3Z"/>
    <path class="austin-secondary-1" d="M813.79,377.2c-1.96.74-2.32,3.02-2.37,3.36-.06.4-.33,2.12.79,3.36,1.26,1.39,3.87,1.7,5.54.2,1.64-1.47,1.6-3.99.4-5.54-.95-1.21-2.74-1.99-4.35-1.38Z"/>
    <path class="austin-secondary-1" d="M871.29,368.75c-1.96.74-2.32,3.02-2.37,3.36-.06.4-.33,2.12.79,3.36,1.26,1.39,3.87,1.7,5.54.2,1.64-1.47,1.6-3.99.4-5.54-.95-1.21-2.74-1.99-4.35-1.38Z"/>
    <path class="austin-secondary-22" d="M814.54,425.17c5.73,6.04,13.65,12.21,22.13,13.42s17.39-6.49,23.79-11.61c2.5-2,.3-5.91-2.47-5.97-12.08-.27-24.1-1.24-36.05-3.01l-1.86,6.75c5.06.69,8.33,5.82,12.88,7.9,3.97,1.81,9.77,3.14,13.97,1.3,3.04-1.34,4.9-4.92,2.49-7.8-2.9-3.46-9.98-3.81-14.04-3.56-4.47.28-4.51,7.28,0,7,3.32-.21,7.05-.02,9.8,2.06l-1.73-3.02v1.08c.35-.82.69-1.65,1.03-2.47-3.37,3.07-10.96-2.19-13.37-4.24-2.77-2.34-5.47-4.5-9.17-5-4.38-.59-6.33,6.09-1.86,6.75,12.57,1.86,25.2,2.97,37.91,3.26l-2.47-5.97c-5.13,4.1-12.92,11.15-19.84,9.18-6.23-1.78-11.82-6.39-16.18-10.99-3.11-3.27-8.05,1.68-4.95,4.95h0Z"/>
    <path class="austin-secondary-13" d="M817.17,425.41c13.08.33,26.13,1.1,39.16,2.29,4.48.41,4.46-6.59,0-7-13.03-1.19-26.08-1.96-39.16-2.29-4.51-.12-4.5,6.89,0,7h0Z"/>
    <path class="austin-secondary-9" d="M813.12,419.55c1.39-2.59,5.78-1.38,24.92-.4,16.22.84,23.92.53,24.53,3.16.24,1.04-1.82,2.94-5.93,6.73-4.11,3.78-6.16,5.67-9.49,7.52-3.13,1.73-6.15,3.4-10.29,3.56-5.24.2-9.16-2.14-11.47-3.56-6.87-4.22-14.42-12.98-12.26-17.01Z"/>
  </g>
</svg>