<?xml version="1.0" encoding="UTF-8"?>
<svg xmlns="http://www.w3.org/2000/svg" version="1.1" viewBox="0 0 557.25 557.25">
  <defs>
    <style>
      .cls-1 {
        fill: #efe8e2;
      }

      .cls-2 {
        fill: #303a40;
      }

      .cls-2, .cls-3, .cls-4, .cls-5, .cls-6, .cls-7, .cls-8, .cls-9, .cls-10, .cls-11, .cls-12, .cls-13, .cls-14, .cls-15, .cls-16, .cls-17 {
        stroke-miterlimit: 10;
      }

      .cls-2, .cls-3, .cls-4, .cls-5, .cls-6, .cls-7, .cls-9, .cls-10, .cls-12, .cls-13, .cls-16, .cls-17 {
        stroke-width: 5px;
      }

      .cls-2, .cls-4, .cls-6, .cls-7, .cls-10, .cls-11, .cls-13, .cls-14, .cls-15, .cls-16, .cls-17 {
        stroke: #3c3632;
      }

      .cls-3, .cls-9, .cls-12 {
        stroke: #3c3a36;
      }

      .cls-3, .cls-13 {
        fill: #e0b9a5;
      }

      .cls-4 {
        fill: #fff;
      }

      .cls-18, .cls-15 {
        fill: #3c3632;
      }

      .cls-5 {
        stroke: #6089a4;
      }

      .cls-5, .cls-11 {
        fill: none;
      }

      .cls-19 {
        fill: #262e33;
      }

      .cls-20 {
        fill: #434e54;
      }

      .cls-21 {
        fill: #6089a4;
      }

      .cls-22 {
        fill: #ffeace;
      }

      .cls-6 {
        fill: #64af6b;
      }

      .cls-7 {
        fill: #ea5050;
      }

      .cls-23 {
        fill: #793f43;
      }

      .cls-8 {
        fill: #d6d4d2;
        stroke: #d6d4d2;
      }

      .cls-9, .cls-14 {
        fill: #f7d29e;
      }

      .cls-10, .cls-12 {
        fill: #84b2ce;
      }

      .cls-24 {
        fill: #dcc29d;
      }

      .cls-11, .cls-14 {
        stroke-width: 3px;
      }

      .cls-25 {
        fill: #88bddf;
      }

      .cls-26 {
        fill: #c6a08d;
      }

      .cls-16 {
        fill: #706865;
      }

      .cls-17 {
        fill: #232120;
      }
    </style>
  </defs>
  <!-- Generator: Adobe Illustrator 28.6.0, SVG Export Plug-In . SVG Version: 1.2.0 Build 709)  -->
  <g>
    <g id="Layer_1">
      <circle class="cls-4" cx="278.63" cy="278.63" r="276.13"/>
    </g>
    <g id="body">
      <path class="cls-13" d="M200.05,305.85c-1.64-4.21-1.44-6.61-1.98-17.18-1.16-23.01-2.67-23.25-1.19-26.18,7.39-14.56,47.77-14.61,60.92,2.45,1.78,2.31,2.32,3.97,7.52,11.45,8.4,12.09,11.29,13.93,14.24,18.82,7.39,12.26,8.57,32.8.4,39.27-5.53,4.37-10.16-1.77-36.79-5.73-15.13-2.25-20.57-1.29-28.88-6.54-2.73-1.73-10.52-6.79-14.24-16.36Z"/>
      <path class="cls-26" d="M197.82,266.77c.65,11.57,1.87,23.08,3.58,34.54.66,4.44,7.41,2.55,6.75-1.86-1.62-10.84-2.71-21.74-3.33-32.68-.25-4.48-7.25-4.51-7,0h0Z"/>
      <path class="cls-26" d="M201.38,275.11c20.51,7.26,42.38,8.77,63.72,4.69,4.42-.84,2.55-7.59-1.86-6.75-20.13,3.84-40.71,2.14-60-4.69-4.25-1.51-6.09,5.26-1.86,6.75h0Z"/>
    </g>
    <g id="Layer_4">
      <g id="Layer_6">
        <g id="Layer_7">
          <polygon class="cls-13" points="373.71 196.88 389.81 243.95 409.59 219.18 391.65 181.13 373.71 196.88"/>
          <g id="Layer_8">
            <polygon class="cls-17" points="303.52 165.49 357.31 241.68 391.65 214.82 337.86 138.62 303.52 165.49"/>
            <path class="cls-16" d="M343.3,166.5c-5.57-4.21-14.63-.71-16.61,5.85-1.27,4.19.52,9.1,3.92,11.81,4.17,3.33,10.58,3.18,14.29-1.01,4.34-4.9,3.06-13.13-1.6-16.66Z"/>
            <path class="cls-6" d="M359.78,214.25c-2.78-2.13-7.31-.36-8.3,2.97-.63,2.12.26,4.61,1.96,5.99,2.09,1.69,5.29,1.61,7.15-.51,2.17-2.48,1.53-6.65-.8-8.44Z"/>
            <path class="cls-7" d="M375.68,202.41c-2.78-2.13-7.31-.36-8.3,2.97-.63,2.12.26,4.61,1.96,5.99,2.09,1.69,5.29,1.61,7.15-.51,2.17-2.48,1.53-6.65-.8-8.44Z"/>
          </g>
          <polygon class="cls-13" points="334.99 204.37 324.68 222.67 329.43 229.71 333.58 230.95 344.12 226.55 349.37 217.66 347.34 208.18 346.01 202 334.99 204.37"/>
        </g>
        <path class="cls-13" d="M388.46,189.27c3.21-1.36,6.43-2.7,9.65-4.04l-9.21-12.94-10.14-4.54-10.56-12.89-10.73-2.07-12.5,11.03-2.23,11.57,7.97,4.14,7.87-3.2,2.43-2.52-6.83,8.65,1.28.68c1.61-2.41,5.83-3.14,8.23-.69,1.05-1.93,2.54-3.52,4.69-4.34,3.18-1.2,6.27.04,8.73,2.04,1.08-.07,2.25.03,3.53.37,3.93,1.04,6.33,4.54,7.82,8.75Z"/>
        <path class="cls-13" d="M368.11,163.69c-4.38.68-9.94,3.6-11.41,8.92-1.03,3.72-.15,8.97,3.01,10.31,2.61,1.1,5.64-.93,9.66-3.62,4.06-2.71,11.75-7.87,10.55-11.87-.97-3.2-7.27-4.45-11.81-3.75Z"/>
        <path class="cls-13" d="M380.76,173.19c-.58.04-7.71.69-11.37,6.33-2.76,4.25-3.17,10.76,0,12.66,3.16,1.89,8.7-1.51,13.99-4.75,5.13-3.14,10.31-6.31,9.62-9.49-.71-3.27-7.3-5.12-12.24-4.75Z"/>
        <path class="cls-13" d="M384.62,185.93h0s-11.53,6.24-10.32,9.44c.99,2.63,11.13,4.62,17.09.67,4.65-3.08,6.22-9.42,4.09-11.18-2.45-2.03-10.86,1.07-10.86,1.07Z"/>
      </g>
      <path class="cls-12" d="M305.05,298c4.34-1.61,10.75-.27,15.57.2,7.72.94,14.23,1.83,21.4,4.12,11.25,3.65,21.42,5.86,32.04,11.92,12.16,6.56,25.66,13.97,37.44,20.24,2.68,1.42,5.51,2.95,8.2,4.36,2.01.84,7.48,4.51,8.43,2.2.35-1.67-.42-3.69-.87-5.48-1.83-6.11-4.97-16.07-7.2-22.6-3.51-10.89-9.43-20.18-14.52-30.61-4.84-9.28-8.65-18.21-14.51-26.69-3.38-5.13-7.37-10.65-10.55-15.8-4.03-5.99-1.86-9.64,2.01-14.67,3.74-4.99,9.23-12.28,12.92-17.13,3.5-4.32,5.87-8.52,10.75-1.85,19.93,25.35,38.86,53.43,57.24,79.78,8.69,14.23,17.04,35.05,25.9,52.49,1.17,2.46,2.14,4.47,2.91,6.12,3.37,6.87,5.19,16.56,7.43,24.57,2.5,10.12,6.04,20.44,5.88,30.24.03,4.99.34,10.36-1.75,14.98-1.92,4.22-6.35,7.38-10.53,9.96-5.51,3.71-10.67,3.88-16.88,1.96-12.76-3.55-26.32-6.65-38.67-10.8-33.01-10.77-74.15-25.07-107.94-37.68-6.14-2.13-8-3.14-9.28-9.23-3.41-13.73-12.48-48.81-16.21-64.13-.48-2.5-1.42-4.98.72-6.39l.08-.04Z"/>
      <path class="cls-10" d="M359.55,419.79v-.15c-.88-9.93-2.53-22.02-3.94-32.51-2.19-17.82-5.45-35.66-13.01-51.69-5.4-12.4-12.45-25.2-23.39-33.42-18.75-14.59-34.29,9.06-47.38,20.56-26.76,23.71-58.42,2.6-87.54-.58-29.91-2.46-42.53,17.67-39.08,45.46,3.3,34.44.66,68.87-5.38,102.85-2.57,14.25-4.59,28.3-5.7,42.48.68.49,1.33,1.01,1.96,1.54,1.14.48,2.26,1.04,3.32,1.69,6.28,3.86,12.84,7.13,19.56,10.15.08.03.15.06.24.09,1.92.73,3.82,1.5,5.74,2.22,3.48,1.3,6.98,2.52,10.5,3.71,3.01,1.01,5.74,2.4,8.16,4.09,3.59.87,7.14,1.94,10.83,3.03,1.99.59,3.86,1.37,5.6,2.3,11.4,2.29,22.82,4.41,34.33,6.08.3.04.6.08.9.12.25.03.5.07.75.1,1.38-.2,2.73-.25,4-.1,18.67,2.18,37.52.11,56.18,2.37,1.74.21,3.4.47,5,.81.18,0,.36-.02.54-.02,8.57-.05,17.09-.68,25.59-1.68,10.02-1.49,19.97-3.39,29.89-5.44.97-.5,1.97-.96,2.99-1.35-.16-41.43,1.18-84.29-.62-122.71Z"/>
      <path class="cls-25" d="M288.72,303.3c-8.44,8.71-16.88,17.41-25.31,26.12-1.34,1.39.77,3.51,2.12,2.12,8.44-8.71,16.88-17.41,25.31-26.12,1.34-1.39-.77-3.51-2.12-2.12h0Z"/>
      <g id="Layer_5">
        <path class="cls-5" d="M174.66,321.91c17.81,8.01,36.03,16.3,49.9,30.04,1.91,1.89,3.83,3.95,6.37,4.85s5.91.14,6.92-2.36"/>
        <path class="cls-5" d="M258.44,344.73c3.32,2.99,6.69,5.92,10.12,8.78,1.63,1.36,3.75,2.79,5.72,2,.78-.31,1.38-.93,1.96-1.54,14.13-15,23.56-34.35,26.68-54.71"/>
        <path class="cls-5" d="M156.81,343.77c15.87,4.52,25.87,20.52,21.87,37.52-11,48-17,93-24.45,139.87"/>
        <path class="cls-5" d="M261.74,345.97l-3.94-2.41"/>
        <path class="cls-5" d="M361.25,384.91c31.65,10.65,63.3,21.31,94.95,31.96,4.94,1.66,9.88,3.33,14.91,4.68,5.78,1.55,12.13,2.65,17.58.18"/>
        <path class="cls-5" d="M381.35,234.06c5.35,6.58,9.69,13.92,14,21.23,16.15,27.36,32.61,55.59,37.38,87"/>
        <g id="tie">
          <path class="cls-2" d="M243.6,508.97c-.26,2.79-.34,15.21-.42,39.16,17.63,1.62,35.39-.09,52.99,2.05.04,0,.07,0,.1.01,0-7.4.16-15.92.36-26.67.54-29.3,2.92-65.84,4.2-85.46,1.36-20.92,2.17-30.23-2.06-43.12-7.07-21.57-23.36-38.24-28.94-35.95-2.11.86-1.47,3.93-5.53,7.53-4.56,4.05-8.21,2.69-10.28,5.16h0c-4.17,4.98,5.78,16.32,9.15,29.25,3.09,11.86-.79,19.52-6.26,38.38,0,0-10.06,34.63-13.33,69.65Z"/>
          <path class="cls-20" d="M251.55,354.62c.3.08.59.16.88.28-.46-.19-.12-.03.12.12.23.14.56.37.17.06.24.19.47.4.68.62.06.07.55.71.31.35s.19.34.23.41c.11.2.28.89.15.28.07.3.17.59.24.89.39,1.79,2.58,3.01,4.31,2.43,1.88-.61,2.87-2.4,2.43-4.31-.85-3.81-3.93-6.89-7.68-7.88-1.77-.47-3.88.6-4.31,2.45s.56,3.81,2.45,4.31h.01Z"/>
          <path class="cls-20" d="M269.42,374.61c23.67,22.42,19.15,57.77,14.91,86.82-4.28,29.36-5.25,58.48-1.54,87.74,2.35.09,4.7.21,7.04.39-2.02-14.84-2.92-29.82-2.59-44.8.41-18.55,3.1-35.24,5.47-52.85,3.81-28.35,4.07-61.02-18.35-82.25-3.27-3.09-8.22,1.85-4.94,4.96h0Z"/>
          <path class="cls-19" d="M247.92,494.91c-2.33,17.7-2.86,35.54-2.83,53.37,2.33.18,4.65.32,6.98.41-.05-19.37.56-39.09,3.52-58.38,3.19-20.8,10.43-40.53,14.21-61.17,3.53-19.25,2.48-39.65-9.93-55.62-2.76-3.56-7.68,1.44-4.94,4.96,12.19,15.68,10.95,36.99,6.78,55.27-4.67,20.49-11.03,40.23-13.78,61.15Z"/>
          <path class="cls-2" d="M244.94,343.71c-5.94,2.8-9.7,10.26-7.93,14.98.86,2.32,2.25,1.82,6.97,6.69,4.29,4.43,4.3,6.05,6.58,6.63,2.86.72,5.6-1.15,9.84-4.08,4.12-2.84,6.19-4.26,7.08-6.91,1.93-5.74-3.15-11.61-4.04-12.64-3.43-3.95-7.6-5.11-8.38-5.31-1.27-.33-5.64-1.47-10.11.64h-.01Z"/>
          <path class="cls-19" d="M240.68,359.58c2.81,2.07,5.09,5.02,6.39,8.27.7,1.76,2.35,2.98,4.31,2.43,1.67-.46,3.15-2.55,2.43-4.31-2.04-5.1-5.2-9.19-9.61-12.44-1.52-1.13-3.91-.24-4.79,1.27-1.04,1.78-.26,3.66,1.27,4.79h-.01Z"/>
        </g>
      </g>
      <path class="cls-10" d="M136.11,514.34c1.13.48,2.24,1.03,3.29,1.68,3.48,2.14,7.04,4.08,10.67,5.91,2.78-15.05,4.74-33.09,7.33-49.68,2.26-14.79,3.53-29.86,5.29-44.48,1-8.05,3.25-14.04,5.43-22.53,2.59-9.47,5.32-19.44,7.9-28.88,1.6-5.96,1.72-6.82.88-10.87-1.04-4.78-2.51-9.46-4.75-13.94-2.26-4.52-5.46-8.94-9.66-11.93-9.14-6.68-23.93-6.12-32.94.02l-.12.09c-2.97,2.23-5.03,5.45-6.98,8.66-4.33,7.25-11.33,19.02-15.21,25.54-2.48,4.09-4.21,7.27-5.48,11.71-3.15,11.07-7.32,25.5-10.18,36.47-1.72,12.32-3.45,34.34-5.17,54.84,1.73,1.66,3.25,3.53,4.48,5.59.51.85,1.04,1.68,1.56,2.52,13.27,9.4,27.08,17.99,40.61,26.99,1.07.71,2.09,1.48,3.04,2.28Z"/>
      <path class="cls-10" d="M182.3,293.06c.46-.1.94.12,1.45.33,4.15,1.87,16.65,7.54,20.6,9.32,10.7,4.34,21.93,8.86,32.86,13.05,3.95,1.48,8.66,3.24,12.49,4.69,3.19,1.09,2.52,2.42,2.95,5.55.22,4.53,1.29,9.14.88,13-.88,2.36-3.04,4.27-4.54,6.37-2.4,3.16-4.62,5.49-7.65,8.03-1.65,1.24-3.64,4.2-5.63,2.16-4.52-3.71-15.36-13.14-19.48-16.31-2.87-1.59-5.93-2.94-9.33-4.67-10.91-5.41-22-10.82-32.98-16.03-2.06-.92-1.89-1.64-1.25-3.16,1.47-3.57,5.32-12.84,7.52-18.17.7-1.51,1.55-4.16,2.06-4.15l.06-.02Z"/>
      <path class="cls-10" d="M279.71,301.88c-5.73,5.08-22.08,19.89-23.57,21.26-.08.1-.11.19-.12.35.09,1.48.27,3.02.45,5.06.34,3.55.69,7.34,1.02,10.88.17,1.64.02,1.41,1.04,2.23,4.94,3.83,11.16,9.24,15.98,12.65,1.33-1.34,9.99-12.6,13.53-16.96,1.57-3.06,11.8-31.83,13.14-35.13.11-.43-.07-.47-.47-.96-1.32-1.36-3.14-3.29-4.55-4.74-1.19-1.17-1.48-2.03-2.83-1.16-3.94,1.88-10.03,4.77-13.58,6.5l-.04.03Z"/>
      <path class="cls-25" d="M138.92,349.68c-9.22,15.64-17.13,32.03-23.58,49-6.42,16.89-11.37,34.36-14.63,52.14-1.82,9.92-3.11,19.93-3.85,29.99-.14,1.93,2.86,1.92,3,0,1.31-17.75,4.39-35.34,9.03-52.52,4.65-17.23,10.84-34.05,18.42-50.21,4.31-9.18,9.06-18.15,14.21-26.89.98-1.67-1.61-3.18-2.59-1.51h0Z"/>
      <path class="cls-25" d="M340.84,315.43c17.44,6.98,34.6,14.64,51.45,22.96,4.74,2.34,9.46,4.74,14.15,7.18,1.71.89,3.23-1.7,1.51-2.59-16.85-8.77-34.03-16.89-51.51-24.32-4.91-2.09-9.85-4.13-14.8-6.11-1.79-.72-2.57,2.18-.8,2.89h0Z"/>
      <path class="cls-25" d="M400.15,220.84c16.6,18.23,31.25,38.19,43.72,59.46s22.74,43.8,30.59,67.17c4.41,13.14,8.04,26.53,10.88,40.1.4,1.89,3.29,1.09,2.89-.8-5.11-24.38-12.81-48.19-22.86-70.99s-22.32-44.32-36.74-64.46c-8.14-11.37-16.95-22.27-26.36-32.61-1.3-1.43-3.42.7-2.12,2.12h0Z"/>
      <path class="cls-25" d="M190.83,308.31c15.01,9,30.84,16.58,47.25,22.66,1.81.67,2.59-2.23.8-2.89-16.17-6-31.75-13.5-46.54-22.36-1.66-.99-3.17,1.6-1.51,2.59h0Z"/>
      <path class="cls-25" d="M306.75,342.22c12.09,21.82,17.46,46.64,19.61,71.31,2.39,27.36.89,54.84.98,82.26.05,15.38.61,30.77,2.58,46.03.24,1.89,3.25,1.91,3,0-3.55-27.48-2.48-55.23-2.24-82.86.23-26.46-.43-53.19-6.54-79.06-3.22-13.63-8-26.93-14.8-39.2-.94-1.69-3.53-.18-2.59,1.51h0Z"/>
      <path class="cls-21" d="M249.91,382.53c5.9,7.27,7.58,16.78,7.59,25.91,0,4.73-.4,9.46-.97,14.16-.68,5.62-2.03,11.19-3.11,16.74-4.43,22.69-8.72,45.41-11.71,68.34-1.69,12.96-2.95,25.98-3.62,39.03-.1,1.93,2.9,1.92,3,0,1.21-23.56,4.39-46.95,8.42-70.18,2.01-11.6,4.23-23.16,6.48-34.72,1.12-5.73,2.55-11.5,3.31-17.29.62-4.75,1.1-9.52,1.2-14.31.21-10.57-1.62-21.39-8.45-29.8-1.22-1.5-3.33.63-2.12,2.12h0Z"/>
    </g>
    <g id="head">
      <path class="cls-3" d="M302.34,205.5c2.63,2.52,7.21,2.67,10.48,1.38,4.5-1.76,6.27-6.12,7.32-8.7,4.64-11.41-1.45-22.79-3.76-27.1-2.06-3.84-4.02-7.39-7.71-8.11-3.3-.64-7.21,1.11-9.3,3.96-3.67,4.99,1.01,9.58,1.38,23.93.22,8.4-1.25,11.92,1.58,14.64Z"/>
      <path class="cls-3" d="M145.72,195.7c-3.99,2.71-4.74,7.48-5.34,11.27-1.06,6.71.77,12.02,1.38,13.65.52,1.37,3.04,7.66,9.69,12.46,8.12,5.85,20.18,7.88,22.35,4.35,1.39-2.27-2.04-5.6-6.53-14.04-6.24-11.74-8.11-20.97-8.11-20.97-1.11-3.71-1.78-6.55-4.35-7.91-2.91-1.54-6.75-.41-9.1,1.19Z"/>
      <path class="cls-26" d="M304.55,181.49c1.03,2.63,3.45,7.75.19,9.76-3.82,2.37-.31,8.42,3.53,6.04,6.47-4,5.43-11.56,3.03-17.67-1.63-4.15-8.4-2.34-6.75,1.86h0Z"/>
      <path class="cls-26" d="M151.03,216.4c2.37,4.31,6.01,7.85,10.41,10.05,4.02,2.01,7.57-4.03,3.53-6.04-3.41-1.7-6.06-4.2-7.9-7.54-2.17-3.95-8.22-.42-6.04,3.53h0Z"/>
      <path class="cls-18" d="M151.32,206.35c-3.87,4.31-3.68,11.08-.36,15.66,3.65,5.04,10.09,7.09,16.11,6.98,1.93-.04,1.93-3.04,0-3-4.88.09-10.28-1.35-13.41-5.36-2.64-3.38-3.22-8.82-.22-12.16,1.29-1.43-.83-3.56-2.12-2.12h0Z"/>
      <path class="cls-18" d="M307.98,176.38c1.88,1.24,2.62,3.49,3.11,5.59.63,2.7,1.18,5.57,1.07,8.35-.09,2.28-.88,4.83-2.83,6.21-1.56,1.1-4.17,1.16-5.33-.57-1.07-1.59-3.67-.09-2.59,1.51,1.7,2.52,4.97,3.44,7.82,2.45,3.08-1.08,5.04-4.13,5.65-7.23.72-3.66-.03-7.59-.83-11.19-.67-3.03-1.89-5.94-4.56-7.7-1.62-1.07-3.12,1.53-1.51,2.59h0Z"/>
      <path class="cls-13" d="M174.25,238.62c8.93,19.67,9.89,21.96,9.89,21.96,1.47,3.49,1.85,4.52,2.97,6.13,3.96,5.71,9.77,8.12,15.82,10.29,11.78,4.21,17.67,6.32,26.51,7.52,17.61,2.39,29.49,4.01,42.73-2.18,17.02-7.95,24.89-23.47,27.49-29.67,3.39-8.07,4.2-15.41,4.75-20.37,1.15-10.46.07-17.61-.79-26.11-2.54-25.05.57-25.15-1.58-39.16-1.97-12.8-5.87-38.19-22.35-46.68-12.53-6.46-18.72,3.88-46.29,3.76-27.87-.12-34.51-10.73-51.23-4.95-18.16,6.29-26.69,24.48-27.69,26.7-12.67,28.06,4.53,62.17,10.88,74.77,1.72,3.4,4.75,8.85,8.9,18Z"/>
      <path class="cls-26" d="M165.09,190.35c2.67-12.3.26-27.42,8.07-38.11s22.59-8.83,33.7-6.71c12.85,2.46,25.39,5,37.84-.5,5.9-2.61,11.61-6.59,18.21-7.12,7.72-.62,15.1,3.11,21.82,6.43,4.03,1.99,7.58-4.05,3.53-6.04-6.39-3.15-12.97-6.35-20.13-7.19s-13.25,1.23-19.52,4.26c-7.74,3.74-14.3,6.6-23.13,6.09-8.15-.47-16.05-2.84-24.13-3.88-11.8-1.53-25.1-.28-33.08,9.62-9.44,11.69-6.94,27.55-9.93,41.31-.95,4.39,5.79,6.27,6.75,1.86h0Z"/>
      <path class="cls-26" d="M220.41,182.66c-2.35-3.66-6.94-4.52-10.77-2.69s-5.62,6.35-6.75,10.33c-1.24,4.34,5.51,6.19,6.75,1.86.51-1.8.98-4.08,2.41-5.42.38-.36,1.86-1.25,2.32-.54,2.42,3.78,8.49.27,6.04-3.53h0Z"/>
      <path class="cls-26" d="M277.91,174.62c-1.78-3.89-5.79-6.59-10.11-5.16s-6.24,5.84-7.27,10.03,5.68,6.24,6.75,1.86c.38-1.57.71-3.99,2.17-4.97,1.32-.87,1.92.7,2.41,1.77.79,1.72,3.27,2.14,4.79,1.26,1.77-1.03,2.05-3.06,1.26-4.79h0Z"/>
      <path class="cls-26" d="M170.69,224.84c4.44,9.14,8.89,18.29,13.33,27.43,3.23,6.65,5.97,15.03,12.31,19.41,6.71,4.64,16.32,6.19,24.14,7.93,9.71,2.15,19.56,3.54,29.47,4.32,4.49.35,4.47-6.65,0-7-9.29-.73-18.51-2.05-27.61-4.07-6.99-1.55-17.34-2.78-22.95-7.62s-7.98-13.75-10.98-19.93l-11.67-24c-1.97-4.05-8.01-.51-6.04,3.53h0Z"/>
      <path class="cls-26" d="M237.57,190.47c1.9,7.07,2.91,15.86,6.79,22.15,3.2,5.21,9.44,7.32,12.76,12.35,2.47,3.75,8.53.24,6.04-3.53-3.08-4.68-8-6.83-11.63-10.91-2.6-2.92-3.24-7.13-4.23-10.8l-2.99-11.12c-1.17-4.35-7.92-2.5-6.75,1.86h0Z"/>
      <path class="cls-18" d="M243.07,184.3c.61,4.88,1.14,9.78,1.85,14.65.32,2.19.91,4.24,2.09,6.13s2.64,3.61,4.03,5.33,2.98,3.5,4.76,4.97,3.66,2.59,5.05,4.34c.94,1.18,2.79,4,1.98,5.59-.67,1.31-2.91,1.52-4.18,1.64-1.91.18-1.92,3.18,0,3,2.68-.25,6.12-.96,7.1-3.88,1.09-3.27-1.54-7.38-3.78-9.56-1.41-1.36-3.08-2.4-4.56-3.69s-2.84-2.82-4.11-4.36c-1.2-1.47-2.43-2.95-3.47-4.54s-1.65-3.39-1.95-5.33c-.74-4.74-1.21-9.54-1.8-14.3-.24-1.89-3.24-1.91-3,0h0Z"/>
      <path class="cls-9" d="M304.56,186c3.6-.07,6.3-21.59,6.73-38.37.51-20.02.63-30.78-6.33-41.54-7.59-11.73-19.38-18.99-19.38-18.99-8.59-5.29-13.93-5.48-15.03-9.89-1.6-6.42,7.51-14.85,14.64-18.99,8.37-4.85,15.05-4.38,15.03-5.93-.02-2.39-15.8-5.25-31.65-4.35-9.2.52-18.93,1.19-28.88,7.12-7.98,4.76-6.38,7.11-14.64,12.66-9.73,6.54-19.37,8.27-33.63,10.68-16.6,2.8-15.52.32-24.13,2.77-4.01,1.14-22.29,6.35-32.44,23.34-6.29,10.52-6.51,20.63-6.73,30.07-.1,4.62-.03,17.75,7.91,39.16,8.97,24.19,23.4,46.6,26.9,45.1,2.56-1.09-3.29-13.86-3.16-38.37.07-13.73.21-21.11,5.14-28.88,6.12-9.63,17.22-16.12,28.09-17.01,7.95-.65,7.33,2.38,20.97,3.56,9.25.8,19.71,1.71,30.86-2.77,6.92-2.78,8.39-5.35,14.64-5.93,8.35-.78,14.91,2.95,16.62,3.96,6.13,3.59,9.76,8.76,13.85,16.62,11.22,21.55,11.68,36.06,14.64,36Z"/>
      <path class="cls-14" d="M220.4,170.3c.06-.76-.46-2.51-.99-3.76-.61-1.43-1.35-2.48-1.58-2.77-2.24-2.71-11.32.55-19.78,3.58-14.46,5.17-16.22,5.77-18.59,8.32-4.68,5.03-6.91,12.46-5.13,13.85,1.86,1.45,6.29-5.05,16.61-9.9,13.99-6.58,29.18-5.63,29.47-9.32Z"/>
      <path class="cls-14" d="M244.9,156.17c-.18.82.03,2.51.71,4.01,0,0,.55,1.2,1.43,2.14,2.8,2.98,16.77-3.08,30.12-3.38,10.25-.23,16.15,3.02,16.75,1.54.69-1.72-6.71-7.58-15.43-9.57-3.49-.8-8.21-.32-17.65.62-10.84,1.09-15.44,2.36-15.93,4.64Z"/>
      <path class="cls-22" d="M268.67,56.7c-14.2-2.66-25.95,5.65-35.88,14.83-5.49,5.08-10.83,10.51-17.53,14.02s-14.86,4.88-22.55,5.7c-13.24,1.42-27.78,1.78-39.21,9.53-9.62,6.52-15.85,17.8-13.14,29.48,1.02,4.39,7.77,2.53,6.75-1.86-2.93-12.64,8.37-22.48,19.25-26.02,11.61-3.78,24.04-3.32,35.97-5.44s21.52-7.69,30.49-15.88,20.09-20.21,34-17.61c4.4.82,6.29-5.92,1.86-6.75h0Z"/>
      <path class="cls-24" d="M280.52,101.08c11.93,10.9,17.69,26.53,15.89,42.57-.5,4.47,6.5,4.43,7,0,1.99-17.7-4.81-35.52-17.94-47.52-3.32-3.03-8.28,1.9-4.95,4.95h0Z"/>
      <path class="cls-15" d="M223.26,195.89c-.86-3.86-1.43-6.43-3.56-8.9-.6-.69-4.13-4.78-7.91-3.96-2.48.54-3.87,2.94-4.55,4.15-4.68,8.35.62,19.59,4.95,25.12,3.09,3.95,5.09,4.23,6.13,4.15,2.24-.16,3.75-2.22,4.15-2.77.4-.54,1.53-2.23,1.58-8.51.02-2.74.04-5.54-.79-9.3Z"/>
      <path class="cls-15" d="M280.65,185.79c-.86-3.86-1.43-6.43-3.56-8.9-.6-.69-4.13-4.78-7.91-3.96-2.48.54-3.87,2.94-4.55,4.15-4.68,8.35.62,19.59,4.95,25.12,3.09,3.95,5.09,4.23,6.13,4.15,2.24-.16,3.75-2.22,4.15-2.77.4-.54,1.53-2.23,1.58-8.51.02-2.74.04-5.54-.79-9.3Z"/>
      <path class="cls-8" d="M211.54,198.18c-1.96.74-2.32,3.02-2.37,3.36-.06.4-.33,2.12.79,3.36,1.26,1.39,3.87,1.7,5.54.2,1.64-1.47,1.6-3.99.4-5.54-.95-1.21-2.74-1.99-4.35-1.38Z"/>
      <path class="cls-8" d="M268.96,187.78c-1.96.74-2.32,3.02-2.37,3.36-.06.4-.33,2.12.79,3.36,1.26,1.39,3.87,1.7,5.54.2,1.64-1.47,1.6-3.99.4-5.54-.95-1.21-2.74-1.99-4.35-1.38Z"/>
      <path class="cls-23" d="M217.82,246.34c5.73,6.04,13.65,12.21,22.13,13.42s17.39-6.49,23.79-11.61c2.5-2,.3-5.91-2.47-5.97-12.08-.27-24.1-1.24-36.05-3.01l-1.86,6.75c5.06.69,8.33,5.82,12.88,7.9,3.97,1.81,9.77,3.14,13.97,1.3,3.04-1.34,4.9-4.92,2.49-7.8-2.9-3.46-9.98-3.81-14.04-3.56-4.47.28-4.51,7.28,0,7,3.32-.21,7.05-.02,9.8,2.06l-1.73-3.02v1.08c.35-.82.69-1.65,1.03-2.47-3.37,3.07-10.96-2.19-13.37-4.24-2.77-2.34-5.47-4.5-9.17-5-4.38-.59-6.33,6.09-1.86,6.75,12.57,1.86,25.2,2.97,37.91,3.26l-2.47-5.97c-5.13,4.1-12.92,11.15-19.84,9.18-6.23-1.78-11.82-6.39-16.18-10.99-3.11-3.27-8.05,1.68-4.95,4.95h0Z"/>
      <path class="cls-1" d="M220.45,246.59c13.08.33,26.13,1.1,39.16,2.29,4.48.41,4.46-6.59,0-7-13.03-1.19-26.08-1.96-39.16-2.29-4.51-.12-4.5,6.89,0,7h0Z"/>
      <path class="cls-11" d="M216.4,240.73c1.39-2.59,5.78-1.38,24.92-.4,16.22.84,23.92.53,24.53,3.16.24,1.04-1.82,2.94-5.93,6.73-4.11,3.78-6.16,5.67-9.49,7.52-3.13,1.73-6.15,3.4-10.29,3.56-5.24.2-9.16-2.14-11.47-3.56-6.87-4.22-14.42-12.98-12.26-17.01Z"/>
    </g>
  </g>
</svg>