<?xml version="1.0" encoding="UTF-8"?>
<svg id="mountains" xmlns="http://www.w3.org/2000/svg" viewBox="0 0 911 70.79">
  <defs>
    <style>
      .mountains-1 {
        fill: #e4d0b5;
        stroke-width: 3px;
      }

      .mountains-1, .mountains-2 {
        stroke: #e4d0b5;
        stroke-miterlimit: 10;
      }

      .mountains-2 {
        fill: none;
      }
    </style>
  </defs>
  <path class="mountains-1" d="M191.14,69.18l581.47-.31-14.03-7.83-6.97-4.3-5.8.15-6.65-1.94-6.73-5.37-3.24-2.82-5.02-.13-9.88-4.76-16.46-14.35-3.72-.96-24.63,16.73-6.51,3.33s-8.96.5-9.75.52c-.79.02-5.08-2.77-5.08-2.77l-8.1,2.85-5.06-1.72-7.43-1.65-8.97-.03-11.76-5.76-9.4-6.62-8.44.22-7.48-3.5-6.22-5.91-6.07-.11-9.63-5.29-10.81-10.01-8.57-5.06-10.89,7.4-12.95,9.3-9.94,3.16-8.97-.03-4.81-2.25-9.66,3.94-6.97,5.98-8,6.8-7.29,3.62-5.75,2-4.77-.67-11.43-3.4-11.85-9.46-11.01-7.63-15.31,9.89-9.06,6.83-9.14,3.67-7.39-.07-6.12-1.95-9.69,2.89-9.02,8.41-13.24,8.26-9.71,1.83-11.33.56-2.93-.98-2.83,2.71-10.77-8.43-2.89.6-8.99-.82-6.44-4.05-4.61-4.89-5.02-.4-5.85-1.96-4.83-3.04-7.58-7.46-11.84-8.93-2.06,1.9-14.78,10.14-9.61,6.05-3.64,1.94-4.72,1.18-4.48.12-4.24-.68-3.21-1.76-2.6,1.65-4.48.38-2.38-.2-3.2-1.24-4.85-4.1-3.53-3.87-2.11.05-6.1-1.16-7.73-3.23-2.71-2.83-9.18-7.94-8.33-5.85-5.45,3.57-8.03,5.75-7.52,4.94-6.23,4.12-6,2.79-5.01.13-5.29-.65-3.48-1.76-2.61,1.12-6.02,1.74-5.46,3.04-5.66,5.69-5.42,4.62-8.84,4.86-8.95.73-10.55.27-2.9.07-4.15,2.63-3.12,1.66-5.8.15-5.31-1.18-3.24-2.7-2.33,1.79-8.47,5.55c.12,2.16.13,4.32.09,6.47,12.54-.24,25.08-.58,37.61-.31,7.8.17,15.59.29,23.39.39l82.84-.04c15.23-.66,30.48-1.19,45.67-.02Z"/>
  <polygon class="mountains-1" points="782.53 68.86 772.61 68.87 773.04 69.11 782.53 68.86"/>
  <path class="mountains-1" d="M909.5,61.57c-.38-6.75-.66-13.51-.64-20.27l-1.17.41-4.77-.67-11.43-3.4-11.85-9.46-11.01-7.63-15.31,9.89-9.06,6.83-9.14,3.67-7.39-.07-6.12-1.95-9.69,2.89-9.02,8.41-13.24,8.26-9.71,1.83-11.33.56-2.93-.98-2.83,2.71-10.77-8.43-2.89.6-8.99-.82-6.44-4.05-4.61-4.89-5.02-.4-5.85-1.96-4.83-3.04-7.58-7.46-11.84-8.93-2.06,1.9-14.78,10.14-9.61,6.05-3.64,1.94-4.72,1.18-4.48.12-4.24-.68-3.21-1.76-2.6,1.65-4.48.38-2.38-.2-3.2-1.24-4.85-4.1-3.53-3.87-2.11.05-6.1-1.16-7.73-3.23-2.71-2.83-9.18-7.94-8.33-5.85-5.45,3.57-8.03,5.75-7.52,4.94-6.23,4.12-6,2.79-5.01.13-5.29-.65-3.48-1.76-2.61,1.12-6.02,1.74-5.46,3.04-5.66,5.69-5.42,4.62-8.84,4.86-8.95.73-10.55.27-2.9.07-4.15,2.63-3.12,1.66-5.8.15-5.31-1.18-3.24-2.7-2.33,1.79-10.9,7.14-9.72,5,467.01-.25c.15-2.49.27-4.98.35-7.47Z"/>
  <rect class="mountains-2" x="861.1" y="39.55" width="49.89" height="31.25"/>
  <path class="mountains-1" d="M186.08,66.92l-3.24-2.82-5.02-.13-9.88-4.76-16.46-14.35-3.72-.96-24.63,16.73-6.51,3.33s-8.96.5-9.75.52c-.79.02-5.08-2.77-5.08-2.77l-8.11,2.85-5.06-1.72-7.43-1.65-8.97-.03-11.76-5.76-9.4-6.62-8.44.22-7.48-3.5-6.22-5.91-6.07-.11-9.63-5.29L2.41,24.18l-.1-.06c.12,2.48-.01,4.96-.24,7.45.31,12.91.82,25.81.07,38.71,0,.04,0,.08-.01.12,13.35-.23,26.7-.63,40.05-.35,17.96.38,35.93.55,53.89.74,11.35.12,22.7.41,34.05.66.53-.21,1.12-.35,1.79-.37,19.37-.68,38.81-2.1,58.16-.98l-3.99-3.18Z"/>
  <rect class="mountains-1" x="-.81" y="22.92" width=".18" height="46.28"/>
  <rect class="mountains-1" x="-.81" y="60.64" width="908.6" height="10.15"/>
</svg>