<?xml version="1.0" encoding="UTF-8"?><svg xmlns="http://www.w3.org/2000/svg" viewBox="0 0 67.08 65.72"><defs><style>.cls-1{fill:#fff;stroke:#000;stroke-miterlimit:10;}</style></defs><g id="Layer_1"><path class="cls-1" d="M40.54,1.1C22.17-2.61,1.56,11.23,.54,31.1c-.99,19.26,16.85,35.68,36,34,16.9-1.48,30.85-16.72,30-34-.73-14.96-12.35-27.24-26-30Z"/><path class="cls-1" d="M23.54,16.1c-2.09-.3-4.7,3.48-5,7-.25,2.97,1.06,6.72,3,7,2.09,.3,4.7-3.48,5-7,.25-2.97-1.06-6.72-3-7Z"/><path class="cls-1" d="M42.54,16.1c-2.18-.27-5.04,4.02-5,8,.03,2.39,1.11,5.7,3,6,2.06,.33,4.45-3,5-6,.64-3.48-.96-7.74-3-8Z"/><path class="cls-1" d="M13.54,41.1c.45,.7,6.62,9.9,18,10,7.8,.07,15.08-4.15,19-11"/></g><g id="eyeballs"><line class="cls-1" x1="22.54" y1="23.1" x2="22.54" y2="24.73"/><line class="cls-1" x1="41.61" y1="23.11" x2="41.61" y2="24.73"/></g></svg>