<?xml version="1.0" encoding="UTF-8"?>
<svg id="mountains" xmlns="http://www.w3.org/2000/svg" viewBox="0 0 464.54 130.53">
  <defs>
    <style>
      .cls-1 {
        fill: #fff;
      }

      .cls-2 {
        fill: #2e4261;
      }
    </style>
  </defs>
  <g>
    <path class="cls-1" d="M8.05,0C3.96-.05.23,3.17,0,7.35c-.23,4.44,3.61,8.24,8.04,8.18,4.56-.07,8.25-4.19,7.79-8.6C15.44,3.05,11.95.05,8.05,0Z"/>
    <rect class="cls-1" x="6.1" y="15.29" width="3.8" height="42.43"/>
    <path class="cls-1" d="M8.11,57.1c-4.1-.05-7.83,3.17-8.04,7.34-.23,4.44,3.61,8.24,8.04,8.18,4.56-.07,8.25-4.19,7.79-8.6-.4-3.87-3.89-6.87-7.79-6.92Z"/>
    <path class="cls-2" d="M8.02,1.89c-3.06-.04-5.84,2.4-6,5.56-.17,3.36,2.69,6.23,6,6.18,3.4-.05,6.15-3.17,5.81-6.51-.3-2.93-2.9-5.2-5.81-5.23Z"/>
    <path class="cls-2" d="M8.08,58.99c-3.06-.04-5.84,2.4-6,5.56-.17,3.36,2.69,6.23,6,6.18,3.4-.05,6.15-3.17,5.81-6.51-.3-2.93-2.9-5.2-5.81-5.23Z"/>
  </g>
  <g>
    <path class="cls-1" d="M120.44,57.72c-4.1-.05-7.83,3.17-8.04,7.34-.23,4.44,3.61,8.24,8.04,8.18,4.56-.07,8.25-4.19,7.79-8.6-.4-3.87-3.89-6.87-7.79-6.92Z"/>
    <rect class="cls-1" x="118.49" y="73.01" width="3.8" height="42.43"/>
    <path class="cls-1" d="M120.5,114.82c-4.1-.05-7.83,3.17-8.04,7.34-.23,4.44,3.61,8.24,8.04,8.18,4.56-.07,8.25-4.19,7.79-8.6-.4-3.87-3.89-6.87-7.79-6.92Z"/>
  </g>
  <g>
    <path class="cls-1" d="M232.21.62c-4.1-.05-7.83,3.17-8.04,7.34-.23,4.44,3.61,8.24,8.04,8.18,4.56-.07,8.25-4.19,7.79-8.6-.4-3.87-3.89-6.87-7.79-6.92Z"/>
    <rect class="cls-1" x="230.26" y="15.91" width="3.8" height="42.43"/>
    <path class="cls-1" d="M232.27,57.72c-4.1-.05-7.83,3.17-8.04,7.34-.23,4.44,3.61,8.24,8.04,8.18,4.56-.07,8.25-4.19,7.79-8.6-.4-3.87-3.89-6.87-7.79-6.92Z"/>
  </g>
  <rect class="cls-1" x="14.12" y="62.99" width="440.7" height="4.48"/>
  <g>
    <path class="cls-1" d="M344.56,57.91c-4.1-.05-7.83,3.17-8.04,7.34-.23,4.44,3.61,8.24,8.04,8.18,4.56-.07,8.25-4.19,7.79-8.6-.4-3.87-3.89-6.87-7.79-6.92Z"/>
    <rect class="cls-1" x="342.61" y="73.2" width="3.8" height="42.43"/>
    <path class="cls-1" d="M344.62,115.01c-4.1-.05-7.83,3.17-8.04,7.34-.23,4.44,3.61,8.24,8.04,8.18,4.56-.07,8.25-4.19,7.79-8.6-.4-3.87-3.89-6.87-7.79-6.92Z"/>
  </g>
  <g>
    <path class="cls-1" d="M120.47,57.91c-4.1-.05-7.83,3.17-8.04,7.34-.23,4.44,3.61,8.24,8.04,8.18,4.56-.07,8.25-4.19,7.79-8.6-.4-3.87-3.89-6.87-7.79-6.92Z"/>
    <rect class="cls-1" x="118.52" y="73.2" width="3.8" height="42.43"/>
    <path class="cls-1" d="M120.53,115.01c-4.1-.05-7.83,3.17-8.04,7.34-.23,4.44,3.61,8.24,8.04,8.18,4.56-.07,8.25-4.19,7.79-8.6-.4-3.87-3.89-6.87-7.79-6.92Z"/>
    <path class="cls-2" d="M120.45,59.8c-3.06-.04-5.84,2.4-6,5.56-.17,3.36,2.69,6.23,6,6.18,3.4-.05,6.15-3.17,5.81-6.51-.3-2.93-2.9-5.2-5.81-5.23Z"/>
    <path class="cls-2" d="M120.51,116.9c-3.06-.04-5.84,2.4-6,5.56-.17,3.36,2.69,6.23,6,6.18,3.4-.05,6.15-3.17,5.81-6.51-.3-2.93-2.9-5.2-5.81-5.23Z"/>
  </g>
  <g>
    <path class="cls-1" d="M232.18.81c-4.1-.05-7.83,3.17-8.04,7.34-.23,4.44,3.61,8.24,8.04,8.18,4.56-.07,8.25-4.19,7.79-8.6-.4-3.87-3.89-6.87-7.79-6.92Z"/>
    <rect class="cls-1" x="230.23" y="16.1" width="3.8" height="42.43"/>
    <path class="cls-1" d="M232.24,57.91c-4.1-.05-7.83,3.17-8.04,7.34-.23,4.44,3.61,8.24,8.04,8.18,4.56-.07,8.25-4.19,7.79-8.6-.4-3.87-3.89-6.87-7.79-6.92Z"/>
    <path class="cls-2" d="M232.15,2.7c-3.06-.04-5.84,2.4-6,5.56-.17,3.36,2.69,6.23,6,6.18,3.4-.05,6.15-3.17,5.81-6.51-.3-2.93-2.9-5.2-5.81-5.23Z"/>
    <path class="cls-2" d="M232.21,59.8c-3.06-.04-5.84,2.4-6,5.56-.17,3.36,2.69,6.23,6,6.18,3.4-.05,6.15-3.17,5.81-6.51-.3-2.93-2.9-5.2-5.81-5.23Z"/>
  </g>
  <g>
    <path class="cls-1" d="M344.53,58.11c-4.1-.05-7.83,3.17-8.04,7.34-.23,4.44,3.61,8.24,8.04,8.18,4.56-.07,8.25-4.19,7.79-8.6-.4-3.87-3.89-6.87-7.79-6.92Z"/>
    <rect class="cls-1" x="342.58" y="73.4" width="3.8" height="42.43"/>
    <path class="cls-1" d="M344.59,115.21c-4.1-.05-7.83,3.17-8.04,7.34-.23,4.44,3.61,8.24,8.04,8.18,4.56-.07,8.25-4.19,7.79-8.6-.4-3.87-3.89-6.87-7.79-6.92Z"/>
    <path class="cls-2" d="M344.51,60c-3.06-.04-5.84,2.4-6,5.56-.17,3.36,2.69,6.23,6,6.18,3.4-.05,6.15-3.17,5.81-6.51-.3-2.93-2.9-5.2-5.81-5.23Z"/>
    <path class="cls-2" d="M344.57,117.09c-3.06-.04-5.84,2.4-6,5.56-.17,3.36,2.69,6.23,6,6.18,3.4-.05,6.15-3.17,5.81-6.51-.3-2.93-2.9-5.2-5.81-5.23Z"/>
  </g>
  <g>
    <path class="cls-1" d="M454.91,0c-4.1-.05-7.83,3.17-8.04,7.34-.23,4.44,3.61,8.24,8.04,8.18,4.56-.07,8.25-4.19,7.79-8.6-.4-3.87-3.89-6.87-7.79-6.92Z"/>
    <rect class="cls-1" x="452.95" y="15.29" width="3.8" height="42.43"/>
    <path class="cls-1" d="M454.97,57.1c-4.1-.05-7.83,3.17-8.04,7.34-.23,4.44,3.61,8.24,8.04,8.18,4.56-.07,8.25-4.19,7.79-8.6-.4-3.87-3.89-6.87-7.79-6.92Z"/>
    <path class="cls-2" d="M454.88,1.89c-3.06-.04-5.84,2.4-6,5.56-.17,3.36,2.69,6.23,6,6.18,3.4-.05,6.15-3.17,5.81-6.51-.3-2.93-2.9-5.2-5.81-5.23Z"/>
    <path class="cls-2" d="M454.94,58.99c-3.06-.04-5.84,2.4-6,5.56-.17,3.36,2.69,6.23,6,6.18,3.4-.05,6.15-3.17,5.81-6.51-.3-2.93-2.9-5.2-5.81-5.23Z"/>
  </g>
  <rect class="cls-2" x="9.9" y="64.73" width="449.69" height="1.01"/>
</svg>