<?xml version="1.0" encoding="UTF-8"?>
<svg id="trees" xmlns="http://www.w3.org/2000/svg" viewBox="0 0 1272.01 208.25">
  <defs>
    <style>
      .cls-1 {
        fill: #2e4261;
        stroke-width: 0px;
      }
    </style>
  </defs>
  <path class="cls-1" d="M208.33,66.54c-1.09-.62-3.13-1.26-3.12-1.87.05-2.42.62-4.84,1.2-7.22.77-3.19,1.74-6.33,2.6-9.49.09-.31-.08-.79.09-.98,6.53-6.84,2.11-15.52,3.94-23.14.15-.64.34-1.27.55-1.88.04-.11.26-.17,1.39-.83.98,1.78,2.73,3.54,2.84,5.4.59,10.1,3.37,19.1,11.31,25.92-.29,6.45,7.49,11.14,4.1,18.38-3.07-1.52-6.07-3-9.08-4.48-.36.49-.71.98-1.07,1.47,2.92,3.35,5.85,6.7,8.59,9.84.33-1.02.85-2.6,1.82-5.54,1.58,2.35,3.1,3.57,3.15,4.85.25,6.01,3.42,10.49,6.76,15.09,3.92,5.41,3.52,6.19-3.84,8.04,1.31,2.06,2.58,3.78,3.56,5.65,2.37,4.56,4.64,9.17,6.89,13.8.56,1.16,1.06,2.4,1.29,3.66.21,1.19.27,2.53-.05,3.68-.36,1.3-1.21,2.46-1.85,3.68,1.95,0,4.08.51,5.79-.13,1.88-.7,3.37-2.45,5.68-4.26-5.3-1.43-6.15-3.09-2.69-7.1,4.48-5.18,8.21-11.08,11.71-17.01,1.39-2.36,1.27-5.6,1.97-9.15,6.07,3.5.71,8.46,2.89,12.95.89-2.43,1.79-4.2,2.16-6.08.38-1.9.24-3.91,1.48-6.52.84.97,2.35,1.9,2.43,2.93.58,7.66.56,15.37,1.43,22.99.29,2.56,2.59,4.89,4.39,8.07,1.94-2.93,3.27-4.93,5.21-7.86-3.09,1.33-4.95,2.13-6.81,2.93l-1.17-.98c1.25-2.49,2.71-4.89,3.7-7.48,1.7-4.45,3.1-9.02,4.63-13.54.11-.31.45-.7.35-.9-3.96-8.18,1.34-15.23,2.65-22.77.35-2.02-.18-4.17-.16-6.27.02-2.24.21-4.47.33-6.7.61-.17,1.22-.34,1.83-.51.59,1.48,1.66,2.94,1.7,4.43.19,6.84,2.72,12.77,5.93,18.68,1.92,3.52,2.89,7.66,3.66,11.64.24,1.22-1.58,2.85-2.71,4.69.51,2.93,1.15,6.58,1.79,10.25,1.72-2.19,3.38-4.3,5.03-6.41.69,1,1.38,2.01,2.44,3.55,2.64-6.43,5.2-12.66,7.92-19.28,4.55,8.85,8.67,16.87,12.88,25.07,5.38-3.04,10.78-6.1,16.69-9.44-3.84-2.22-8.91,2.82-10.66-1.51,6.86-7.95,13.23-15.35,19.61-22.75-.46-.67-.91-1.34-1.37-2-1.5.61-3,1.23-4.51,1.84-1.56.63-3.13,1.25-4.69,1.88.1-1.67-.07-3.41.35-4.99.75-2.81,2.13-5.46,2.78-8.28,1.25-5.42,2.46-10.73,8.91-12.84l-1.14-1.74c-1.8.71-3.59,1.45-5.41,2.1-1.03.37-2.66,1.12-3.05.72-.77-.76-1.51-2.56-1.11-3.31,2.33-4.36,4.69-8.76,7.61-12.73,4.22-5.74,8.36-11.42,9.13-18.77.22-2.15-.1-4.94,3.09-4.34.9.17,2.05,3.24,1.76,4.73-.99,5.08-1.57,9.68,2.83,13.75,1.2,1.11.96,3.75,1.45,5.66.29,1.12.39,2.83,1.13,3.21,6.87,3.54,5.32,10.45,6.84,16.15.34,1.27,1.61,2.28,3.11,4.31.67-3.2,1.06-5.05,1.63-7.76,5.7,4.28,1.57,10.05,3.64,14.19q3.01-2.14,6.5-20.73c1.44,2.15,2.75,3.25,2.89,4.49.44,3.8.64,7.45,3.99,10.24.98.82,1.28,3.11,1.06,4.6-.61,4.15,1.69,6.34,4.61,8.54,1.67,1.26,2.91,3.09,4.35,4.66-1.72,1.24-3.44,2.49-5.75,4.16.57.59,1.44,2.16,2.14,2.08,5.65-.59,6.4,4.23,8.71,7.4.85,1.17,2.26,1.94,3.41,2.89.89-1.15,2.05-2.18,2.62-3.47,3.57-8.04,7-16.14,10.8-24.94,3.56,7.73,6.86,14.91,10.16,22.08.49-.12.97-.24,1.46-.36,4.4-11.15,8.99-22.25,8.09-34.99,6.63,5.54,3.15,15.18,9.67,20.65,1.62-3.09,3.26-6.23,4.35-8.32-.24-2.96-.96-5.14-.45-6.99,1.08-3.93,2.96-7.64,4.18-11.54.5-1.62.1-3.51.18-5.27.08-1.85.25-3.7.49-7.11,2.02,2.17,3.8,3.21,3.73,4.13-.59,8.34,6.53,13.15,8.8,20.09.72,2.19.05,4.8.32,7.19.45,3.96,1.11,7.91,1.75,11.85.29,1.79.75,3.55,1.14,5.32l-1.47.52c-1.35-.93-2.71-1.85-4.06-2.78-.35.3-.69.6-1.04.9,2.18,3.02,4.37,6.04,6.85,9.48,2.33-1.84,4.49-3.55,7.33-5.79-2.39-.99-4.08-1.69-6.33-2.61,1.54-2.65,2.81-5.41,4.6-7.78,2.6-3.45,3.43-7.95,8.5-10.06,2.32-.97,2.68-6.62,3.96-10.14.57-1.56,1.24-3.07,1.87-4.61.7,1.62,1.9,3.2,2.03,4.87.54,7.19.34,14.46,1.33,21.58.41,2.92,3.26,5.45,4.8,8.27.9,1.64,1.42,3.48,2.11,5.23-2,.63-4,1.27-7.1,2.24,3.29,4.52,10.2,7.89,8.68,15.59.47,0,.94,0,1.41.01,1.66-4.5,3.31-8.99,4.97-13.48.17-.46.25-1.14.59-1.32,7.05-3.9,7.17-10.71,7.45-17.48.02-.43.37-.85,1.36-2.95,1.13,3.12,2.14,4.93,2.4,6.84.86,6.33.71,12.91,2.45,18.96.9,3.13,4.86,5.46,7.71,7.82.35.29,2.85-1.18,3.51-2.33.96-1.65,1.15-3.75,1.76-6-4.18-.25-5.2-2.42-3.55-6.22,2.35-5.4,4.35-10.95,6.87-16.27,3.91-8.25,8.12-16.36,12.42-24.96-4.21-.23-4.96-1.83-3.31-5.24,2.08-4.29,4.01-8.73,5.25-13.31.6-2.21-.93-4.91-.77-7.34.17-2.58,1.35-5.07,1.8-7.65.77-4.36,1.3-8.76,1.96-13.14.14-.93.41-1.84.63-2.76.75-.63,1.5-1.25,2.25-1.88.31,1.27.94,2.55.88,3.8-.39,8.42,5.09,14.83,7.5,22.29.93,2.87,1.5,5.47-1.81,7.12.71,2.88,1.39,5.66,2.1,8.54,1.31-1.57,2.52-3.02,4.05-4.86,3.01,9.47,5.72,18.02,8.52,26.84-2.21.46-3.8.79-6.42,1.34.82,1.89,1.16,3.85,2.28,5.07,5.59,6.06,4.8,13.86,5.65,21.08.21,1.8-2.8,3.9-2.38,6.64.12.8-.16,1.81.24,2.38,2.86,4.11,5.84,8.14,9.18,12.74,1.28-2.88,2.24-5.05,3.31-7.48,1.72.65,3.02,1.14,4.54,1.71.7-1.74,1.44-3.23,1.9-4.79.79-2.69,1.1-5.15,5.25-3.2,1.1.52,3.97-2.74,6.03-4.26-.14-.54-.29-1.07-.43-1.61-2.17.17-4.39.67-6.51.42-1.57-.19-3.44-1.03-4.35-2.22-.45-.58.64-2.97,1.63-3.91,4.43-4.18,9.08-8.12,14.34-12.76-2.76-.4-4.33-.63-7.08-1.02,1.36-2.45,2.33-4.34,3.43-6.15,2.56-4.2,4.19-8.67,8.42-12.2,3.1-2.59,3.34-8.6,5.24-14.21.64,2.01,1.32,3.39,1.49,4.84.78,6.68,1.06,13.43,2.3,20.02.46,2.44,3.18,4.4,4.64,6.72,1.3,2.07,2.3,4.35,3.88,7.42,1.03-5.44,2.06-10.83,3.16-16.66,4.69.95,2.49,4.85,3.05,7.4.7,3.2,1.24,6.44,1.86,9.67.58,3.04,1.17,6.07,1.83,9.49,3.3-1.52,4.34.17,5.52,3.37,1.72,4.65,4.41,8.98,6.95,13.28,2.07,3.51,4.62,6.77,2.2,9.32,2.73,8,5.11,14.95,7.49,21.91.39.13.77.26,1.16.39,3.4-12.57,6.8-25.14,10.33-38.18-4.45.36-5.01-2.26-4.01-5.26,2.18-6.53,4.71-12.95,7.08-19.42.98-2.66,1.92-5.34,2.88-8,.5-.04.99-.08,1.49-.11,1.15,3.07,2.3,6.15,3.88,10.37,2.03-3.32,3.67-5.99,5.63-9.23.86-2.34,1.4-4.12,1.93-5.91-.4-.11-.81-.22-1.21-.33-.56,1.78-1.11,3.56-1.67,5.33-1.09-.62-3.13-1.26-3.12-1.86.04-2.41.62-4.84,1.19-7.22.77-3.18,1.74-6.32,2.6-9.49.09-.31-.08-.79.09-.98,6.52-6.83,2.12-15.52,3.94-23.14.18-.75.41-1.49,1.98-2.74.98,1.96,2.69,3.87,2.83,5.89.68,9.91,3.49,18.73,11.26,25.43-.24,6.45,7.47,11.14,4.13,18.41-3.06-1.52-6.06-3.01-9.05-4.5-.37.49-.73.98-1.1,1.47,2.92,3.34,5.83,6.69,8.57,9.83.33-.99.86-2.57,1.84-5.46,1.56,2.28,3.1,3.5,3.14,4.76.2,6.22,3.66,10.76,7.05,15.49,3.6,5.02,3.14,5.88-3.95,7.62,1.08,1.92,1.77,3.88,3.05,5.3,3.84,4.22,7.11,8.55,7.34,14.65.11,3.02,4.13,6.4-1.16,8.67.58.72,1.06,1.95,1.76,2.09,4.07.81,7.14-.77,9.38-4.79-4.35-1.15-5.62-2.7-1.98-6.83,4.53-5.13,8.24-11.06,11.73-16.98,1.39-2.36,1.26-5.62,1.97-9.18,6.15,3.41.73,8.38,3.23,13.46,1.13-5.09,1.98-8.92,2.83-12.74.45-.16.9-.32,1.35-.49.83,2.22,1.65,4.44,2.54,6.82.16-.17.77-.52.91-1,2.35-8.29,11.64-13.83,9.52-23.92-.07-.35.99-.93,2.01-1.13.83.24,1.18.21,1.52.18-.21-.33-.43-.66-.64-.99v-9.33c.57-.21,1.14-.42,1.71-.63.72,1.23,2.03,2.43,2.07,3.68.21,7.33,2.25,13.95,6.57,19.92.79,1.09.77,2.76,1.48,5.62,3.74-8.75,6.97-16.28,10.19-23.82.19-.45.2-1.17.53-1.36,6.47-3.83,5-11.81,9.41-17.21-1.5-.17-2.53-.29-4.43-.51,1.85-5.22,3.57-10.26,5.43-15.25.77-2.08,1.45-3.62.48-6.27-.92-2.49.92-5.96,1.43-9.01,1.01-5.98,1.94-11.98,3.06-18.88,1.1,1.01,2.44,1.65,2.78,2.64,2.55,7.23,5.11,14.47,7.17,21.85.57,2.05-.79,4.57-.81,6.88-.02,2.31.54,4.62.85,6.94.08.65.15,1.29.31,2.69,1.49-2,2.6-3.49,3.71-4.98.51.06,1.01.12,1.52.17,1.04,5.24,2.07,10.48,3.21,16.21,1.48-.76,2.27-.9,2.56-1.36,4.49-7.07,9.07-14.08,13.24-21.34,1.16-2.01.8-4.84,1.61-7.13.44-1.25,1.87-2.16,2.86-3.22.66,1.13,1.67,2.19,1.88,3.4.24,1.41-.08,2.97-.41,4.41-.79,3.4-.85,6.44,2.02,9.16,1.22,1.15,2.05,3.13,2.27,4.83.53,4.14,1.51,7.66,5.8,9.59.88.4,1.18,2.53,1.38,3.92.45,3.07.68,6.18,1.65,9.46,4.74-7.74,14.23-12.48,12.24-24.02.71.19,1.41.38,2.12.57,1.04,6.57,1.37,13.35,3.31,19.64,1.88,6.09,5.41,11.67,8.63,18.34.99-5.4,1.95-10.6,3.11-16.94,1.24,1.48,2.64,2.38,2.83,3.48,1.28,7.75,2.3,15.55,3.48,23.86,6.43-3.06,4.86,3.54,7.8,6.81,3.36-7.63,6.39-14.5,9.68-21.99,3.51,7.59,6.83,14.75,10.14,21.91,5.29-11.65,10.66-22.56,9.3-35.3,6.34,3.57,5.27,10.3,8.6,15.9,1.24-3.78,7.15-5.41,1.73-10.46-1.24-1.15.04-5.31.59-8,.73-3.52,1.08-7.53,3.03-10.31,4.69-6.7,3.35-14.02,3.63-21.25.06-1.59.43-3.17.66-4.76.49-.19.98-.39,1.47-.58,1,1.93,2.75,3.81,2.88,5.8.65,9.92,3.46,18.74,11.19,25.49-.21,6.47,7.52,11.12,3.93,19.1-1.6-1.26-2.97-2.34-4.35-3.43-.36.11-.72.22-1.08.33,1.12,3.34,2.24,6.68,3.62,10.79.84-2.54,1.36-4.12,2.29-6.97,1.87,2.59,3.03,4.2,4.02,5.57.75-.73,1.59-2.09,2.81-2.67,5.63-2.7,7.34-7.5,7.8-13.23.11-1.44,1.12-2.8,1.72-4.2.73,1.43,2,2.81,2.11,4.28.54,7.36.31,14.8,1.34,22.08.43,3.07,3.37,5.76,5.01,8.71.83,1.5,1.31,3.2,1.94,4.8-1.91.37-3.82.74-5.72,1.12-.3.06-.59.2-1.82.64,3.27,3.68,6.34,7.13,9.75,10.97,8.45-1.7,6.91-10.36,9.37-16.55q1.57.47,3.65,11.63c.79-3.87,1.58-7.75,2.37-11.62.36-.19.73-.38,1.09-.57.7,1.26,1.91,2.48,2,3.79.54,7.49.52,15.04,1.35,22.49.27,2.43,2.55,4.63,4.33,7.63,1.94-2.7,3.34-4.65,5.58-7.77-3.36,1.36-5.3,2.15-8.57,3.47,2.08-5.27,3.64-9.12,5.12-13.01,1.17-3.07,2.26-6.18,3.38-9.27.16-.45.58-1.05.43-1.35-3.84-7.66,1.09-14.27,2.4-21.33.43-2.34.12-4.81.13-7.22.01-2.27,0-4.54,0-6.81.67-.21,1.33-.41,2-.62.65,1.4,1.81,2.78,1.86,4.2.24,6.99,2.61,13.1,6.15,19.09,1.95,3.29,2.82,7.38,3.44,11.23.22,1.38-1.72,3.11-2.7,4.72.55,3.25,1.15,6.79,1.91,11.29.92-1.81,1.42-3.03,2.14-4.11.75-1.13,1.71-2.12,2.59-3.17.81,1.02,1.61,2.03,2.74,3.45,2.64-6.42,5.19-12.6,7.82-18.99,4.57,8.79,8.68,16.67,12.96,24.89,5.26-2.95,10.69-5.98,16.51-9.24-3.5-2.71-9.09,2.88-11.14-3.28,9.35-5.04,13.89-13.96,19.77-21.75-.4-.53-.79-1.05-1.19-1.58-1.59.87-3.12,1.89-4.79,2.58-1.37.57-2.91.76-4.37,1.12.08-1.39-.09-2.85.29-4.15.96-3.27,2.5-6.39,3.2-9.7,1.11-5.26,2.95-9.82,8.39-12.09-.14-.46-.28-.93-.42-1.39-1.78.42-3.58.79-5.35,1.27-1.31.35-2.58.84-3.87,1.26-.13-1.54-.92-3.45-.29-4.54,2.8-4.86,5.79-9.65,9.11-14.17,3.87-5.27,6.96-10.69,7.39-17.42.07-1.15,1.8-2.19,2.76-3.28.68,1.1,1.83,2.16,1.94,3.32.16,1.76-.8,3.62-.59,5.36.32,2.64,1.08,5.25,1.94,7.78.68,1.99,2.27,3.77,2.58,5.77.61,3.97,1.78,7.04,5.64,9.21,1.29.73,1.19,4.11,1.55,6.3.54,3.37-.18,7.26,4.3,9.59.51-2.39.9-4.23,1.59-7.45,5.32,4.71,1.8,10.29,4.11,16.26,2-4.11,4.11-7.07,4.85-10.33.76-3.35.17-7.01.17-10.53.63-.19,1.26-.38,1.9-.56.69,1.28,1.5,2.52,2.06,3.85,1.35,3.2,2.65,6.42,3.85,9.68.55,1.5,1.3,3.18,1.1,4.66-.54,4.06,1.44,6.44,4.47,8.61,1.71,1.23,3.01,3.04,4.5,4.59-1.66,1.29-3.31,2.59-5.58,4.36.37.44,1.18,2.1,1.79,2.03,5.65-.69,6.45,4.15,8.84,7.26.97,1.25,2.5,2.07,3.78,3.08.8-1.26,1.78-2.45,2.36-3.81,3.28-7.7,6.45-15.44,9.7-23.14.15-.36.78-.51,1.27-.8,3.36,7.23,6.7,14.42,10.04,21.62,5.92-11.68,10.19-22.85,9.42-35.51,6.51,5.52,3.18,15.08,9.64,20.49,1.66-3.05,3.43-6.28,5.19-9.51h-1.07c-.1-1.86-.7-3.86-.21-5.55,1.13-3.92,2.93-7.65,4.15-11.55.51-1.63.26-3.51.3-5.27.04-1.85,0-3.71,0-5.56.65-.19,1.3-.39,1.95-.58.84,1.62,1.78,3.21,2.51,4.88,1.69,3.86,3.28,7.77,4.93,11.64,2.04,4.78,7.4,8.36,3.58,15.14-1.32,2.34,1.19,6.85,1.97,10.36.4,1.8.87,3.59,1.31,5.38-.48.18-.96.37-1.44.55-1.37-.92-2.75-1.84-4.12-2.77-.39.32-.77.65-1.16.97,2.32,3.03,4.66,6.04,6.95,9.09.72.95,1.91,1.98,1.91,2.98.1,31.66.06,63.33.1,94.99,0,2.7-.93,4.05-3.76,3.9-1.83-.1-3.67,0-5.5,0-246.65,0-493.31,0-739.96,0h-8.41c.56-2.23.97-3.89,1.74-6.94-1.98,1.59-2.96,2.46-4.03,3.21-1.75,1.23-3.55,2.38-5.33,3.57-.91-1.62-1.89-3.21-2.71-4.87-.35-.7-.38-1.56-.7-3.02H2.1c.76-2.34,1.25-3.85,1.93-5.95-1.44.4-2.44.68-3.74.99C0,176.89,0,158.53,0,139.71c1-2.04,2.05-3.58,2.99-5.19.76-1.29,1.4-2.65,2.1-3.98.96,1.32,2.13,2.54,2.83,3.98.69,1.43.9,3.09,1.56,5.55,3.17-3.76,5.81-6.89,8.45-10.02-.22-.43-.44-.86-.65-1.29-2.09.27-4.18.8-6.26.74-1.59-.05-3.15-.84-4.73-1.3.54-1.34.8-2.92,1.67-3.99,3.75-4.64,7.67-9.14,12.04-14.29-5.12-.77-5.9-2.42-3.49-6.09,1.75-2.66,2.41-6.04,3.54-9.11.23-.61.16-1.6.57-1.84,7.31-4.32,7.5-11.64,7.5-19.05.55-.12,1.1-.24,1.64-.36.74,1.62,1.92,3.19,2.16,4.88.88,6.49.69,13.24,2.47,19.45.93,3.23,5.05,5.61,7.97,8.1.26.22,2.71-1.39,3.36-2.58.92-1.68,1.11-3.77,1.67-5.86-3.91-.24-5.27-2.09-3.62-5.89,2.47-5.7,4.63-11.55,7.27-17.17,3.81-8.09,7.94-16.04,12.04-24.28-4.59-.31-4.65-2.19-3.12-5.43,2.11-4.46,5.76-9.53,5.01-13.65-.86-4.75.39-8.51,1.06-12.68.93-5.82,1.91-11.64,3.03-18.38,1.13,1.12,2.42,1.82,2.78,2.84,2.49,7.07,4.8,14.21,7.16,21.32.86,2.6,1.8,4.69-.64,7.61-1.3,1.55.5,5.69.99,9.36,1.5-2.02,2.61-3.52,4.24-5.71,3.04,9.67,5.75,18.3,8.56,27.26-2.3.41-3.89.7-6.36,1.14.78,1.87,1.04,3.73,2.09,4.85,5.65,6.01,4.84,13.82,5.9,21.02.3,2.06-1.55,4.42-2.3,6.68-.24.74-.44,1.84-.07,2.38,2.91,4.24,5.96,8.38,9.08,12.71,2.73-2.38,1.14-9.74,7.83-5.31.64-1.35,1.31-2.45,1.7-3.65,1-3.04,1.16-6.65,6.32-4.46.98.41,3.54-2.91,5.37-4.51-.14-.47-.29-.94-.43-1.41-2.19.21-4.43.77-6.57.51-1.55-.19-3.32-1.17-4.3-2.37-.44-.53.45-2.85,1.35-3.68,4.5-4.14,9.2-8.05,14.58-12.69-2.48-.47-3.98-.75-6.42-1.21.64-1.66.93-3.34,1.82-4.6,3.3-4.69,4.91-10.23,9.86-14.23,2.96-2.4,3.02-8.37,4.82-14.12.72,2.42,1.37,3.84,1.55,5.33.78,6.67,1.1,13.42,2.29,20.01.41,2.29,2.96,4.16,4.36,6.33,1.4,2.17,2.58,4.49,4.25,7.42.97-5.14,1.99-10.56,3.08-16.35,4.75,1,2.48,4.89,3.05,7.45.72,3.2,1.28,6.43,1.9,9.65.58,3.04,1.15,6.07,1.8,9.48,3.38-1.59,4.35.21,5.53,3.38,1.73,4.65,4.4,8.98,6.97,13.27,2.1,3.52,4.53,6.79,2.2,9.28,2.73,8.02,5.09,14.97,7.45,21.92l1.17.37c3.4-12.57,6.8-25.15,10.3-38.1-4.22.12-5.08-2.26-4-5.36,3.12-8.96,6.45-17.85,9.73-26.76.08-.21.56-.27,1.72-.8,1.16,3.12,2.31,6.2,3.89,10.41,2.04-3.33,3.67-6,5.63-9.23.86-2.34,1.4-4.12,1.93-5.91-.4-.11-.81-.22-1.21-.33-.56,1.78-1.11,3.56-1.67,5.33M867.34,71.34h-6.19c1.52,2.95,2.5,4.87,4.21,8.2,1.26-3.76,1.99-5.95,3.23-8.6,1.92-2.02,3.83-4.03,5.78-6.08-5.99-1.13-6.45-.63-7.03,6.49M1224.79,109.3c-.79.83-2.39,1.88-2.23,2.45.48,1.77,1.63,3.36,2.96,5.85,2.31-3.65,3.81-6.04,5.85-9.26-2.71.42-4.27.66-6.58.96M963.26,114.65c1.22-1.81,2.44-3.62,4.29-6.37-3.29.5-5.37.43-7.04,1.22-.9.43-1.69,2.44-1.5,3.56.55,3.13.76,3.09,4.25,1.59M448.35,107.88c4.65-.18,4.21-4.45,7.16-7.27q-10,.96-7.16,7.27M822.91,107.45c.13-.62.26-1.23.38-1.85-.71.15-1.65.07-2.08.5-1.33,1.32-2.47,2.83-3.97,4.61.69.99,1.55,2.21,3,4.3,1.06-3.05,1.73-5,2.66-7.55M1117.57,138.34c.84-.92,1.68-1.84,2.52-2.77l-1.08-1.68c-1.62.81-3.24,1.62-4.87,2.43.93.8,1.85,1.59,3.43,2.02M343.69,128.38c-1.46-.62-2.93-1.24-4.39-1.87-.39,1.39-.78,2.78-1.16,4.17.42.23.84.47,1.26.7,1.33-.77,2.65-1.55,4.3-3M302.89,98.98c.44.35.88.71,1.32,1.06.17-.53.34-1.06.51-1.59-.54.02-1.07.05-1.83.53M815.1,106.53c.21.5.42.99.64,1.49.36-.37.72-.73,1.09-1.1-.43-.21-.86-.43-1.72-.39M1078.89,106.98c.44.35.88.71,1.32,1.06.17-.53.34-1.06.51-1.59-.54.02-1.07.05-1.83.53M1263.34,79.88c.42-.24.85-.47,1.27-.71-.48-.27-.96-.54-1.43-.81-.08.4-.15.79.17,1.51M486.95,71.56c.52.03,1.05.06,1.57.08-.13-.38-.27-.76-.4-1.14-.5.24-.99.48-1.17,1.06M334.81,118.39c-.28-.28-.57-.56-.85-.85-.2.35-.4.69-.6,1.04.46.1.92.2,1.46-.19M1109.44,126.87l1.18.13c-.16-.49-.32-.98-.47-1.47-.29.28-.58.57-.71,1.35Z"/>
  <rect class="cls-1" x=".06" y="172.06" width="1271.29" height="36.38"/>
</svg>