<?xml version="1.0" encoding="UTF-8"?>
<svg id="waves" class="page-breaks" xmlns="http://www.w3.org/2000/svg" viewBox="0 0 980 176.97">
  <defs>
    <style>
      .waves-1 {
        stroke: #4e9599;
        stroke-miterlimit: 10;
        stroke-width: 3px;
      }

      .waves-1, .waves-2{
        fill: #4e9599;
      }

      .waves-2{
        stroke-width: 0px;
      }
    </style>
  </defs>
  <path class="waves-1" d="M444.27,118c-11.5-13.48-24.8-29.07-42.59-30.39-10.42-.77-14.41,3.94-29.81,10.48-18.34,7.79-44.6,14.65-64.27,13.01-4.27.31-8.5-.12-12.51-1.99-.79-.37-1.37-.85-1.79-1.39-3.02-1.37-5.63-3.15-7.68-5.44-5.3-5.91-7.95-16.18-4.26-23.06,3.72-6.93,13.14-9.07,14.91-9.43,9.35-1.93,15.54,2.24,17.04,0,1.59-2.38-3.45-10.09-10.65-14.67-11.86-7.56-29.16-6.4-41.53,0-7.21,3.74-15.18,10.51-21.3,15.72-5.42,4.62-8.81,8.04-14.91,9.43-2.18.5-5.55.93-14.91-1.05-13.31-2.82-19.97-4.23-24.49-8.38-7.69-7.07-12.19-21.01-6.39-30.39,5.44-8.81,17.71-9.95,23.42-10.48,12.93-1.2,20.5,3.61,21.3,2.1,1.54-2.92-22.69-28.14-55.37-30.39-21.04-1.45-37.03,7.21-58.56,18.87-15.65,8.47-15.76,11.13-43.66,30.39-32.48,22.44-48.72,33.65-61.76,35.64-.99.15-1.96.27-2.91.38,1.73,22.04,1.35,44.13.8,66.23,9.22.97,18.44,1.88,27.66,1.52,24.74-.97,73.99-1.69,172.49-3.14,91.8-1.35,137.71-2.03,166.1-1.05,40.33,1.39,85.27,4.19,89.44-9.43,1.54-5.03-3.59-11.04-13.84-23.06Z"/>
  <path class="waves-1" d="M983.95,124.43c-15.97,5.08-34.27,8.59-48.93,7.37-4.27.31-8.5-.12-12.51-1.99-.79-.37-1.37-.85-1.79-1.39-3.02-1.37-5.63-3.15-7.68-5.44-5.3-5.91-7.95-16.18-4.26-23.06,3.72-6.93,13.14-9.07,14.91-9.43,9.35-1.93,15.54,2.24,17.04,0,1.59-2.38-3.45-10.09-10.65-14.67-11.86-7.56-29.16-6.4-41.53,0-7.21,3.74-15.18,10.51-21.3,15.72-5.42,4.62-8.81,8.04-14.91,9.43-2.18.5-5.55.93-14.91-1.05-13.31-2.82-19.97-4.23-24.49-8.38-7.69-7.07-12.19-21.01-6.39-30.39,5.44-8.81,17.71-9.95,23.42-10.48,12.93-1.2,20.5,3.61,21.3,2.1,1.54-2.92-22.69-28.14-55.37-30.39-21.04-1.45-37.03,7.21-58.56,18.87-5.01,2.71-8.43,4.83-11.67,7.09-3.39,2.93-6.68,6-9.96,9.09-9.67,9.1-19.54,18.12-29.71,26.66-8.37,7.03-17.4,13.47-27.56,17.53-5.36,3.2-12.02,3.86-18.57,4.53-1.54.16-3.21.35-4.92.49-1.03.26-2.04.49-3.02.64-24.97,3.8-40.59-7.23-53.24,4.19-6.33,5.71-8.04,13.54-9.44,19.91-2.42,11.05-2.6,30,8.37,37.73,6.04,4.25,13.2,3.52,18.1,3.14,20.55-1.59,41.16,3.95,61.76,3.14,24.74-.97,73.99-1.69,172.49-3.14,80.64-1.19,125.86-1.85,154.91-1.33-.35-15.49-.78-30.98-.96-46.48Z"/>
  <path class="waves-1" d="M736.33,83.05c-6.61-2.65-10.18,3.5-37.97,13.92-13.51,5.06-22.58,8.4-35.44,10.13-15.7,2.1-26.77.43-37.97-1.27-12.47-1.89-16.21-3.95-18.99-6.33-5.99-5.13-9.88-13.73-8.86-22.78,1.1-9.77,7.85-19.23,16.46-21.52,10.52-2.8,19.63,6.21,21.52,3.8,1.76-2.24-4.24-12.41-13.92-17.72-4.02-2.2-13.75-6.35-32.91-1.27-6.21,1.65-17.82,5.43-44.3,25.32-13.42,10.08-33.77,26.62-54.43,36.71-2.82,1.38-7.56,3.57-13.92,3.8-.7.03-1.39.02-2.07,0-4.99,1.35-10.14,2.08-15.53,2.12-9.7,2.02-19.29,1.12-26.96-5.16-8.45-6.92-12.78-20.33-3.25-28.23,3.05-2.53,6.8-4.09,10.76-4.78,6.06-1.64,15.01.2,15.54-1.93.49-1.98-6.49-6.54-15.19-8.86-8.75-2.33-18.35-2.15-44.3,6.33-7.73,2.53-13.99,4.57-19.4,6.49-4.57,2.78-9.11,5.57-13.59,8.43-4.8,4.4-9.23,9.32-13.73,13.84-11.18,11.22-24.09,20.72-40.54,19.99-9.05,7.96-18.92,15.02-28.75,22.13.38,3.69,1.47,7.21,3.35,10.14,7.95,12.44,28.35,12.01,37.95,11.84,45.57-.81,91.26,3.93,136.73.81,59.14-4.05,99.74-6.84,150.63,0,7.56,1.02,37.53.68,97.47,0,13.34-.15,25.27-.46,34.18-8.86,18.82-17.75,12.8-60.94-2.53-67.09Z"/>
  <path class="waves-2" d="M439.54,58.75c-7.14-2.43-14.46-4.88-22.09-4.89s-14.91,2.14-22.11,3.94c-6.68,1.68-13.32,3.62-19.54,6.61s-11.53,7.03-16.14,12.02c-5.15,5.57-9.34,11.94-13.48,18.26-1.06,1.62,1.54,3.12,2.59,1.51,7.19-10.98,14.72-21.98,26.63-28.25,5.87-3.09,12.24-5.06,18.64-6.73,6.78-1.77,13.77-3.81,20.79-4.28,8.29-.56,16.18,2.06,23.92,4.69,1.83.62,2.62-2.27.8-2.89h0Z"/>
  <path class="waves-2" d="M419.23,57.29c-8.02-2.13-16.29-.43-23.98,2.2-7.22,2.47-14.53,5.32-21.24,8.98-3.74,2.04-7.27,4.47-10.39,7.38-1.41,1.32.71,3.44,2.12,2.12,5.17-4.84,11.53-8.09,18-10.83,6.99-2.96,14.23-5.97,21.74-7.3,4.3-.76,8.71-.79,12.95.34,1.87.5,2.66-2.4.8-2.89h0Z"/>
  <path class="waves-2" d="M406.36,57.89c-10.1,3.79-20.31,7.29-30.61,10.48-1.84.57-1.05,3.47.8,2.89,10.3-3.19,20.51-6.69,30.61-10.48,1.79-.67,1.02-3.57-.8-2.89h0Z"/>
  <path class="waves-2" d="M445.12,58.93c-15.89-6.17-33.41-7.38-49.99-3.39-14.2,3.41-29.18,10.49-34.98,24.75-1.7,4.17,5.07,5.99,6.75,1.86,5.16-12.69,21.12-18.19,33.45-20.6,14.42-2.81,29.27-1.18,42.91,4.12,4.2,1.63,6.02-5.13,1.86-6.75h0Z"/>
  <rect class="waves-1" x="2.41" y="138.28" width="982.49" height="34.81"/>
  <path class="waves-2" d="M439.94,108.89c2.2.84,4.72.91,7.04,1.11s4.86.3,7.29,0c.8-.1,1.5-.62,1.5-1.5,0-.73-.69-1.6-1.5-1.5-2.33.3-4.68.23-7.02.03-2.16-.18-4.47-.25-6.52-1.03-.76-.29-1.65.32-1.85,1.05-.23.84.29,1.56,1.05,1.85h0Z"/>
  <path class="waves-2" d="M496.57,96.4c-4.16,2.17-8.33,4.29-12.87,5.56s-9.23,1.89-13.88,2.56c-9.7,1.39-19.57,2.54-29.26.47-5.26-1.13-10.33-2.94-15.35-4.81-1.81-.68-2.59,2.22-.8,2.89,4.59,1.71,9.21,3.37,13.97,4.5,4.92,1.17,9.94,1.67,14.99,1.57s10.06-.71,15.06-1.41,9.73-1.28,14.49-2.45c5.38-1.33,10.28-3.73,15.17-6.28,1.71-.89.2-3.48-1.51-2.59h0Z"/>
  <path class="waves-2" d="M782.23,21.34c-3.9.16-7.78.73-11.54,1.75s-7.66,2.72-11.36,4.43c-7.12,3.29-14.19,6.7-20.99,10.63-3.92,2.27-7.74,4.71-11.41,7.37-1.55,1.12-.05,3.73,1.51,2.59,7.97-5.79,16.65-10.47,25.51-14.75,4.52-2.18,9.07-4.49,13.8-6.19s9.53-2.62,14.48-2.82c1.92-.08,1.93-3.08,0-3h0Z"/>
  <path class="waves-2" d="M785.91,21.02c-5.4-.17-10.74.99-15.62,3.3-.73.35-.92,1.4-.54,2.05.44.75,1.32.89,2.05.54,4.4-2.08,9.25-3.04,14.11-2.89,1.93.06,1.93-2.94,0-3h0Z"/>
  <path class="waves-2" d="M870.46,87.01c-5.53,4.56-11.37,9.36-18.48,11.1-4,.98-8.18.91-12.27.95s-8.52.02-12.78-.07c-1.93-.04-1.93,2.96,0,3,4.42.09,8.85.11,13.28.06s8.76-.05,12.99-1.16c7.46-1.96,13.57-6.96,19.4-11.77,1.49-1.23-.64-3.34-2.12-2.12h0Z"/>
  <path class="waves-2" d="M919.61,129.48c2.01,1.46,4.41,2.17,6.83,2.58,2.83.48,5.69.77,8.54,1.06,5.94.6,11.9.96,17.87,1.08,1.93.04,1.93-2.96,0-3-5.64-.12-11.28-.44-16.9-.98-2.7-.26-5.42-.54-8.11-.95-2.4-.37-4.73-.92-6.73-2.37-1.56-1.14-3.06,1.47-1.51,2.59h0Z"/>
  <path class="waves-2" d="M292.75,109.27c3.19,1.68,6.62,2.91,10.18,3.54,1.77.31,3.55.49,5.34.56s3.74.09,5.57.59,2.66-2.38.8-2.89c-3.44-.94-7.06-.5-10.55-1.08s-6.74-1.68-9.82-3.3c-1.71-.9-3.23,1.69-1.51,2.59h0Z"/>
  <path class="waves-2" d="M332.32,105.05c-6.94,4.4-15.27,5.27-23.26,6.04-1.9.18-1.92,3.19,0,3,8.52-.82,17.38-1.76,24.78-6.45,1.63-1.03.12-3.63-1.51-2.59h0Z"/>
  <path class="waves-2" d="M240.9,67.86c-5.2,4.93-11.28,9.24-18.49,10.47-4.07.69-8.27.48-12.38.33s-8.52-.41-12.77-.76c-1.92-.16-1.91,2.84,0,3,4.58.38,9.16.65,13.75.8,4.22.14,8.48.24,12.66-.55,7.5-1.42,13.92-6,19.35-11.16,1.4-1.33-.72-3.45-2.12-2.12h0Z"/>
  <path class="waves-2" d="M210.83,81.1c8.23.59,16.48.34,24.66-.74.81-.11,1.49-.61,1.5-1.5,0-.73-.7-1.61-1.5-1.5-8.18,1.09-16.43,1.33-24.66.74-1.93-.14-1.92,2.86,0,3h0Z"/>
</svg>